<?xml version="1.0" encoding="utf-8"?>
<!-- Generator: Adobe Illustrator 19.2.1, SVG Export Plug-In . SVG Version: 6.00 Build 0)  -->
<svg version="1.1" id="layer" xmlns="http://www.w3.org/2000/svg" xmlns:xlink="http://www.w3.org/1999/xlink" x="0px" y="0px"
	 viewBox="0 0 652 652" style="enable-background:new 0 0 652 652;" xml:space="preserve">
<style type="text/css">
	.st0{fill:#F15D22;}
	.st1{fill:#FFDD55;}
	.st2{fill:#58B947;}
</style>
<path class="st0" d="M219.5,334.9c0-4.9,9.5-9.4,15.1-9.4c4.9,0,7.9,1.6,8.4,4.9c4.1-2.5,9.2-4.6,14.8-4.6c8.4,0,16.8,4.1,21.7,10
	c4.6-4.1,12-10,22.2-10c27.5,0,29.5,27,29.5,50.9v6.1c0,5.6,0.2,10.4,1,14c0,6.3-13.2,5.9-13.2,5.9c-6.1,0-11-2.1-11-6.3
	c1.3-4.6,1.6-10.9,1.6-15.5c0-2.1-0.2-4.1-0.2-6.6c-0.2-3-0.2-0.2-0.2-3.6c0-12.8-1.5-28-12.8-28c-3,0-9.9,4.1-9.9,7.6v6.1
	c0,4.3-0.2,10-0.2,16.1c0,13.2,0.3,20.4,1.8,24.2c0,6.1-8.4,6.1-11.9,6.1c-4.1,0-12.2-1.3-12.2-5.6c0-1.8,0.2-3.1,0.3-4.9
	c0.3-3.8,1-2.5,1-13.2c0-12.2-0.3-26.8-2.3-30.1c-2.3-4.1-6.6-6.4-10.7-6.4c-8.5,0-9.5,7.7-9.5,21.9v15.5c0,10.9,0.2,15.1,1.1,16.6
	c0,5.4-7.6,6.3-11.5,6.3c-4.1,0-11.9-3.1-11.9-5.6c0-1.6,0.2-2.3,0.3-3.1c0.2-1.6,0.5-4.3,0.5-6.3v-14.6c0-8.1-0.2-16.1-0.2-21.9
	C221.5,345.5,220.7,340.4,219.5,334.9 M282,339.2l0.3,0.3C282.1,339.5,282.1,339.4,282,339.2"/>
<path class="st0" d="M352.1,294.1c7.6-2.3,12.7,3,13.7,8.6l-0.2-0.2c1.5,7.4-9.1,11.7-13.2,12.3c-5.4,0.8-7.6-0.8-8.9-3.3h-1
	c-3.8-1.7-5.3-6.1-3.6-9.1c1.6-2,8.2-6.9,13-8.4H352.1z M342.2,395.9c0.2-1,0.3-2.1,0.3-4.9v-50.7c0-2.8-0.5-4.8-1.1-6.3
	c-2.6-6.4,7.1-7.7,10.2-7.7h1.3c5.9,0,11.7-0.5,11.7,6.3v9.2c0,0.2-0.3,9.2-0.3,25.8c0,12.9,0.2,25.2,0.8,28.3
	c1.1,6.3-4.4,6.9-10.9,6.9c-5.8,0-13-0.5-12-6.8V395.9z"/>
<path class="st0" d="M413.3,408.1c0-0.3-35.6-3.9-35.6-19.4c0-6.1,5.8-8.2,11.2-9.7c-8.7-5.8-15.1-12.3-15.1-22.4
	c0-18,16-30.3,34.4-30.3c10.4,0,18.8,4.9,25.2,4.9c2.3,0,5.1-1.1,7.4-2h-0.3c2.1-1,4.3-1.8,7.2-1.8c4.8,0,8.4,3.6,8.4,8.2
	c0,4.8-3.5,11-13.2,11h-1.8c1.3,3.9,1.8,6.6,1.8,10.2c0,16-17.1,26.8-32,26.8c-1.5,0-3-0.2-4.4-0.3c-1.3,0.5-5.1,3.3-5.1,4.3
	c0,2.3,52.4-2.1,52.4,26.7c0,21.4-27.5,27.7-44.5,27.7c-14.7,0-42-1-42-21.7c0-12,11.9-15,16.6-15c6.1,0,2.2,6.1,2.2,13.2
	c0,9.2,18.4,10.5,25.8,10.5c7.6,0,19-2,19-11c0-8.6-12-9.2-17.8-9.9H413.3z M407.7,339.2c-7.1,0-10.4,8.1-10.4,15.8
	c0,8.1,4.6,15.6,12.2,15.6c6.8,0,10-6.3,10-13.7C419.6,348.6,415.6,339.2,407.7,339.2"/>
<path class="st0" d="M496.5,402.8c-24.5,0-44.5-13.2-44.5-37.5c0-23.2,18.6-38.9,43.2-38.9c24.5,0,43.5,15.7,43.5,38.9
	C538.7,387.2,519.6,402.8,496.5,402.8 M492.1,339.9c-11.9,0-16.6,8.1-16.6,20.1c0,13.7,9.4,29.1,23.2,29.1
	c10.9,0,16.3-7.4,16.3-18.8C515,355.3,507.7,339.9,492.1,339.9"/>
<path class="st0" d="M573.6,402.5h-4.1c-6.4,0-27.2-1.5-27.2-12.9c0-4.6,4.5-8.7,9.6-8.7c7.2,0,15.3,8.4,23,8.4
	c5.9,0,13-3.5,13-10.4c0-5.4-7.6-7.1-15.3-8.6c-14-3-29-6.3-29-21.1c0-15.3,16.5-22.9,31.8-22.9c7.7,0,10.7,0,18.4,2.6l-0.2-0.2
	c0-0.2,0-0.2,0.2-0.2c4.6,0,9.7,3.6,9.7,8.6c0,0.7-0.5,8.1-9.2,8.1c-6.9,0-7.7-6.4-19.3-6.4c-4.8,0-11.2,1.3-11.2,6.3
	c0,11.2,45.3,4.8,45.3,31.1C609.2,391.7,588.6,402.5,573.6,402.5"/>
<path class="st0" d="M214.8,391.9c-3.8-8.6-20-52.2-30.4-80.1c-0.3-0.9-0.7-1.8-1-2.7c-4.5-11.9-7.8-20.9-8.5-23
	c-0.4-1.3-1.2-2.3-2.8-3.2c-6.5-3.9-14.8-2.7-18.8,0.2h0c-0.1,0.1-0.2,0.2-0.3,0.3c-0.1,0.1-0.2,0.2-0.4,0.3
	c-1.5,1.4-2.2,2.6-2.4,3.2h0c0,0.1-0.1,0.2-0.1,0.2v0c-0.4,0.9-0.7,2-0.8,3.2h0c0.1,2.4-0.2,5.4-0.9,8.8c0,0.2-0.1,0.3-0.1,0.5
	c-0.3,1.6-0.7,3.2-1.2,4.9c-0.1,0.3-0.2,0.7-0.3,1c-0.2,0.6-0.3,1.2-0.5,1.8c-0.1,0.4-0.2,0.7-0.3,1.1c-0.2,0.6-0.4,1.3-0.6,1.9
	c-0.1,0.3-0.2,0.7-0.3,1c-0.3,0.9-0.6,1.7-0.9,2.6c0,0.1-0.1,0.2-0.1,0.4c-0.3,1-0.7,2-1.1,3.1c-0.1,0.4-0.3,0.7-0.4,1.1
	c-0.3,0.7-0.5,1.4-0.8,2.1c-0.2,0.4-0.3,0.8-0.5,1.2c-0.3,0.7-0.5,1.4-0.8,2c-0.2,0.4-0.3,0.9-0.5,1.3c-0.3,0.7-0.6,1.5-0.9,2.3
	c-0.2,0.4-0.3,0.7-0.4,1.1c-0.4,1.1-0.9,2.2-1.4,3.3c-0.1,0.3-0.2,0.6-0.4,0.9c-0.4,0.9-0.7,1.7-1.1,2.6c-0.2,0.4-0.4,0.9-0.6,1.3
	c-0.3,0.7-0.6,1.4-0.9,2.2c-0.2,0.5-0.4,0.9-0.6,1.4c-0.3,0.7-0.6,1.5-1,2.2c-0.2,0.4-0.4,0.9-0.6,1.3c-0.4,0.9-0.8,1.7-1.2,2.6
	c-0.1,0.3-0.3,0.6-0.4,0.9c-0.5,1.1-1,2.3-1.6,3.4c-0.2,0.4-0.4,0.8-0.5,1.2c-0.4,0.8-0.7,1.5-1.1,2.3c-0.2,0.5-0.4,0.9-0.6,1.4
	c-0.3,0.7-0.7,1.4-1,2.1c-0.2,0.5-0.4,0.9-0.7,1.4c-0.4,0.7-0.7,1.5-1.1,2.2c-0.2,0.4-0.4,0.8-0.6,1.1c-0.5,1.1-1.1,2.2-1.6,3.3
	c-0.1,0.2-0.2,0.4-0.3,0.6c-0.4,0.9-0.9,1.8-1.3,2.7c-0.2,0.4-0.4,0.8-0.6,1.2c-0.3,0.7-0.7,1.4-1,2.1c-0.2,0.4-0.4,0.8-0.6,1.3
	c-0.3,0.7-0.7,1.3-1,2c-0.2,0.4-0.4,0.8-0.6,1.2c-0.4,0.7-0.8,1.5-1.1,2.2c-0.1,0.3-0.3,0.6-0.4,0.8c-0.5,1-1,2-1.5,2.9
	c-0.1,0.3-0.3,0.5-0.4,0.8c-0.4,0.7-0.7,1.4-1.1,2.1c-0.2,0.3-0.3,0.7-0.5,1c-0.3,0.6-0.6,1.2-0.9,1.8c-0.2,0.3-0.3,0.7-0.5,1
	c-0.3,0.6-0.7,1.2-1,1.8c-0.2,0.3-0.3,0.5-0.4,0.8c-0.5,0.9-1.1,2-1.5,2.8c-0.2,0.5-0.4,0.7-0.4,1.2c0.2,5.9,2.7,8.1,8.4,8.1
	c5,0,13.9-0.6,15.5-7.2c1.8-7.2,7.4-22.2,11.4-31.8h-0.2c1.7-3.8,3.1-7.1,3.8-9.1c4.1,0,22.6-1.3,30.7-2c0,0,13.7,36.1,15.5,42.3
	c2,6.3,7.2,7.1,12.2,7.1c7.6,0,12.8-2.8,12.8-7.2C216.6,394.2,215.4,392.9,214.8,391.9 M151.7,340.8c0,0,10.5-28.1,10.6-27.8
	c1.4,5.9,7.2,19.7,9,25.1C171.3,338.2,151.7,340.8,151.7,340.8"/>
<path class="st1" d="M107.5,224.6c-0.1-1-0.8-1.9-2.3-1.5c-2.5,0.6-3.6,2.6-4.4,5.9c-1.1,0.3-2.5,0.9-3.9,2.8
	c-1.5,2-1.2,4.9-1.2,4.9c-4.6,1.2-5.8,6.3-4.3,8.7c-0.9,0.6-1.5,1.2-2,1.9c-1.8,2.4-2.1,5.8-1.5,7.7c0.2,0.6,0.4,1.1,0.7,1.5
	c-1,0.6-1.9,1.4-2.5,2.4c-2.2,3.5-1.5,6.5-0.8,8.1c0.3,0.7,0.9,1.7,1.1,2c0.1,0.1-2.9,1.9-4,5.9c-0.9,3.5,0.3,6.3,1.1,7.9
	c-0.1,0.1-0.2,0.2-0.2,0.3c-0.8,1-1.9,3-1.7,5.8c0.2,2,0.8,3.3,1.5,4.4c-1.1,1.2-2.4,4.3-2.1,7.5c0.3,2.4,1.6,4.1,2.1,4.8
	c-3.9,4.6,1.7,11.5,2.4,9.5c2.6-7.2,5.1-14.4,7.8-21.5C102.2,269.9,110.7,247.5,107.5,224.6"/>
<path class="st2" d="M142.8,289.6c-0.6-28.3-17.8-60.8-28.4-77c-2.7-4.1-6.8-0.8-3.6,2.4c0.3,0.3,0.5,0.8,0.9,1.6
	c0.4,0.9,0.7,2.5,1,4.3h0c4.5,24.8-4.4,48.4-13.8,73.4c-10.1,26.9-20.6,54.7-14,85.2c0,0.1,0,0.2,0.1,0.3c0.2,0.9,0.4,1.8,0.7,2.8
	c0,0,0,0.1,0,0.1c0.2,1,0.5,2,0.8,3c1.1,3.7,2.2,6.7,3.3,9.1c0.9,1.9,3,4.9,5.1,6.6c3.5,2.7,7.2,0.3,5.5-1.9c-1.4-1.8-1-4.3-0.7-5.4
	c0.3-1.1,16.5-29.3,21.1-38.9c2.4-5.1,12-24.4,16-36.3C138.9,312.6,143,299.1,142.8,289.6"/>
<path class="st2" d="M68.5,300.5c-5.1-5.8-17.1-15.9-31.5-20.2c-0.1,0-5.3-1.6-6.6-2.1c-1.2-0.5-2.3-1.1-2.4-1.1
	c-1.9-0.7-2.7,1.4-1.5,2.5c0.8,0.7,2.1,1.9,3.8,3.6c10.7,10.1,29,26.8,42.4,62.4c0,0,1.1,3,1.6,4.3c0.9,2.3,3.2,1.8,3.4-0.6
	c0.9-7.7,2.5-15.2,4.5-22.6C83.3,322.7,74.8,307.6,68.5,300.5"/>
<path class="st0" d="M609.4,335.5c0-4.6,3.7-8.3,8.3-8.3c4.6,0,8.2,3.7,8.2,8.3c0,4.6-3.7,8.3-8.2,8.3
	C613.1,343.7,609.4,340,609.4,335.5 M624.9,335.5c0-4-3.3-7.2-7.2-7.2c-4,0-7.2,3.2-7.2,7.2c0,4,3.2,7.3,7.2,7.3
	C621.6,342.7,624.9,339.5,624.9,335.5 M621.8,340.1h-1.3l-2.6-4.2h-2.1v4.2h-1.1v-9.2h4c0.8,0,1.5,0,2.2,0.4c0.7,0.4,1,1.2,1,2
	c0,1.8-1.3,2.5-2.9,2.5L621.8,340.1z M617.4,334.9c1.3,0,3.3,0.2,3.3-1.7c0-1.4-1.2-1.6-2.4-1.6h-2.6v3.3H617.4z"/>
</svg>
