<?xml version="1.0" encoding="utf-8"?>
<!-- Generator: Adobe Illustrator 19.2.1, SVG Export Plug-In . SVG Version: 6.00 Build 0)  -->
<svg version="1.1" id="layer" xmlns="http://www.w3.org/2000/svg" xmlns:xlink="http://www.w3.org/1999/xlink" x="0px" y="0px"
	 viewBox="0 0 652 652" style="enable-background:new 0 0 652 652;" xml:space="preserve">
<style type="text/css">
	.st0{fill:#004C59;}
</style>
<g>
	<path class="st0" d="M328.3,203.5c-0.6,0.8-0.5,2.3,1.1,2.3c9.9,0.1,19.7,0.4,29.3,0.9c179.9,8.9,320.2,81,320.2,168.6
		c0,93.7-160.1,169.5-357.6,169.5S-36.2,469-36.2,375.4c0-19.9,4.8-41.4,18.1-59.1c0,0,0.6-0.8-0.4-1.6c-1-0.6-1.7,0.3-1.7,0.3
		c-19.4,22-30.1,46.3-30.1,71.8c0,101.5,170.2,183.8,380.1,183.8s380-82.3,380-183.8c0-96.8-154.5-176.1-350.8-183.3
		c-9.7-0.3-19.5-0.5-29.3-0.5C329.7,203,328.7,202.9,328.3,203.5"/>
	<path class="st0" d="M631,337.8c0,3.9-2.8,6.5-6,6.5l0,0c-3.4,0-6-2.6-6-6.5c0-3.9,2.7-6.5,6-6.5C628.2,331.3,631,333.9,631,337.8
		 M633.5,337.8c0-5.3-4-8.4-8.4-8.4c-4.5,0-8.5,3.1-8.5,8.4c0,5.3,3.9,8.4,8.5,8.4C629.5,346.2,633.5,343.1,633.5,337.8
		 M623.6,338.5h0.9l2.1,3.8h2.3l-2.3-3.9c1.2-0.1,2.2-0.7,2.2-2.4c0-2.1-1.4-2.7-3.7-2.7h-3.4v9h1.9L623.6,338.5L623.6,338.5z
		 M623.6,337v-2.2h1.4c0.7,0,1.7,0.1,1.7,1s-0.5,1.2-1.4,1.2H623.6z"/>
	<path class="st0" d="M574.8,350.2c-22.8,0-37.5,23.9-37.5,45c0,21.2,14.6,45,37.5,45c22.8,0,37.5-23.9,37.5-45
		C612.3,374.1,597.7,350.2,574.8,350.2 M633.7,395c0,31.6-22.6,57.3-58.7,57.3c-36.1,0-58.7-25.7-58.7-57.3s26.3-57.3,58.7-57.3
		S633.7,363.4,633.7,395"/>
	<path class="st0" d="M193,309.9c0,0-40.1-31.9-68.4-35.7c-27.3-3.9-52.7,3-77.7,25.6c-26.8,23.8-46.1,77.9-10.5,126.7
		c29.4,40.5,87.8,41.9,121.1,25.3c33-16.9,41.4-33.7,41.4-33.7l0.4-20.4c0,0-16.7,34.1-60.7,42.5c-35.1,6.5-72.7-11-87.4-43.5
		c-12-26.4-4-71.2,18.2-90.4c22.5-19.5,46.7-25.6,72.9-14.5c26.5,10.7,31.5,31.3,28.8,41.1c-4.1,14.9-6.3,15.2-6.3,15.2l3.9,2.4
		L193,309.9z"/>
	<path class="st0" d="M517,360c0,0-3.3,6.1-5.7,11c-2.5,5.3-5.6,14-5.6,14h-3c0,0,1.5-11.9-3.6-20.6c-5.4-8-14.5-14.5-23.8-14.6
		c-13-0.1-24.7,5.9-33,19.6c-9.2,15.8-7.7,30.3-4.5,41.4c5.4,18.4,23.5,29.1,41.9,27.1c25-2.4,35.7-17.3,35.7-17.3l4.5,7.8
		c0,0-5,6.5-14.3,13.1c-7.4,5.4-18.5,11.6-38.4,10.7c-23.8-0.9-39-12.5-46.7-29.8c-7.2-15.2-9.2-39.8,4.8-60.9
		c13.1-18.7,30.4-23.7,47.1-23.6c16.7,0.1,31.1,10.3,35,13.2C512.7,355.1,517,360,517,360"/>
	<path class="st0" d="M348.5,437.9c-10.4-4.5-16.2-13.8-14.9-25.9c0.5-4.8,2.3-10.1,6.5-15.4c14.3-18.7,46.8-7.6,46.8-7.6v42.4
		C386.9,431.3,363.4,443.8,348.5,437.9 M423.5,438.2c0,0-4.8,5-8.6,3.9c-4.2-1.2-5-4.1-5.4-6.2c-0.3-1.2-2.6-50.8-2.8-54.3
		c0-26-20-44.7-44.7-44.7c-5.9,0-11.6,1.2-16.8,3.3c-1.4,0.5-2.8,1.2-4.3,1.9c-10.5,4.9-22.3,10.7-22.3,10.7l10,14.7
		c0,0,2.2-2.5,5.6-5.7c2.3-2.1,7.4-7.8,15.6-10.9c2.9-1.1,6.3-1.6,9.7-1.6c18.5,0,27.1,12,27.1,27l0.1,2.6c0,0-20.7-3.7-35.1-1.7
		c-12.5,1.7-28.9,5.6-36.6,22.3c-1.7,3.9-3,8-3.6,12.5c-1.8,13.7,3.2,28.6,18.7,36.6c15.2,7.8,26.8,5.7,37.5,2.7
		c8.7-2.6,20.8-10.4,20.8-10.4s4.2,11.1,12.8,11.6c7.8,0.5,12.5-1.5,16.7-4.1c4.5-3,7.8-7.8,7.8-7.8L423.5,438.2z"/>
	<path class="st0" d="M311.5,450.6L311.5,450.6L311.5,450.6l-0.1-0.1c-0.8-0.3-5.2-2.1-6.3-6.2c-0.6-1.5-0.5-11.6-0.5-11.6
		s-0.3-34,0-44.9c0.6-15.4-2.4-24.1-4.8-29.8c-2.1-4.1-11.3-19.3-34.2-19.9c-21.4-0.6-37.8,23.5-37.8,23.5l0.1-80.7
		c0,0,0.6-7.8-2.1-11.3c-1.2-1.8-3-2.4-3-2.4L199.6,305c0,0,3.3,0,5.4,1.8c2.1,2.4,1.7,8.7,1.7,8.7l-0.1,117.1
		c0,0,0.1,10.1-0.5,11.6c-1.2,4.5-6.3,6.2-6.3,6.3l0,0v3h35v-3l0,0c0,0-5.2-1.7-6.4-6.2c-0.6-1.5-0.5-11.6-0.5-11.6v-44.9
		c0,0-0.2-3.4,8.7-15.2c5.9-7.9,7.3-9.6,14.3-15.8c4.6-4.1,16.1-9.2,25-1.2c8.7,8,7.7,25,7.7,25v52c0,0-0.1,10.1-0.6,11.6
		c-1.1,4.1-5.5,5.9-6.3,6.2h-0.1v0.1l0,0l0,0v2.9h35L311.5,450.6L311.5,450.6z"/>
	<path class="st0" d="M202.6,251.3c-11.8,3.7-26.3,1.4-26.3,1.4c7.8-1.7,25.3-15.1,26.6-16.5c1.4-1.4,3-4.1,2-5
		c-1-1-2.2,0.1-2.2,0.1c-8.1,7.2-26,13.8-26,13.8c2.5-1.9,5.9-4.8,15.4-18.4s0.8-16.7,0.8-16.7c-35.6-8-64.7,13.1-69.1,16.5
		c-0.4,0.3-0.5,0.6-0.5,0.6c-1.2,4.8,4.8,3.7,4.8,3.7c17.2-3.7,30.3-1.7,36.1-1.4c5.8,0.3,4,5.8,1,11.8c-3,6.1-14.2,14-18.5,15.8
		c-3.8,1.6-1.8,3.6-1.8,3.6c0.4,0.4,1.2,0.2,1.6,0.2c0.3,0,0.7,0,1.1,0c14.2,1.6,34.1,17.4,34.1,17.4s3.7,3.9,4.4,0.3
		c0.8-5.1-14.2-17.2-14.2-17.2c19.8,0.6,30.6-5.8,30.6-5.8s3-1.4,2.7-3C205,250.9,202.6,251.3,202.6,251.3"/>
	<path class="st0" d="M355.8,253.3c-8.1-14.8-20.2-17.8-20.2-17.8c5.2,0.2,11.1-7.2,11.8-8.3c0.6-1,1.2-2.7,0.5-3.2
		c-0.6-0.5-1.9,0.7-1.9,0.7c-8.9,9.2-24.1,6.6-34.5,1.9c-10.5-4.7-22.8-4.4-22.8-4.4s17-11.3,19.1-25.4c2-14.2-4.1-10.1-4.1-10.1
		c-9.2,12.8-19.4,13.3-21.4,13.8c-2,0.5-9.6,0.8-10.8,5.4c-1.2,4.5-6.6,10.8-12.5,15.2c-4.2,3.1-1.6,6.2-1.6,6.2
		c2.8,3.6,8,6.1,10.1,6.6c2.2,0.5,7.1-3.2,29.8,0.2c22.8,3.4,37.1,30.3,37.6,34.4c0.2,1.6,0.6,2.5,1,2.9c0.3,0.2,1,0.6,1.4,0
		c4.3-12.4-5.4-26.8-5.4-26.8c14.8,2.7,19.8,9.2,20.4,9.6c0.5,0.3,2.1,1.7,2.9,1.2C356.1,254.7,355.8,253.3,355.8,253.3"/>
	<path class="st0" d="M374.4,82.9c-0.6-9-6.7-11.4-9.8-12.2c-1.2-0.1-2.5-0.1-3.3,0c-31.2,4.9-47.1,30.3-47.2,30.6
		c-4.3,5.9-9.7,22.6-12.3,31.1v-0.1c-1.8,6.9-4.5,10.7-4.5,10.7c-7.9,12.5-33.3,41.9-90,29.5C122.5,153.8,74.1,220,73.6,220.6
		c-34.1,42.6-67.2,65.5-98.3,67.9c-25.3,2-39.8-10.9-39.9-11c-0.3-0.3-0.7-0.3-1,0c-0.3,0.3-0.3,0.7,0,1c12,13.1,26.8,20,43.8,20.4
		c47.7,1.1,98.7-49.1,99.2-49.6c80-73.8,146.8-56.1,147.5-55.9c70.5,13.5,93-25.1,98.1-37l0,0c0,0,0-0.1,0.1-0.1
		c0.2-0.5,0.4-0.9,0.5-1.3c0.4-1.1,1.2-2.2,2.1-3c3.9-3.3,8.3-6.3,12.7-9.2c7.8-5.3,15.8-10.7,21.1-18c8.9-12,15-30.6,15-40.4
		C374.5,83.9,374.4,83.4,374.4,82.9"/>
	<path class="st0" d="M143,126.3c-8.1-5.6-38.5,16.3-38.5,16.3s-1.6,1-1.6,0.6s0.8-1.9,0.8-1.9c5.1-8.8,12.9-20.2,9.8-22.5
		s-14.8,15.1-16.3,17.8c-1.5,2.8-2.3,1.9-2.3,1.9c0-8.7-1.9-17.1-3-19.5c-1-2.2-1.7-2.2-2.6-2.2s-1,1.3-1,1.3
		c2.8,18.3-6.9,36.5-7.9,37.7c-1.5,1.6-0.2,2.5-0.2,2.5c10.1,3.7,32.2-8.5,39.6-5.8c7.4,2.8-9.7,23.3-9.7,23.3
		c-0.2,0.3-0.3,0.5-0.4,0.6c-0.1,0.2-0.1,0.3-0.1,0.5c0,1,0.7,1.7,1.7,1.7c0.3,0,0.5-0.1,0.7-0.1c7.9-2.1,22.9-12,25.1-14.5
		C139.2,161.3,151.1,131.9,143,126.3"/>
	<path class="st0" d="M292,102.3c-1.2-0.6-1.9,1-1.9,1c-5.2,10.8-13.7,11.3-13.7,11.3c12-11.6,7.3-26,6.8-26.9
		c-0.3-0.5-0.9-0.4-1.2-0.2c-0.3,0.1-0.3,1-0.3,1c0,13.4-12,22.3-12,22.3c2.1-13.9-2.2-18.8-3.1-20c-1.2-1.5-1.6,0-1.6,0
		c1,25.5-6.5,32.8-18.2,38.7c-11.8,5.9-24,8-25.2,12.5c-1.2,4.5,2.3,5.4,16.3,9.2c8.9,2.4,12.2,5.9,13.5,8.3l0,0
		c0.3,0.5,0.6,1.4,0.7,2.1c0.1,0.4,0.3,0.7,0.9,0.8c0,0,0,0,0.1,0c1.4,0.3,4.7-0.6,10.7-6c8.7-7.8,5.6-12.5,5.6-12.5
		c-4.8-7.6-14.6-7.5-14.6-7.5c28.6-10.3,35.8-28.9,36.5-30.4C291.9,104.6,292.7,102.6,292,102.3"/>
</g>
</svg>
