<?xml version="1.0" encoding="utf-8"?>
<!-- Generator: Adobe Illustrator 19.2.1, SVG Export Plug-In . SVG Version: 6.00 Build 0)  -->
<svg version="1.1" id="layer" xmlns="http://www.w3.org/2000/svg" xmlns:xlink="http://www.w3.org/1999/xlink" x="0px" y="0px"
	 viewBox="0 0 652 652" style="enable-background:new 0 0 652 652;" xml:space="preserve">
<style type="text/css">
	.st0{fill:#231F20;}
</style>
<g id="Layer_2">
	<g id="Layer_1-2">
		<path class="st0" d="M326,85.9c76.9,0,139.3,62.4,139.3,139.3S402.9,364.5,326,364.5c-76.9,0-139.3-62.4-139.3-139.3
			c0-36.9,14.7-72.3,40.8-98.5C253.6,100.5,289,85.8,326,85.9 M326,75.2L326,75.2c-82.8,0-150,67.2-149.9,150.1
			c0,39.7,15.8,77.8,43.9,105.9c57.1,60,152.1,62.3,212.1,5.2s62.3-152.1,5.2-212.1c-1.7-1.8-3.4-3.5-5.2-5.2
			C404,91,365.8,75.2,326,75.2z"/>
		<path class="st0" d="M326,281.5c0,0,4.4,33,12.2,46.1L326,353.3l-12.3-25.6C321.6,314.4,326,281.5,326,281.5z"/>
		<path class="st0" d="M374.7,197.1c0,0,30.7-12.7,46.1-12.5l16.1-23.4l-28.3,2.2C401.3,176.8,374.7,197.1,374.7,197.1z"/>
		<path class="st0" d="M277.2,197.1c0,0-30.7-12.7-46.1-12.5l-16-23.4l28.3,2.2C250.9,176.8,277.2,197.1,277.2,197.1z"/>
		<path class="st0" d="M326,97.2c8.1,24.4,33.4,32.6,35.4,58c0.4,9.8-4.3,19.1-12.4,24.6c5.9-9.5,6.3-21.5,0.8-31.3
			c-7.9-12.4-18.5-16.3-23.9-21.7c-5.3,5.4-15.9,9.4-23.9,21.7c-5.4,9.8-5.1,21.8,0.8,31.3c-8.1-5.5-12.8-14.8-12.4-24.6
			C292.6,129.8,317.9,121.6,326,97.2z"/>
		<path class="st0" d="M436.9,289.1c-17.1-19.2-11.5-45.2-32.6-59.7c-8.3-5.3-18.8-5.9-27.6-1.5c11.2-0.4,21.8,5.3,27.6,14.9
			c6.9,13,4.8,24.2,6.9,31.5c-7.4,1.9-16.1,9.1-30.8,9.7c-11.2-0.2-21.4-6.5-26.7-16.3c0.7,9.8,6.4,18.5,15.1,23
			C392,301.9,411.7,284,436.9,289.1z"/>
		<path class="st0" d="M215.1,289.1c17.1-19.2,11.5-45.2,32.6-59.7c8.3-5.3,18.8-5.9,27.6-1.5c-11.2-0.4-21.8,5.3-27.6,14.9
			c-6.9,13-4.8,24.2-6.9,31.5c7.4,1.9,16.1,9.1,30.8,9.7c11-0.3,21.1-6.4,26.3-16.1c-0.7,9.8-6.4,18.5-15.1,23
			C260,301.9,240.3,284,215.1,289.1z"/>
		<path class="st0" d="M290,332.2c24.6-19.1,19.6-56,19.6-56c-11,43.2-35.5,53.3-47.5,45.5c-3.3-2.5-4.5-7-2.8-10.8
			c1.7-3.5,5-6.1,8.8-6.9c0,0-13.8-3.2-18.1,8.1c-2.8,8.6,0.9,17.9,8.9,22.1C268.6,340.6,281.3,339.7,290,332.2z"/>
		<path class="st0" d="M362,332.2c-24.6-19.1-19.6-56-19.6-56c11,43.2,35.5,53.3,47.5,45.5c3.3-2.5,4.5-7,2.8-10.8
			c-1.7-3.5-5-6.1-8.8-6.9c0,0,13.8-3.2,18.1,8.1c3,8.7-0.8,18.2-8.9,22.5C383.3,340.8,370.6,339.9,362,332.2z"/>
		<path class="st0" d="M400.6,140.6c-4.3,30.8-38.7,45-38.7,45c31.9-31.2,28.4-57.5,15.7-63.9c-3.8-1.7-8.4-0.5-10.8,2.9
			c-2.1,3.2-2.5,7.3-1.3,10.9c0,0-9.8-10.7-2.1-19.7c6-6.8,16-8.2,23.7-3.4C397.5,117.7,403,129.3,400.6,140.6z"/>
		<path class="st0" d="M436.6,202.9c-28.8-11.7-58.3,11-58.3,11c43-12,63.9,4.1,63.2,18.3c-0.5,4.2-3.8,7.4-7.9,7.9
			c-3.9,0.2-7.6-1.4-10.1-4.3c0,0,4.3,13.8,16.1,11.7c8.8-1.8,15.1-9.7,14.8-18.8C454.9,217.2,447.6,206.6,436.6,202.9z"/>
		<path class="st0" d="M251.4,140.6c4.3,30.8,38.7,45,38.7,45c-31.9-31.2-28.4-57.5-15.7-63.9c3.8-1.7,8.3-0.5,10.8,2.9
			c2.1,3.2,2.5,7.3,1.3,10.9c0,0,9.8-10.7,2.1-19.7c-6-6.8-16-8.2-23.7-3.4C254.5,117.7,249,129.3,251.4,140.6z"/>
		<path class="st0" d="M215.1,202.9c28.8-11.7,58.3,11,58.3,11c-43-12-63.9,4.1-63.2,18.3c0.5,4.2,3.8,7.4,7.9,7.9
			c3.9,0.2,7.6-1.4,10.1-4.3c0,0-4.3,13.8-16.1,11.7c-8.8-1.8-15.1-9.7-14.8-18.8C196.8,217.2,204.1,206.6,215.1,202.9z"/>
		<path class="st0" d="M326,235.7c0,0,4.8,25,21.2,28.6c-5.7,5.6-13.2,9.1-21.2,9.7c-8-0.6-15.5-4.1-21.2-9.8
			C321.2,260.8,326,235.7,326,235.7z"/>
		<path class="st0" d="M316.9,220.1c0,0-19.2-16.7-13.8-32.7c-7.8,2.2-14.5,7.1-19,13.8c-3.5,7.2-4.2,15.5-2.2,23.2
			C292.8,211.7,316.9,220.1,316.9,220.1z"/>
		<path class="st0" d="M335.1,220.1c0,0,19.2-16.7,13.8-32.7c7.8,2.2,14.5,7.1,19,13.8c3.5,7.2,4.2,15.5,2.2,23.2
			C359.2,211.7,335.1,220.1,335.1,220.1z"/>
		<path class="st0" d="M326,160.8c4.9,15.7,10.6,19.4,11.9,28.8c2.1,10.3-2.7,20.7-11.9,25.8c-9.2-5.1-14-15.5-11.9-25.8
			C315.4,180.3,321.1,176.5,326,160.8z"/>
		<path class="st0" d="M381.7,257.4c-11.1-12.1-11.5-18.9-19-24.6c-7.8-7-19.3-8-28.3-2.6c-0.2,10.5,6.5,19.9,16.4,23.2
			C360,256.8,365.7,253.8,381.7,257.4z"/>
		<path class="st0" d="M270.3,257.4c11.1-12.1,11.5-18.9,19-24.6c7.8-7,19.3-8,28.3-2.6c0.2,10.5-6.5,19.9-16.4,23.2
			C292.4,256.8,286.2,253.8,270.3,257.4z"/>
		<path class="st0" d="M88,551.7c-3.2,0-3.6,0-4.7,3.3l-3.2,8.8c-1.5,4.4-1.1,5,1.5,5.5l3.7,0.7c1.1,0.7,1,3.2-0.4,3.4
			c-3.4,0-6.9-0.4-10.9-0.4s-6.9,0-9.7,0.4c-1-0.8-1.1-2.1-0.3-3.1c0.1-0.1,0.2-0.2,0.3-0.3l3.2-0.7c4.3-1,5.8-2.5,8.6-9.1
			l13.3-31.8c1.6-3.8,2.7-7.7,3.2-11.8c2.5-1.1,4.5-2.9,5.8-5.2c1.1-0.4,1.9,0,2.2,0.7c0.3,0.7,2.8,8.6,5.9,17l12.4,33
			c1.7,4.6,2.9,6.3,7.9,7.3l2.2,0.4c0.9,0.7,1.1,1.9,0.4,2.8c-0.2,0.3-0.5,0.5-0.8,0.7c-3.6,0-6.9-0.4-11.4-0.4c-4.6,0-9,0-12.4,0.4
			c-1-0.6-1.3-1.8-0.7-2.7c0.2-0.3,0.4-0.5,0.7-0.7l2.8-0.4c3.6-0.6,3.4-1.4,1.8-5.7l-3.3-9c-1.1-3.2-1.5-3.3-4.7-3.3L88,551.7z
			 M98.9,547.3c3.6,0,4,0,2.5-4.3l-4.3-11.7c-0.5-1.7-1.2-3.4-2.1-5l0,0c-0.9,1.5-1.6,3.1-2.2,4.7l-5,12.3c-1.5,3.7-1.2,4,1.8,4
			H98.9z"/>
		<path class="st0" d="M151.5,529.3c0-9,0-11.3-3.3-11.7l-3.9-0.9c-1.1,0-1.4-3,0-3.4c7.6-0.6,15.4-0.8,23-0.8
			c12.9,0,26.8,2.1,26.8,16.6c-0.1,7.3-5.2,13.6-12.3,15.2c-0.5,0.6-0.5,1.5,0,2.1c4.6,8.3,10.5,15.8,17.6,22.1
			c2.1,1.7,4.6,2.7,7.3,2.9c0.6,0.6,0.6,1.6,0,2.2c-1.9,0.5-3.8,0.8-5.8,0.7c-7.8,0.3-15.2-3.7-19.4-10.3c-3.4-4.4-6.9-10.5-10.1-15
			c-1.4-1.6-3.4-2.4-5.5-2.2c-3.6,0-3.9,0-3.9,2.2v9.8c0,9.5,0.6,10.2,6.5,11l3.2,0.4c1,0.7,0.8,3,0,3.4c-5.8,0-10.3-0.4-14.7-0.4
			c-4.3,0-8.7,0-13.8,0.4c-1-0.6-1.3-1.8-0.7-2.7c0.2-0.3,0.4-0.5,0.7-0.7l2.1-0.4c5.9-1.2,6.5-1.5,6.5-11L151.5,529.3z M162,539.4
			c0,3.4,0,3.4,6.9,3.4c9,0,13.8-3.6,13.8-13.2c0.1-7.2-5.7-13.1-12.9-13.1c-0.6,0-1.1,0-1.7,0.1c-5.1,0-6.1,0-6.1,3.9V539.4z"/>
		<path class="st0" d="M227.9,529.3c0-9,0-11.3-3.3-11.7l-4.1-0.6c-1.2-0.4-1.1-3,0-3.4c7.7-0.6,15.5-0.8,26.7-0.8
			c7-0.1,14,0.9,20.7,3c11.8,3.6,19.7,14.8,19.1,27.1c0.1,11.4-6.4,21.7-16.6,26.7c-6.5,3-13.6,4.4-20.7,4.3
			c-6.2,0-12.4-0.7-16.6-0.7c-4.2,0-8.7,0-13.8,0.4c-1.1-0.4-1.2-2.8,0-3.4l2.6-0.4c5.9-1,6.5-1.5,6.5-11L227.9,529.3z M238.4,556.9
			c0,8.8,1.4,13.3,11.9,13.3c16.6,0,24.8-10.3,24.8-27.6s-11.6-25.9-27.5-25.9c-2.8-0.3-5.7,0.2-8.3,1.5c-0.8,0.6-0.8,2.3-0.8,5.4
			L238.4,556.9z"/>
		<path class="st0" d="M309.9,527.6c0-9.5-0.6-9.9-5.8-11l-1.9-0.4c-1-0.9-1-2.4-0.1-3.3c0,0,0.1-0.1,0.1-0.1
			c4,0.3,8.3,0.4,12.9,0.4h19.7c4.3,0.1,8.6,0,12.9-0.4l1.5,13.8c-0.9,1-2.5,1-3.5,0.1c0,0-0.1,0-0.1-0.1c-0.4-2.4-1.2-4.8-2.5-6.9
			c-2.2-3.3-8.4-3.3-11.7-3.3h-5.9c-4.8,0-5,0-5,4.4v15.4c0,2.5,0,2.8,2.6,2.8h6.5c7.3,0,8-1.1,9.1-5.2l0.7-2.6c0.9-1,2.4-1,3.3-0.1
			c0,0,0.1,0.1,0.1,0.1c0,4,0,6.5,0,9.7s0,5.9,0,9.9c-0.9,1-2.4,1-3.3,0.1c0,0-0.1-0.1-0.1-0.1l-0.7-2.6c-1.1-4.1-1.8-5.2-9.1-5.2
			h-6.5c-2.6,0-2.6,0.4-2.6,3.2v9.9c-0.3,3.4,0.2,6.8,1.5,9.9c1.2,1.4,3.7,1.9,11.6,1.9s13.8-0.4,18-11.4c1-0.9,2.4-0.8,3.3,0.2
			c0.1,0.1,0.2,0.2,0.3,0.4c-0.6,5.3-2,10.5-4.1,15.4c-8.7,0-16.1-0.4-23.5-0.4h-12.3c-4.4,0-8.7,0-15.4,0.4c-1.1-0.4-1.2-2.8,0-3.4
			l3.7-0.4c5.9-0.7,6.5-1.5,6.5-11L309.9,527.6z"/>
		<path class="st0" d="M430.5,534.4c0-13.8-0.8-17.4-5.9-17.9l-4.4-0.4c-1-0.9-1-2.4-0.1-3.3c0,0,0.1-0.1,0.1-0.1
			c5.1,0,8.3,0.4,12.3,0.4s6.9,0,11.4-0.4c1,0.9,1,2.4,0.1,3.3c0,0-0.1,0.1-0.1,0.1l-4.1,0.4c-3.6,0.4-4.7,4.1-4.7,17.9v23.2
			c0,2.8,0,13.8,0.4,16.1c-0.6,1-1.8,1.5-2.9,1.2c-1.5-1.9-4.3-4.8-12.9-13.8L399,538.8c-5.2-5.5-8.8-9.1-10.6-10.6
			c-0.6,0-0.6,1.5-0.6,5.8v17.9c0,13.8,0.8,17.4,5.9,17.9l4.4,0.4c1,0.8,1.1,2.1,0.3,3.1c-0.1,0.1-0.2,0.2-0.3,0.3
			c-5.1,0-8.3-0.4-12.3-0.4c-4,0-6.9,0-11.4,0.4c-1-0.8-1.1-2.3-0.2-3.2c0.1-0.1,0.2-0.2,0.2-0.2l4.1-0.4c3.6-0.4,4.7-4.1,4.7-17.9
			v-24.8c0-4.6,0-6.5-2.9-8.6c-1.6-0.9-3.3-1.6-5.1-1.9l-2.1-0.4c-1-0.8-1.1-2.1-0.3-3.1c0.1-0.1,0.2-0.2,0.3-0.3
			c5.2,0.4,9,0.4,11.9,0.4c1.8,0,3.7-0.1,5.5-0.4c3.8,6.3,8.5,12,13.8,17l13,13.4c3,3,11,11.7,12.6,12.9c0.8,0,0.8-2.2,0.8-5.5
			L430.5,534.4z"/>
		<path class="st0" d="M514,513.8c0.1,5.1,0.5,10.2,1.2,15.2c-0.8,1-2.3,1.1-3.3,0.3c-0.1-0.1-0.2-0.2-0.3-0.3
			c-1.9-8.9-10.2-14.8-19.2-13.8c-11.9,0-23.7,8-23.7,26.8s11.9,29,24.9,29c8.8-0.1,16.7-5.5,19.9-13.8c0.6-1,2-1.3,3-0.6
			c0.3,0.2,0.5,0.4,0.6,0.6c-0.5,5.2-2.1,10.3-4.6,15c-6.1,1.8-12.4,2.7-18.7,2.9c-8.6,0.4-17.1-1.8-24.3-6.3
			c-8.2-5.5-13.2-14.7-13.1-24.6c-0.3-9.7,4-18.9,11.6-24.9c7.9-5.5,17.3-8.4,27-8C501.4,511.6,507.8,512.4,514,513.8z"/>
		<path class="st0" d="M543.3,527.6c0-9.5-0.6-9.9-5.8-11l-1.9-0.4c-1-0.9-1-2.4-0.1-3.3c0,0,0.1-0.1,0.1-0.1
			c4,0.3,8.3,0.4,12.9,0.4h19.7c4.3,0.1,8.6,0,12.9-0.4l1.5,13.8c-0.9,1-2.5,1-3.5,0.1c0,0-0.1,0-0.1-0.1c-0.4-2.4-1.2-4.8-2.5-6.9
			c-2.2-3.3-8.4-3.3-11.7-3.3h-6.1c-4.8,0-5,0-5,4.4v15.4c0,2.5,0,2.8,2.6,2.8h6.5c7.3,0,8-1.1,9.1-5.2l0.7-2.6c0.9-1,2.4-1,3.3-0.1
			c0,0,0.1,0.1,0.1,0.1c0,4,0,6.5,0,9.7s0,5.9,0,9.9c-0.9,1-2.4,1-3.3,0.1c0,0-0.1-0.1-0.1-0.1L572,548c-1.1-4.1-1.8-5.2-9.1-5.2
			h-6.3c-2.6,0-2.6,0.4-2.6,3.2v9.9c-0.3,3.4,0.2,6.8,1.5,9.9c1.2,1.4,3.7,1.9,11.6,1.9c7.9,0,13.8-0.4,18-11.4
			c1-0.9,2.4-0.8,3.3,0.2c0.1,0.1,0.2,0.2,0.3,0.4c-0.6,5.3-2,10.5-4.1,15.4c-8.7,0-16.1-0.4-23.5-0.4h-12.1c-4.4,0-8.7,0-15.4,0.4
			c-1.1-0.4-1.2-2.8,0-3.4l3.7-0.4c5.9-0.7,6.5-1.5,6.5-11L543.3,527.6z"/>
		<path class="st0" d="M292.3,470.6c-0.4,1.4-0.9,2.8-1.4,4.1c-0.4,1-1,1.9-1.8,2.7c-0.7,0.7-1.5,1.2-2.5,1.4
			c-1.2,0.3-2.5,0.5-3.8,0.5h-5.6c-1.5,0.1-3.1-0.2-4.5-0.8c-0.9-0.4-1.7-1-2.2-1.9c-0.4-0.7-0.7-1.6-0.8-2.4c0-0.9,0-1.7,0-2.4v-12
			h12.7c0.8-0.1,1.6-0.1,2.4,0c0.5,0.1,0.9,0.4,1.2,0.9c0.3,0.7,0.5,1.5,0.4,2.3v0.6h2.5v-10.6h-2.5v0.6c0,0.6-0.1,1.1-0.4,1.6
			c-0.3,0.4-0.7,0.6-1.2,0.7c-0.8,0.1-1.7,0.1-2.5,0h-12.7v-17.1h11.5c1.4-0.1,2.8-0.1,4.1,0c0.9,0.1,1.8,0.4,2.6,0.9
			c0.7,0.5,1.3,1.2,1.7,2.1c0.5,1.3,0.9,2.7,1.2,4.1v0.5h2.6l-0.7-11.4H255v2.1l0,0c1.2-0.1,2.5-0.1,3.7,0c0.7,0.1,1.2,0.5,1.7,1
			c0.4,0.8,0.6,1.6,0.6,2.5c0,1,0,2.2,0,3.7v38.3h31.4l2.8-12.9H292L292.3,470.6z"/>
		<path class="st0" d="M340.4,469.8l-0.4,0.6c-1,1.4-2,2.7-3.1,4c-1,1.1-2,2-3.2,2.8c-1.2,0.8-2.4,1.3-3.8,1.7c-3.5,1-7.2,1-10.8,0
			c-2.1-0.8-3.9-2-5.4-3.7c-1.7-1.7-3.1-3.7-3.9-6c-1.1-3-1.6-6.2-1.5-9.4c-0.1-3.3,0.3-6.6,1.2-9.7c0.6-2.5,1.7-4.8,3.2-6.9
			c1.3-1.7,3-3,4.9-3.9c2-0.9,4.1-1.3,6.2-1.3c1.9,0,3.8,0.3,5.6,0.9c1.6,0.6,3,1.4,4.3,2.6c1.2,1.2,2.3,2.5,3,4
			c0.9,1.7,1.6,3.4,2.1,5.2v0.6h2.4l-0.8-13.8l0,0l-1.1,0.8c-0.4,0.4-1,0.6-1.5,0.6c-1.2-0.1-2.3-0.6-3.3-1.3l-1.7-0.9l-1.9-0.8
			l-2.1-0.7c-1.7-0.4-3.5-0.6-5.3-0.6c-3.5,0-6.9,0.7-10.1,2.1c-2.9,1.3-5.6,3.2-7.8,5.5c-2.2,2.4-3.9,5.1-5,8.1
			c-1.2,3.2-1.8,6.5-1.8,9.9c0,3.2,0.6,6.4,1.7,9.4c1.1,2.8,2.7,5.4,4.8,7.6c2.1,2.2,4.6,3.9,7.4,5.1c3,1.3,6.3,1.9,9.5,1.9
			c4.2,0.2,8.3-0.9,11.9-3.1c3.4-2.3,6.2-5.5,8.1-9.1v-0.6L340.4,469.8z"/>
		<path class="st0" d="M394.9,449.7L394.9,449.7c-1.3-2.9-3.1-5.6-5.4-7.9c-2.3-2.3-5-4.1-7.9-5.3c-6.3-2.6-13.3-2.6-19.6,0
			c-3,1.2-5.7,3.1-8,5.3c-2.1,2.1-3.9,4.6-5.1,7.3l0,0v0.6c-2.7,6.2-2.7,13.1,0,19.3c1.3,2.9,3.1,5.6,5.4,7.9c2.3,2.3,5,4.1,8,5.3
			c3.1,1.3,6.4,2,9.8,1.9c10.1,0.1,19.2-5.9,23.2-15.1c1.3-3,2-6.3,2-9.7C397.2,456,396.4,452.7,394.9,449.7z M386.7,467
			c-0.8,2.5-2,4.8-3.5,6.9c-1.5,2-3.4,3.7-5.6,5c-2.2,1.3-4.7,2-7.3,1.9c-2.7,0-5.3-0.7-7.7-2c-2.3-1.3-4.4-3.1-6.1-5.2
			c-1.7-2.1-3.1-4.4-4.1-6.9c-0.9-2.4-1.4-5-1.4-7.7c0-2.6,0.5-5.1,1.4-7.5c1-2.5,2.3-4.8,4.1-6.9c1.7-2,3.8-3.7,6.1-5
			c2.3-1.3,5-1.9,7.7-1.9c2.6,0,5.1,0.6,7.3,1.9c2.2,1.3,4.1,3,5.6,5c1.5,2.1,2.7,4.4,3.5,6.9c0.8,2.5,1.2,5.1,1.2,7.7
			C387.9,461.9,387.5,464.5,386.7,467z"/>
	</g>
</g>
</svg>
