<?xml version="1.0" encoding="utf-8"?>
<!-- Generator: Adobe Illustrator 19.2.1, SVG Export Plug-In . SVG Version: 6.00 Build 0)  -->
<svg version="1.1" id="layer" xmlns="http://www.w3.org/2000/svg" xmlns:xlink="http://www.w3.org/1999/xlink" x="0px" y="0px"
	 viewBox="0 0 652 652" style="enable-background:new 0 0 652 652;" xml:space="preserve">
<style type="text/css">
	.st0{fill-rule:evenodd;clip-rule:evenodd;fill:#1D2087;}
	.st1{fill:#1D2087;}
	.st2{fill:#1B1C80;}
</style>
<g>
	<path class="st0" d="M441.7,322.3l-0.2-0.9h-0.2v-0.2H441v-0.2c0-0.1-0.3,0-0.5,0c-0.7,0-0.2,0.1-0.7,0.4c-0.3,0.2-0.2-0.2-0.2,0.4
		c0,0.1-0.1,0.3,0,0.4c0,0,0.8,0,0.9,0C441.2,322.3,441.2,322.2,441.7,322.3 M444.5,340.7c0-1.5,0.2-3.4,0-4.9
		c0-0.3-1.6-2.3-2.1-1.6c-0.2,0.3,0.1,0.9,0.2,1.1c0.6,0.9,0,2.8,0.5,4c0.2,0.5,0.2,1.4,0.2,2c0.1,0.5,0.6,0.2,0.9,0
		C444.6,341.1,444.5,340.9,444.5,340.7 M439.6,358.8c0.5-0.6,0.9-0.9,0.9-1.6c0-0.8-0.1-0.9-0.9-0.9c-0.5,0-0.4-0.1-0.7,0.2
		l-0.2,0.2h-0.2c-0.2,0-0.4,0.5-0.5,0.7c0,0.1,0,0.6,0,0.7c0,0.1,0,0.6,0,0.7c0,0,0.8,0,0.9,0h0.2
		C439.6,358.8,439.7,359,439.6,358.8 M435.9,350.9c-1.2,0.1-0.9-0.2-0.9,0.7c0,0.3-0.1,0.5,0.2,0.7c0,0,1.2,0,1.2,0c0,0,0-0.6,0-0.7
		C436.3,351.1,436.5,351.2,435.9,350.9 M325.1,251.5c-0.2-0.1-0.4-0.3-0.6-0.4c0-0.1-0.1-0.1-0.1-0.1c-0.1-0.1-0.1-0.1-0.1-0.1
		c-0.2-0.2,0-0.2-0.2-0.2c-0.2,0-0.2,0-0.2,0.1c0,0.2,0,0.5,0,0.7c0,0.3,0,0.2,0.1,0.3c0.1,0,0.1,0.2,0.2,0.2c0.1,0,0.6,0,0.7,0
		c0.2,0,0.1,0,0.1-0.2L325.1,251.5z M340.2,260.2c-0.3-0.1-0.6-0.2-0.9-0.1c-0.1,0-0.1,0.1-0.1,0.1l-0.1,0.1l-0.1,0.1
		c-0.1,0.1-0.1,0-0.1,0.1c0,0.2,0,0.4,0,0.6c0,0,0,0.3,0,0.3h0.1v0.1h0.1v0.1c0,0.1,0.2,0,0.2,0.1v0.1c0,0.1,0.5,0,0.6,0
		c0,0,0.3,0,0.4,0c0.2-0.1,0.1-0.2,0.1-0.2C340.4,261.3,340.4,260.8,340.2,260.2 M272.2,313.3c0-0.5,0.3-2.1,0-2.3
		c-1.1-0.8-0.9-1.4-0.9-3c0-1.2-1.8-1.1-1,0c0.9,1.3,0.8,2.3,0.8,4.1c0,0.4-0.2,2.5,0.2,2.6C272.1,314.7,272.8,314,272.2,313.3
		 M240.1,320.3c-0.4-0.5-0.6-1-1.2-1.1c-0.5-0.1-0.9-0.1-0.9,0.4c-0.1,0.6,0.1,0.5,0.2,0.7c0.1,0.1-0.1,0.6,0,0.7c0,0,1,0,1.2,0
		c0.2,0,0.4,0.1,0.5,0C239.9,320.9,239.9,320.3,240.1,320.3 M389.1,258.1c0.2-0.1,0.3-0.2,0.5-0.3c0.1,0,0.1,0,0.1-0.1
		c0-0.1,0-0.1,0-0.2c0-0.1-0.1-0.1-0.1-0.1c-0.1-0.1,0-0.2-0.1-0.2c-0.1,0,0-0.1-0.1-0.1h-0.2c-0.2,0,0.2-0.1-0.2-0.1
		c-0.1,0-0.3,0-0.4,0l-0.1,0.1v0.1h-0.1c-0.2,0-0.1,0.4-0.1,0.6c0,0.1,0,0.4,0,0.4c0.1,0.1,0.2,0,0.3,0.1c0.1,0,0,0.1,0.1,0.1
		c0.2,0.1,0.1,0.1,0.4,0.1C389.3,258.4,389.2,258.4,389.1,258.1 M388.9,250.5c1-0.1,0.4-0.8,1.5-0.7c0.3,0,1,0.7,1.1,0.9
		c0.1,0.2-0.4,1.1-0.6,1.2c-0.4,0.3-0.4,0.7-0.7,1c-0.5,0.4-0.9,1.1-1.5,0.7c-0.1-0.1-1-0.5-1.2-0.6c-0.5-0.1-2.2-1.5-1.6-2.1
		C386.5,250.2,387.6,250.5,388.9,250.5 M356.3,304.6c0.6,0.9,1.2,0.6,2.2,1c1.4,0.6,2.1,0.7,3.5,1c1.1,0.3-0.7,1.2-0.8,1.1
		c-0.1-0.1-0.3-0.4-0.5-0.6c-0.4-0.4-0.3-0.6-0.9-0.6c-1.1,0-1.4,0.1-2-0.6C357.6,305.7,356.8,305.5,356.3,304.6 M352.5,313.4h-0.6
		c-0.1,0-0.2,0-0.2,0c-0.1,0.1-0.1,0.1-0.1,0.2c-0.1,0.1,0,0.7,0,0.9c0,0.2,0,0.1,0.2,0.1h0.6c0.3,0,0.2,0,0.4-0.2
		c0,0,0.2-0.1,0.2-0.2c0-0.1,0-0.4,0-0.4v-0.1C352.9,313.5,352.6,313.5,352.5,313.4 M345.5,314.6c-0.3,0-0.7,0-0.9,0
		c-0.2,0-0.1,0.1-0.1,0.3c0,0.1,0,0.9,0,0.9c0,0,0.3,0,0.3,0l0.1,0.1c0.1,0.1,0.5,0,0.6,0c0.2,0,0.1-0.1,0.1-0.3v-0.7v-0.1h-0.1
		C345.2,314.8,345.3,314.7,345.5,314.6 M345.2,299.2c0.7,0.9,1,1.4,1.9,1.9c0.6,0.4,1.9,2.5,2,3c0.1,0.6,0.6,1.2,0.7,1.7
		c0.3,1,0.8-0.9,0.8-1c0.2-1.5-0.8-1.3-1.1-2.4c-0.3-1.2-1.2-2.2-2.1-2.9c-0.3-0.2-1.2-1-1.4-1C345.2,298.3,344.8,299.5,345.2,299.2
		 M334,303c0.7,1.5,0.9,2.5,2.6,3c0.7,0.2,3.9,0.6,3.8,1c-0.1,0.7-0.5,1.1-0.5,2c0,0.4,0.7,4.2,0,2.6c-0.5-1.1-1.2-1.3-1.4-2.9
		c-0.1-0.4-0.6-0.8-1.1-1c-1.2-0.5-1.6-1.5-2.4-2.3C334.3,304.5,333.9,304.3,334,303 M322.3,312.2c0,3.4-0.1,5.5,1.2,8.4
		c0.6,1.5,1.3,1.7,3,0.7c1.8-1.1,2.3-0.6,4.4-0.6c0.6,0,6.5,0.5,5.4-0.6c-1-0.9-3.7-0.4-5.1-0.4c-0.8,0-1.9-1.2-2.8-0.4
		c-1.3,1-3-0.9-3.7-1.6c-0.7-0.7-2.2-4.9-2.6-5 M302.2,312.4c-0.3-0.4-1.8-2.4-2-1.4c-0.2,1.1,0.7,3.6,1.3,4.4
		c0.5,0.6,0.3,3.2,1.4,3.5c0.1,0,0.7,0.7,0.8,0.3c0.2-0.7,0.6-2.2,0.1-2.6c-1.3-1,0.7-2,0-2.6C303.2,313.7,302.8,313.3,302.2,312.4
		 M480.3,226.3c0.2,0.5-0.8,0.8-1.4,1c-0.5,0.1-1,0-1.5-0.2c-0.6-0.3-1-1.1-1.7-1.3c-0.5-0.1-1.1,0-1.4,0.4c-0.3,0.4-0.2,1-0.1,1.5
		c0.2,0.5,0.5,1,0.9,1.2c0.5,0.3,1.3-0.3,1.7,0.1c0.5,0.5,1.1,1.6,0.6,2c-0.7,0.6-1.9,0-2.8-0.3c-1-0.3-2.4-0.6-2.8-1.5
		c-0.6-1.5-0.6-3.3,0.1-4.8c0.5-0.9,1.9-1,3-1c0.9,0,1.9,0.3,2.7,0.8C478.8,224.7,480,225.3,480.3,226.3 M474.6,222.5
		c4.7,0,9.4,2.7,8.8,7.9c-0.2,1.6-2.1,4-4.1,3.9c-4.8-0.1-6.6,0-8.4-5C469.6,225.8,470.4,222.5,474.6,222.5 M366.6,226.9
		c1.3,0.8,1.2,1.4,2.8,1.4c3.4,0.2,2.2,1.3,6.5,1.4c1.2,1.5,8,4.4,10.2,5.5c4.1,1.9,6.9,6.2,9.5,6.2c0.5,0,2.7-2.2,3.7-2.8v-1.4
		l-3.7,0.9v-1.5l4.4,0.7c0.7-0.6,0.7,0.9,0.7-2c0-1.2-6.2-9.5-7.2-11c3.8,0.3,5.7,4.4,6.5,7.6c3.2,0.3,1.2,0.5,4.3,2
		c-0.1,2.2-0.7,2.5-0.7,4.8c0,0.5,2.3,2.5,2.9,3.4h1.4l1.3,1.5l0.1-2.2c0-4.3-2-6-2.8-9c2.7,1.7,3.5,4.7,5.1,7.6v1.4l2.4,15.1
		c-1.4-0.7-1.7-0.1-1.7-2c0-3.2-0.7-0.9-0.7-4.1c0-2.8-3.5-4.4-5.1-5.5h-2.2l0.8-2.8l-0.8-1.3h-1.4H400v2.7
		c-1.7,1.2-2.2,2.7-2.2,5.5c0,1.2,1,2.5,1.5,3.4v1.4v1.4v1.4c2.7,5,3.4,2.3,5.8,5.5h1.4v1.4l4.9,2.4l1-3.8h0.6v4.2l-0.7,7.5
		l-1.4,0.7v-6.2c-2.6-0.7-9.1-5.5-10.9-5.5h-0.7c-1.7,0-2.2,0.5-2.2,2.1c0,3.1-1.3,2-1.4,6.2c-1.4,0.9-1.2,0.1-1.5,2l-0.6,6.2v2
		c0,2.8,8,6.8,10.8,6.8l1.5,0.1l1.4-3.5l1.4-0.7l-4.5,11.9l-0.6-2.9c0-1.7-1.7-2.6-2.8-4.2h-1.4c-4.1,0-5-2-7.3-3.4l-2.1,0.8
		c-2.1,8.6-9.9,10.8-10.2,14.3c1.2,0.3,6.2,3.9,7.2,4.8l5.1,5.5c2.7-1.7,6-7.4,8-10.3l2-2.2l-1.3,2.2l-1.4,5l7.3-0.9l-0.8,7.6
		c-0.1,0.7,0.7,7.7,0.7,10.3l-0.3,15.2l1.7,13v0.7c0,3.7,1.4,4.7,1.4,9v15.1v1.4c1.6,2.8,2.5,3.2,3.9,6.6c1.6,4.1,1.5,4.4,3.5,7.8
		c1,2,4.3,14.7,4.3,17.9v6.8c0,3.9-1.1,5-1.4,8.2c3.8-0.1,2.1,0.7,3.7-1.4c7.1-0.1,0.4-2,5.8-3.4c0.4-4.6,4.2-5.7,4.4-11
		c4-2.8,3-12,7.9-13.7c0.3-4.1,2.1-6.2,2.1-11.7c0-2.6,0.7-1.5,0.7-4.8v-1.4c0.8-1.3,4.4-6.5,4.4-7.5l-0.1-10.3l1.5-6.4l0.6-1.2
		c1.3-13.2,1.1-25.3,1.6-40.5c0.2-4.7,0-8.4-1.6-11.6c-5.4-8.7-11.9-20.1-26-20.1c-2.1-3.1-8.7-4-8.7-7.6l0.1-2.6
		c8.3-3,11.8-11.8,22.4-11.8l2.2,0.3l14.4-1.7c6.1-0.7,8.4-3,13.7-4.9c5.9-2.2,7.7-2.3,12.4-6.2l-11.6,2.1c0.8-1,5.8-2.5,7.2-2.6
		l7.2-0.8c1.1-2.5,6.3-4.1,9.5-4.8c2.4-10.4-4-24.1-16.7-24.7l-16.7-0.7H455h-1.4c-14.1,0.6-24.2,7.8-34.2,12l-14.3,3.8
		c-1.4-2.4-2.1-3.2-3.9-5.3c-2.6-3.4-3.1-1.9-4.9-4.3c-2.8-1.8-4.5-2.2-7.2-3.4c-5.6-1.3-8.7-4.5-14.5-4.2h-6.5l-1.3,0.3l-1.6,1.1
		c-1.9,0-2.1,1-3.1,2.1l1,4.3l0.5,1.8l0.5,0.8l0.2,1.4l1.4,1.5L366.6,226.9z M180.3,404.9h-1.4c-0.9-1.2-1.4-1.2-1.4-2.8v-4.8
		c0-3,3.5-1.5,3.6-7.6l3.7,2.1c-1.5,2.2-5.1,6.9-5.1,10.3c0,0.4,1,1.5,1.4,2.1h2.2v-2.1v-1.3c1.8-1.2,3.6-3.4,3.6-6.2l0.1-2l5.6-2
		l0.8,0.5c-0.6,2.8-0.3,2.8-2.8,3.5c0,6.6-4.4,6.6-4.4,9.6v2c2.2-0.1,2.5-0.7,5.1-0.7c1.9,0,2,0.3,3.7,0.7
		c1.8-6.7,16.3-15.5,20.2-22.7l0.1-1.4l1.3-11.7v-1.3c3.7-6.4,7.7-10.9,10.9-16.5v-1.4v-4.1c0-2.7-4.1-4.3-6.5-4.8V341
		c-0.9-0.7-6.4-4.2-7.2-4.2h-2.9h-1.4l-8.6-4.1l-3.7-1.4c-4,2-3.7,2.8-6.7,5.3c-2.5,2.1-5.2,2.9-8.2,4.5c-3.6,2-7.4,11.3-11.9,12.8
		c-0.4,5.1-6.5,6.8-6.5,9.6c0,3.1,1.1,4.9,2.2,6.8v1.4l0.2,10.3l-1,7.6c-0.2,2,6.2,4.7,8.2,8.7c0.9,1.7,1.7,4.8,2.5,5.9
		c0.6,1,4.8,3.3,5.9,3.3h2.2l-0.1-1.2L180.3,404.9z M275.3,347.8c0,5.9,0.2,6.2,7.2,6.2h8.7h1.4c2.1-1.1,6.2-2.8,9.5-2.8
		c1.6,0,2.1-0.4,2.1-2V343c0-3.3,0.8-5,1.5-7.6l-1.2-1.4c-7.6,1.7-17.4,1-25-0.7l-1.5,2.8v1.4v1.4c0,1.7-2.1,2.5-2.1,6.8
		C276,347.2,276.5,347.8,275.3,347.8 M258.6,332l-8.7,0.7c-0.3,3.7-5.1,8.3-5.1,10.3v0.7c0,1.7-0.1,1.6-0.7,2.7
		c3.7,5.2,7.6,5.8,15.3,6.8l5.8,0.7c1.8,0.3,3.5-0.7,6.3-0.8l1.6-2.6v-3.4c0.4-0.7,2.3-6.7,2.2-7.6l-0.9-6.8l-2,0.7l-6.5-2.1
		L258.6,332z M342.7,327.2c-6,3-2.8,0.8-5.8,6.2c0.4,0.9,0.9,1.2,0.7,2.8l-0.7,7.6c-0.2,0.9,1,1.3,2.1,1.3h3.7h1.4
		c3.6-1.8,14.6-7,16-10.3c5.6-0.1,3.4-1.8,7.2-2.8v-3.4c-0.6-0.7-6.4-7.8-6.5-8.2c-3.5,0.3-3.6,1.4-7.2,1.4c-1.5,0-8.6,4.4-9.5,5.5
		H342.7z M316.6,330l-1.4-0.1c-0.6,0.3-4.4,1.7-4.6,1.9c-0.2,0.2-1.9,3.9-1.9,4.3c0,3-1.5,2.5-1.5,5.5l0.1,9.5l7.2,0.9
		c5.2,0.7,16.9-5.2,20.2-6.9v-1.3c0-2.8-1-1.7-0.8-4.9l0.8-9.8L316.6,330z M221.6,340.2l2.2,2.1h2.8c0.9,1.2,0.1,1.4,2.2,1.4
		c2.8,0,5,2,9.4,2c1.7,0,2.1-1.1,3.7-2c0.1-6,4.6-7.1,4.8-12.1l-2.6-2.4c-5.4-0.4-10.5-3.6-16.2-4.6c-4.3-0.7-2.6,1.7-5.4,4.8
		c-0.8,1-3.8,4.8-3.8,6C218.7,336,221,337.5,221.6,340.2 M191.9,321.7v2.7c2.9,4.2,8.7,5,10.2,6.9h1.4c0.8,1.1,0.2,1.4,2.2,1.4h0.7
		h1.4c1.8,2.5,3.6,2.7,7.9,2.7c0.5-2,7.3-12.3,7.3-12.3c0-2.5-16-8.9-18.9-10.3h-1.4h-0.7C200.4,312.8,194.1,320.4,191.9,321.7
		 M369.5,327.9l1.5,1.3c4.6-2.3,5.8-3.8,9.4-6.8c1.9-1.7,6.6-7,8.7-7.6v-4.1c0-1.9-2.3-3.4-3.7-4.2c-1.2-0.8-5.6-4.1-7.2-4.1
		c-2,0-16,14.7-16,17.1c0,0.1,6.7,6.5,7.2,6.9V327.9z M141.8,309.3c0,1.6,0.3,0.8,0.8,3l21-1.6c1.3-4.6,4.7-6.3,5.1-11
		c2.5-0.7,2.2-0.7,2.9-3.4h-2.2c-1.5,0-11.6,4.4-14.5,5.4C151.3,302.8,141.8,305.9,141.8,309.3 M190.5,320.4c2-2.9,5-4.2,5.8-6.9
		c2-0.1,2.8,0.1,2.8-2c0-1.1-2.8-4.4-3.6-5.5c-1.3-1.8-6.5-6.4-6.5-9c0-1.7-0.2-1.7-0.7-2.8c0.3-0.6,2.1-4.4,2.1-4.8v-2h-2.1
		c-4.5,0-11.2,6.3-13.1,9c-1.3,1.7-8.6,11.4-8.6,13c0,1.6,0.2,0.8,0.7,2.8l6.8,0.2l-2.3,2.6l-0.9,4.7c3.2,0.8,1.1,1.1,3.7,1.4l8,0.7
		h5.8l1.3-0.1L190.5,320.4z M465.4,234.3c0.3-0.5,0.2-0.9,0.4-1.4c0.1-0.3,0.5-0.6,0-0.6c-0.6,0-1.1,0-1.5-0.3
		c-0.2-0.1-0.8-0.3-0.8,0.1c0,0.4,0.3,0.5,0.5,0.8c0.3,0.6,0.4,1.7-0.2,1.8c-0.5,0.1-0.5,0.9-0.5,1.4c0,0.3,2,0.6,2.3,0.6
		c0.3,0,0.1-1.1-0.1-1.3C465.3,234.8,464.9,234.9,465.4,234.3 M468.6,237.6c1-0.3,2.4-0.2,3.3-0.6c0.3-0.1,0.3-0.6,0.4-0.6
		c0.9-0.1,0.1-0.4-0.6-0.3c-0.3,0.1-1,0-1.3,0.2c-0.6,0.4-0.7,0.4-1.6,0.5c-0.5,0-1.6,1.4-1.9,1.8c-0.4,0.6-1.1,1.1-0.4,2.1
		c0.3,0.4,1.6,0.1,2,0c0.5-0.1,1.3-0.1,1.7-0.3c0.3-0.1,0.8-1.7,0.2-1.9c-0.2-0.1-1.4-1-1.4-1 M474.8,216.1c-0.3,0-0.6,0-0.8,0
		c-0.2,0-0.2,0.2-0.4,0.3c0,0-0.2,0.3-0.2,0.4c0,0.3,0.3,0.5,0.5,0.7c0.2,0.2,0.8,0.3,1.2,0.3c0.3,0,0.2-0.1,0.2-0.3
		c0-0.2,0.1-0.9-0.1-1C475.2,216.3,474.8,216.2,474.8,216.1 M467,220.2c0.4,0,0.3,0,0.4,0c0,0,0,0.1,0,0.2c0,0,0,0,0.1,0.1
		c0,0,0,0.1,0,0.1c0,0.1,0.1,0.1,0.1,0.3v0.2c0,0.1,0,0.1-0.1,0.2c0,0.1,0,0.1-0.1,0.1c-0.1,0-0.4,0-0.4,0v-0.1
		c0-0.1-0.1-0.1-0.1-0.2c-0.1-0.1-0.1,0-0.1-0.2c0-0.1,0-0.3,0-0.3c0.1-0.1,0.1,0.1,0.1-0.1C466.8,220.3,466.8,220.4,467,220.2
		 M461.1,218c0.4,0,1.3,0.1,1.5-0.2c0.2-0.2,0.4,0.2,0.4,0.4c0,0.4-0.7,1.1-1,1.4c-0.2,0.2-0.4,0.2-0.5,0.4
		c-0.1,0.2-0.1,0.4-0.4,0.4c-0.7,0.1-1.9,0.5-1.6-0.5c0.1-0.3,0.3-0.4,0.6-0.6c0.2-0.1,0.4-0.2,0.5-0.3c0.2-0.2,0-0.4,0.2-0.6
		C460.8,218.5,461,218.1,461.1,218 M448.4,219.5c-0.2-0.3-0.7-1.5-0.9-1.6c-0.4-0.2-1.6,0.3-2,0.3c-0.8,0-0.3,1.7,0.1,2.2
		c0.1,0.1,1.1,0.7,1.3,0.8c0.9,0.4,2.8,0.5,3.8,0.6c0.4,0,2,0.5,2-0.1c0-0.5-0.8-1.5-1.2-1.7c-0.6-0.4-1.8-0.6-2.4-0.8
		C448.5,219,448.6,219.4,448.4,219.5 M449.6,231.2c2-1.3,3.2,3.5,2.3,4.3c-1.8,1.7-2.1,2.3-5.5,2.3c-1.7,0-1.3,1.3-0.9,2.3
		c1,2.6,1.1,1.2,3,2.7c0.9,0.7,1.6,1.8,2.7,2.7c0.4,0.3-1.6,0.5-2.2-0.1c-0.7-0.6-0.8-1.7-1.7-2.1c-1.1-0.4-1.8-0.3-2.4-1
		c-1-1.2-2.6-2.2-2.6-3.8c0-3.9,5.9-0.3,7.2-2.9C450.4,233.5,449.6,233.4,449.6,231.2 M429.6,246c-0.1-0.2-0.2-0.3-0.4-0.4
		c-0.1-0.1,0-0.2-0.1-0.2c-0.1,0,0-0.1-0.1-0.1c0,0-0.3,0-0.4,0c0,0-0.3,0-0.4,0c0,0,0,0.6,0,0.7v0.4c0,0.2-0.1,0.2,0.1,0.2
		c0.2,0,0.5,0,0.7,0c0.2,0,0.1,0,0.1-0.2L429.6,246z M433.7,237.4c-0.7-0.5-0.7-0.4-1.4-0.4c-0.2,0-0.3,0-0.4,0.1
		c-0.3,0.3-1.2,0.2-1.6,0.6c-0.6,0.5,0.4,0.6,0.8,0.6c0.5,0,0.6,0.2,1,0.2c0.6,0,0.1,0.3,0.5,0.3c0.3,0,1,0.1,1.1-0.1
		C433.8,238.4,433.9,237.6,433.7,237.4 M431.7,226.7c1.5,0,2.3,0.8,3.4,1.3c2.1,1,4.2,0,5.4-1.3c1.3-1.5,3-0.5,1.3,0.8
		c-0.9,0.7-2.9,4.1-4.4,2.9c-1-0.8-2.5-1-3.3-1.7c-0.5-0.5-2.4-1.6-1.4-1.9 M373.5,231.5l2.7,1.8l2,1l3.4,1.6l3.6,1.9l3.4,2.3
		l2.7,1.5l2.4,1.8l1.3,1.1l0,2.1l0.1,0.8l0,0.9l0.2,3.3l1,2l-0.5,2.7l0.2,2.7l-0.8,5.1l-2.4,5.5l-1.1,6.5l-1.7,6.5l-2.4,4.7
		l-3.2,4.6l-3.6,2.2l-3,4.7l-1.1,1.8l-1.8,1.1l-0.9-1.2l-2.2-3.6l-2.7-5.8l-1.4-7.4l-2.7-1.9l-5.1-6.5l-1.3-5.6l-2-5.1l-2.1-5
		l-2.3-5.3l-1.8-2.4l-0.9-2.7l2.5-2.9l3.4-3.2l4.8-3.4l3.8-3.8l4.4-4.1l1.6-1.7L373.5,231.5z M353.8,252.7l2.3-4.2l2.9-4.2l2-1.8
		l3.3-1.1l1.5-0.8l1.2-1.2l1-0.9l1.3-0.7l1.2,0.1l-0.1,0.5l0.5,0.5l-1.4,1.2l0.1,1l1.3,0.4l-1.3,0.9l-0.3,1.7l1.9-0.4l0.5-1l3.7-0.6
		l-1.7,1l0.6,1.2l1,1l0.9,1.2l1.5,0.7l1.7-0.5l5-0.2l0.4,1.1l-0.6,1.4l-2-1.1l-1.5,0.1l-1.7,0.6l1,1l1,1l-1,1.4l0.8,2l-4.1,0.4
		l-0.7,1.8l-2.2,0.2l0.3,1.1l1.7,0.3l2.1,0.9l1,1.5l1.7,0.6l1.9,1.6l2.3,0.7l1,0.6l-0.3,2.1l-2.4-0.9l-2.3-0.4l-1.4,0.8l-4.6-1
		l-4.5-2.7l-1.5,0l-0.4,1.5l1.2,0.2l5,4.5l2.6,0.5l1.9,2.5l-0.5,0.6l-2.1,0.9l-0.1,1.8l1.2,2.6l2,1.9l-0.9,0.5l-3.8-2.3l-1.3,5.2
		l-0.8-0.2l0.4-5.8l-1.1-1.4l-0.7-1.3l-1.3-1.8l-1-0.1l-1.1,0.6l-0.1,1.4l0.9,1.4l2.3,0.2l-1.3,2.1l-0.9,0.9l1.1,2.2l1.6,2.4
		l0.2,2.4l-1.5-0.8l-7.9-15l-2.8-5.8l-4.2-5.8l-2.2-3L353.8,252.7z M367.1,219c0.4-1.7,5.7-4.3,6.6-4c1.6,0.6,1.2,1.2,1.7,2.4
		c0.1,0.3,5.8,0.6,7.2,1c3.5,1,2.9,0.6,1.2,3c-1.9,2.6,0.4,0.6,0.7,3.4c0.1,0.9,1.9,2.7,2.4,3.7c0.2,0.4,4.1,1.4,2.1,2.4
		c-0.2,0.1-0.9-0.7-1.1-0.8c-2.4-1.6-5.6-1.9-7.6-3.2c-2.6-1.7-2.7,0.1-4.2-1.1c-0.8-0.6-2.8-1.7-3.6-1.3c-1.3,0.6-5.6,0.3-3.5-1.3
		c0.9-0.7-0.6-2.6-2-2.6C365.8,220.7,366.9,219.7,367.1,219 M182.5,368.9c0.1-0.2,0.3-0.6,0.5-0.7c0.5-0.1,0.3-0.5,0.5-0.7
		c0.1-0.1,0.2,0.1,0.1-0.2c0-0.3-0.4-0.2-0.6-0.1c-0.2,0.1-0.4,0.2-0.6,0.3c-0.2,0.1-0.1,0.1-0.4,0.3l-0.7,0.7
		c-0.2,0.2-0.2,0.3-0.2,0.7v0.1c0,0.2,0,0.4,0.1,0.4c0.2,0.1,0.4,0.1,0.7,0.1C182.3,369.9,182.3,369.6,182.5,368.9 M172.1,379.2
		c-0.5,0.4-0.5,0.7-0.9,1.1c-0.7,0.6-1.3,2.1-0.1,2.8c1,0.6,1.6-0.7,1.8-1.3c0.2-1,0-1,1.2-1.4c0.4-0.2,0.5-0.4,0.5-0.9
		c0-0.4,0-0.5-0.3-0.7c-0.4-0.2-0.6-0.7-1.2-0.4C172.7,378.5,172.3,378.9,172.1,379.2 M174.1,360c0.6-0.1,1.2-0.2,1.7-0.1
		c0.6,0,0.1,1.5,1.5,1.3c0.1,0,0.5-0.7,0.6-0.8c0.7-0.5,1.3-0.6,1.3-1.6c0-0.6-0.8-0.7-1.2-1c-0.7-0.5-2.8-0.4-3.3,0.2
		c-0.2,0.3-0.8,0.3-0.9,0.7C173.7,359.3,174.2,359.6,174.1,360 M171.4,371c-1-1-2.3-2.1-3.3-3c-1.6-1.5,2.1-3.6,2.9-4.3
		c0.5-0.5,3.6,0.1,3.7,0.9c0.3,2.3-5.3,0.7-2.8,3.7c0.6,0.8,2.1,0.9,2.2,2.1C174.4,371.4,172.4,371.2,171.4,371 M175.2,375.8
		c0-3.7,4.1-2.4,3.4,0.9c-0.1,0.6,0.7,2.2,0.7,3.5c0,1.1-5.2,10.2-6.3,10.2c-0.6,0-2.1-0.9-2.1-0.4c0,4.3,7,2.4,7.6-1.6
		c0.2-1.7,1.6-2.9,2.9-1c1.7,2.5,9.2,3.8,3.3-0.8c-2.9-2.3,3-2.9,5-2.6c0.6,0.1,7,4.6,8,3.1c0.8-1.2,4.1-4.3,0.5-2.1
		c-2.4,1.4-5.8-6.1-9.3-4c-2.5,1.5-5.1,1.6-6.9-0.6c-1-1.2,0.2-4.2,1.2-4.9c2.9-1.9-2.6-4.1-5.2-4.1
		C174.7,371.6,171.8,375.9,175.2,375.8 M198.4,394.1c0.6-0.8,1-1.2,0.6-2.3c-0.3-0.9-1.7-1-2.1-0.2c-0.6,1.3-1.1,1.1-1.9,1.8
		c-0.5,0.5-0.9,1.5-1.3,2c-0.5,0.6-0.8,0.7-0.8,1.6c0,0.5,0.1,1.4-0.1,1.8c-0.6,1-1.1,1.4-0.1,2.3c1.6,1.6,2.9-1,3.5-2.6
		c0.2-0.4-0.1-0.8,0.2-1.2C197.3,396.1,197.9,395.7,198.4,394.1 M433.2,384.6c0.4,0,1.1,0.1,1.3-0.1c0.1-0.1,0.1-0.1,0.4-0.1
		c0,0,0.3,0,0.4,0c0.1-0.1-0.1-0.2-0.1-0.2c-0.2-0.2,0-0.2-0.1-0.4c0-0.1-0.9-0.6-1.2-0.6c-0.3,0-2.2-0.1-1.9,0.3
		c0.1,0.1,0.3,0,0.5,0.1c0,0,0.2,0.5,0.2,0.7C432.6,384.5,432.8,384.7,433.2,384.6 M434.2,367.2c0.5-0.6,0.9-0.6,0.8-1.3
		c0-0.3-0.4-0.5-0.6-0.7c-0.1-0.1-0.3-0.1-0.4-0.2c-0.6-0.6-0.7-0.2-1.2,0.2c-0.1,0.1-0.1,0.5-0.2,0.6c-0.1,0.1-0.7,0.4-0.7,0.8
		c-0.1,0.5,0.6,1,1.1,1.2C433.8,368,434.1,367.4,434.2,367.2 M441.5,370.2c-0.5,0.5-1.1,0.8-1.4,1.2c-0.2,0.3-0.1,0.7-0.1,1.1
		c0,0.3-0.3,0.2-0.4,0.3c-0.1,0.2-0.2,0.7-0.5,0.7c-0.2,0-0.7-0.5-0.8-0.7c-0.4-0.4,0.7-2.6,0.9-2.8c0.2-0.1,0.1,0.1,0.2-0.1
		c0.2-0.2,0.8-0.6,1-0.6C440.7,369.4,441.7,370.1,441.5,370.2 M424.8,406.1c0.7-0.9,1-1.5,2.1-2.4c1-0.9,0.8-2.2,1.6-1.2
		c0.6,0.8,0.5,1.9,0.5,3c0,1.3,1.2,1.1-0.1,2.1c-0.3,0.2,0.6,1.6,0.8,2.1c0.4,1.1,0.3,5-0.2,5.7c-0.7,0.9-2,1.3-2.8,2.4
		c-0.8,1-2,1.1-2.7-0.2c-0.4-0.7,1.4-1.9,1.7-2.3c0.4-0.5,0.5-1.5,0.9-2.1c0.9-1.4,1.6-1.7,1.6-3.9c0-0.6-0.6-1.3-0.9-0.8
		c-0.3,0.5-1.8,2.8-2.1,2.2c-0.4-0.7,0-1.7-1.2-0.6C422.5,411.6,421.5,406.1,424.8,406.1 M426.3,389.8c-0.4-1.7-1.8-2.8,0.3-4
		c1.6-0.9,2.4,1,2.4,2.1c0,2.5-1,5.1-2.3,7c-0.8,1.1-2.2,1.8-3.4,2.4c-1,0.6-2-0.2-2-1.3c0-1.3,1.6-2.6,2.6-3.1
		C424.5,392.5,426.2,390,426.3,389.8 M424.4,376.1c-1.5,0.4-2,4.6-3.1,5.8c-0.6,0.6-3,3.1-4.4,2.4c-1-0.5-0.4-3.2,0.4-3.8
		c0.5-0.4,0.7-1.5,0.9-2.1c0.3-0.7,1.4-0.4,1.6-1c0.6-1.5,2.4-2.9,3.7-3.9c1.1-0.9,3.4,1.8,3.6,2.6c0.4,1.7,1,3.4,1.5,5
		c1,3.3-1.8,0.8-1.8-1.5C426.8,377.1,424.9,377.3,424.4,376.1 M427.4,360.5c-2.7,0-6.1-2.8-9.2-0.8c-1.3,0.9-2.9,0.5-2.9,2.8
		c0,3.6,3.9-0.8,4.2-1.1c2.4-1.8,6.3,3.3,2,5.2c-2.2,0.9-4.3,3.3-5.9,4.8c-0.5,0.5-2.5,3.5,0.3,2.6c1.8-0.6,2.9-1.8,4.2-2.8
		c0.5-0.4,0.7-1.2,1-1.5c1-0.7,2-0.5,2.9-1.6c0.9-1.2,2.3-2.4,3-3.8C428.1,362.5,427.3,362.1,427.4,360.5 M421.8,331.1
		c2.3-5.4,3.3,2.6,3.3,4.4c0,2.2-1.7,4.4-0.1,5.5c3.8,2.5,5.2,6.7,5.2,11.1c0,1.6-1.5,7.6-2.5,8.8c-2.3,2.7,0.4-7.8,0.2-8.2
		c-4.2-5.8-11.3,4.8-12.7,3.7c-3.1-2.4,7.7-6.6,9-7.9c1.3-1.3-4-7.2-6.1-5.7c-1.7,1.3-4.2,4.6-6.5,1.8c-1.9-2.3,2.4-4.2,4-4.2
		C427.2,340.5,421.8,338.6,421.8,331.1 M410.8,330.5c0.8,0.6,0.3,0.5,0.6,1.2c0.3,0.7,1.3,1.9,1.7,2.4c0.7,0.8,2.1,1.1,2.9,0.4
		c0.5-0.4,0.9-1.3,1.3-1.6c0.8-0.5,3.7-1.2,3-2.8c-0.4-0.9-2.1,0.2-2.5,0.7c-0.6,0.7-1,1-2.1,1.3c-1.9,0.5-1.7-0.7-2.9-1.4
		c-0.7-0.4-0.5-1.1-1.6-1C411,329.9,410.3,330.7,410.8,330.5 M322,230.1l1.9-1.7l3.1-1.7l4.9-2.3l4.9-2.3l0.8-1.7l1.5-0.2l2.5,0.4
		l-0.6,2l-0.3,1.7l2.1,0.1l1.6-0.7l3.8,0l2.5,1.1l1.1,1.9l-0.5,1.6l-4,1.4l-2.2,0.8l-2.9,0l0.9,1.2l2,0.7l2.3,1l1.1,0.8l0.1,1.2
		l0.7,0.4l1.7,0l1.5-0.6l1.5-1l1.2-1.5l-0.4,2.1l-1.8,1.8l-1.3,0.6l-2.1,0.6l-2.5,0.1l-3.8-0.6l-1.7-0.6l-1.2,0.6l-0.4,1.2l0.3,1
		l2.2,0.6l0.8,0.8l-4.1-0.4l-3.7-0.9l-3.1-0.9l-3.5-1.4l-2.7-2.2L326,233l-0.7-1.2l-3.6-0.4L322,230.1z M195.8,279.9l4.1-3.8
		l4.6-4.3l8-5.6l5.9-3.6l3.7-1.6l5.4-3l2.8-0.7l0.6,2.4l-0.9,2.1l-0.2,2.7l1.3,3.7l0.4,2.6l1.5,1.1l-0.2,1.6l0.3,2.9l3.1,3.3v1.3
		l-2.6,0.8l-2,1.5l-3.1,3.4l-2.8,4.2l-0.8,3.1l-0.9,3.3l-1.6,5.3l-2.3,5.6l-2.3,4.1l-0.9,2.4l-0.7,0.7l-0.8,0l-4.1-2.1l-5.4-2.2
		l-4.2-2.4l-2.8-2.6l-2.3-3.4l-1.5-2.1l-2.6-2.3l-0.2-1.8l0-2.5l0.7-2.3l1.3-1l0.9,0.6l0.8,1.8l2,3.1l2.4,3l1.9,2.5l3,2.9l1.9-0.7
		l0.2-0.7l2.2,0.1l0.7,1.2l2.6,0.1l2.7,0.7l0.7-0.4l-0.1-0.9l-2-2.8l-4.4-3.6l-2-2.8l4.7,0.2l4.3-0.2l0.2-0.7l2.8-0.1l-0.6-0.4
		l0.5-0.6l-1.9-0.1l-0.4-0.6l-3.7,0.1l-1.1-0.4l-0.4-0.7l0.4-0.9l0.9-0.7l2.1-0.1l0.5-0.7l3.1-0.3l1.4-0.7l1.1-1.2l-3.9-0.1
		l-0.8,0.7l-1.2-1.2l-0.3-1.5l4-2.1l2.8-2.6l-1.2-0.5l0.4-1.2l-4.3,0.9l-3.3-0.5l0.4-2.8l6.5-5.6l2.1-1.7l0.8-1.5l-3.5,0.5l-3.9,1.8
		l-7.1,5.1l-5.9,4.9l-4.4,5.3l-2.1,1.2l-2.6,0.1l-0.2-1.8l0.6-1.6L195.8,279.9z M278.2,249.3l0.8-1.6l1.9-1.4l3.6-3.1l3.7-3l5.7-2.6
		l5.7-1.9l1.3,0.2l1.1,1l-0.5,1.1l-2.4,0l-0.8-0.6l-3.9,2l-3,2.6l0.8,0.8l1.5,0.2l1.9-1.3l1.3-0.5l2.5,0l1.8-0.4l-1.4,1.6l-0.1,1.2
		l4.7,0.1l1.1-1.1l0.8,1.1l0.3,1l-2.3,1.6l0.4,1.6l-1.8,0.5l-1.7,1.6l-0.1,2.2l-1.5,0.1l2.2,1.6l-2.1-0.7l-0.6-0.4l-0.5,0.9l-2-0.1
		l-2.7,0l-2.6-0.3l-0.6,0.7l0.5,0.8l3.7,0.8l2.3,1l2.6,1.6l1.5,1.4l0.7,1l-0.8,0.4l-1.4-0.3l-1.1-0.2l-2.7,0.1l-2-0.1l-1-1l-2.5-0.5
		l-2.3-0.8l-1.4-0.1l-1.7-0.9l-2.5-0.1l-1.3-1l0-1.1l1.3,0.9l1.1-0.4l0.9-0.8l-0.1-0.7l-1.3-0.3H281l-1.1-0.1l-0.9-1.3l-0.6-1.4
		L278.2,249.3z M237.5,261.6l0.8-1.6l1.9-1.4l3.6-3.1l3.7-3l4.6-2.9l5.6-2.9l-2,2.8l1.4,1l3,0l7.9-4.3l-1.1,1.9l-4.8,3.4l0.1,1.9
		l3.1,0.1l1.5-0.6l-0.5,1.6l2.4,0.8l2,1l1.4,2l0.4,1.8l-0.9,0.6l-2.5-3.4l-1.5,1l-1.9,0.9l-2.5,0.6l-0.9,1.3l0.5,1.2l2.1,0.3
		l2.2,0.4l-1.2,0.7l-2.1,0.2l-0.9,1l-1.5,0.2l-1.5,0.1l-0.4,0.7l-2.5-0.1l1.1,0.9l2.6,0.4l4.2,0.1l0.8-1.8l0.8-0.3l1.1-0.1l0.9,0.3
		l0.2,0.8l-1,0.4l-1.5,0.4l-0.8,1.4l-1.6,0.2l-2.2,0.9l-0.4,0.9l1.8,1l1.2-0.1l-0.7,1.7l-1.5,1.2l-1.3-0.7l-3.4-0.2l-4,0l-1.7,0.7
		l1.4,0.9l1.3,0.7l1.3,0.4l0.2,0.6l-0.7,0.5l-1.2,0.2l-1.1-1.2l-1.2,0l-0.9,0.4l-0.6-0.9l-1.7,0.1l-0.9-0.7l-2.8-0.3l-1.6,0.3
		l-0.2,1.4l-0.8-0.2l-1.2-0.8l-0.2-1.7l-0.9-0.6l0.1-2.1l-0.1-3l-0.4-2.3l-0.9-1.3l-0.6-1.4L237.5,261.6z M232.5,263.5l1.1,1.9
		l1.2,3.9l1.6,5.1l2.6,4.3l3.3,0.5l2.4-0.2l3.4,0.1l1.3,0.3l5.3,0.8l2.3,2l1.2,0.8l1.1,1.3l1.4,0.8l0.5-0.1l1.2-1.4l1.9-1.7l1.9-2
		l1-2.3l2.2-2.1l2.3-2.7l1.8-2.7l1.7-2.2l1-2.2l2.3-2.5l-0.1-1.1l-1.3-1.6l-1.5-1.8l-2-3.9l-0.9-2.7l-0.6-3l-0.8-1.5l0-1.5l2.2,0.1
		l4.1-4.9l2.9-1.5l6.1-5.7l-5.1,6.4l-2.5,2.3l-3.7,4.2l-0.4,2.1l0.3,3.2l1.6,3.3l1.3,2.9l1.3,1.3l2.4,1l2.9,0.6l6.1,0.6l4.9,0.8
		l3.8,1.2l3.1,1.1l1.3,1.5l1.1-0.4l1.1-1.3l1.9-3.6l3.3-4.5l3.8-4.4l3.9-6.7l1.7-2.4l0.5-1.5l-0.1-1.5l-1.4-1l-3.3-3.5l-1.1-2.3
		l-4.1-1.6l0.2-0.8l2.3,0.1l3.3-0.5l8.7-9l1.9-0.3l-8.5,9.7l0.1,1.4l0.8,1.9l2,2.5l1.8,1.5l3.3,0.6l4.3,1.3l4.9,2.2l3.3,2l6.1,2.6
		l2.4,0.5l4.8-5.1l7.3-5.2l2.7-2.7l3.5-3.4l0.2-1.1l-1.7-3.2l-3-5.3l-1.9-2.7l-1-2.9l-1.4-2l-3.6-1.4l-5.2-0.2l-6.4,0.1l-5.2,0.8
		l-4.2,1.6l-2.3,0.9l-8.3,0.4l-5.1,1.7l-4.8,0.8l-5,2.3l-4.7,1.5l-3.5,2.5l-1.2,2.1l-4.1,0.7l-9.5,3.5l-8.4,3.7l-5.6,1.2l-7.7,4.1
		l-6.6,3.6l-6,1.6l-8.9,4.4l-7.1,5.5L232.5,263.5z M277.1,284.2l2.7-1.1l2.3-0.1l2.1-1.6l1.8-0.6l2.4-0.4l2.8,0.2l-2,1.4l-2.3,1
		l-2.2,0.6l-2,0l-1.5,0.7l-1.9,1.5l-3,0.7l-3,0.2l1.3-1.1L277.1,284.2z M251.1,289.9l-2.7,1.1l0,1.1l3.6,0.1l2,0.9l2,1.8l-4.1-0.1
		l-0.4,0.7l-1.8,0.2l-0.8,0.8l1.9,1.6l2.4,1.1l2.5,1.2l2,2l-1.1,1l1.2,3.5l-1.6-0.3l-1-0.7l-1.1-0.7l-1.4-0.6l-1.1,0.1l-0.8,0.8
		l0.4,1.2l1.1,1.1l1.1,1.7l-0.2,1l-1.7,0.7l1.1,3l0.6,0.7l-0.1,1.7l-1.6-1l-3-3.9l-2-2.1l-1.3-0.4l-0.3,1l1.1,1.7l1.3,2.8l1,2.4
		l0.8,1.3l0.4,1.1l-0.2,1l-0.4,1l0.7,0.8l1.2,1.4l-0.7,0.9l-2.7-0.4l-1.9-0.6l-1.7-2.9l-1.9-4.9l-2-3.9l-1.3,0.1l-0.6,4.1l-1.4,1
		l-0.1-4.5l-1.4-2.3l-0.5,1.9l-2.1,1.8l-0.5,2l0.7,1.7l-2.2,0.3l-2.7-0.9l2.9-1l0.2-1.2l-0.7-1.1l0.1-4.3l-1.3-0.8l-3.4,3.3l2.2-5.6
		l2.9-8.7l-0.1-1.2l0.5-0.8l0.3-1.1l0.2-1.2l0.9-1.7l0.6-1.5l1.1-0.7l1.4-0.7l2.9,0l2-0.8l1.8,0l1.3-1.1l1.8,0l0.8,1.1l1.5,0
		l0.9-0.9l1-0.4l1.3,0.3l1,0.9l-0.1,1.2L251.1,289.9z M327.2,260.4l-1.2,2.8l5.7-2.6l-2.3,3.7l4.7,0.2l-1.4,2l0.5,1.7l-8.3,4.5
		l-1.5,2.4l6,0.1l0.9,2.2l3.7,1.4l4.9,0.2l4.5,2l5.2,4.2l-4.5-0.7l-3-0.1l-0.8,2.2l-3.2-2.5l-5.5-1.9l-1.5,0.5l13.5,12.5l0.2,2.1
		l-10.7-7.2l-1,2.7l-2.7-0.9l-0.1,3.3l-4.4-3.9l-4.2-6.3l-2.4-1.1l5.3,9.2l2.1,5l-4.2-3.1l1.2,3.1l-0.2,4.1l-0.4,2.7L321,306l-1-3.3
		l-0.5-3.4l-1.3-3.7l-1-0.8l-1.2,2.6l-1.1-6.2l-1.4-5.2l-1.1-5.4l-0.1-5.3l-0.1-4l-0.2-1.8l0.7-1.1l1.4-1.7l1.1-0.9l0.8,0.7
		l-1.6,1.9l-0.7,2.9l2.1-1.7l1.2-0.5l0.8-1.2l0.2-1.4l-0.3-1.6l-0.8-1l2.2-1.6l0.3-2.1l4.9-5.8l-1.7,4.9l3.2-4.3l-2.7,7l0.9,0.2
		L327.2,260.4z M287.1,266.6l2.6-0.3l-1.3,3l-1.3,1.4l0.8,1.2l1.7,0.1l5.5-1.7l-1.1,2.2l-5.5,4.1l2.8,0.3l-0.2,2l3.5,0.3l1.9,3.6
		l-2.5-2l-2.1,0.4l1.5,1.2l-0.1,1.1l-1.3,0.3l-0.8,0.7l0.6,1.5l-2.6,0.1l0.1,1.2l4.9,0.4l-1.3,1.6l4.6-0.8l1.5,2l-1.7-0.6l-1.4,0.6
		l-1.8,0.4l3.7,2.6l1.2,2.4l-2.2,0.9l-2.8-0.8l5.2,3.8l1.3,2.4l-1.9,1.2l-6.3-2l-2.4,0.6l-6-4.5l-1.6,0.1l-0.1,1.4l13,13.6l1.6,4.3
		l-1.4,3.1l-3.5,0.9l-3.4,0.3l-2-1.1l0.6-1.1l2,0.6l2,0l1.8-0.7l0.4-1.1l-3.3-0.4l-5.9-4.8l0,3.4l-5.3-7l-0.6,1.5l-2-2.9l-3.9-4.8
		l-2.4-1.9c-0.8-2.8-1.5-5.5-2.3-8.3l-0.9-3.2l-0.1-2.3l0.5-2l3.9-3.9l6.5-7.1l5-5.6l2.6-1L287.1,266.6z M280.5,263l2.3,1.4l8.8,0.1
		l4.8,0.9l5.9,2.5l1.7,2.7l1.3,1.5l3.8,22.6l1.9,8.3l1.3,9l0.2,9.2l0.4,1.7l0,2.1l0,1.8l-1,1.1l-1.9,1.8l-3.8,1.2l-5,0.4l-5.3,0.6
		l-6.3-0.3l-5-0.4l-4.4,0.1l-3.5-0.9l-4.6-1.6l-3.2-0.6l-3.4,0.3l-0.9-1.5l-0.3-1.5l0.9-2.7l0.9-6.6c0.9-8.4,2-16.1-1.4-24.2
		l-1.5-2.1l-1.5-2.2l0.5-1.4l3.9-3.9l6.5-7.1l4.6-7.9l2.3-4.2L280.5,263z M235.7,283.7l4.5-1.8l2.5,0.2l4.4-1.1l4.2,1.1l2.6,1.1
		l5.9,5.3c7,13.6,3.6,26,1.6,40.4l-5.7,0.2l-4.1,0.4l-5.6-1.1l-11.3-4.5l-7.7-2.8l-7.4-5.6l4.9-11.1l1-4l1.9-3.9l1.4-6.8l3.4-4
		L235.7,283.7z M328.5,241.7l4.2,2.3l7.3,2.9l6.4,2.5l2.6,5.7l1.7,2.1l1.2,2.6l0.9,3.1l1.9,5.6l1.3,2.7l1.4,5.5l4.1,4.6l2.8,3.4
		l1.5,4.4l0.3,1.7l1.7,4.5l3.6,5.8l0.1,2.9l-1,2.4l-8.7,8.2l-5.7,3.7l-6.6,2.5l-5.3,2.1l-7.1,4l-7.5-0.1l-3.9,0.6l-3.9,0.8l-2.9-0.3
		l-1.4-1.2l-1.2-1.7l-0.4-7.5l-0.5-3.3l-0.9-6l-0.9-8.4l-1.6-8.5l-1.9-8.3l-1.8-7.7l-1.6-6.4l1.1-4l8.4-10.9l7.7-11.8L328.5,241.7z"
		/>
	<path class="st1" d="M469.5,566l-1.4-18.7v-7.8h5.7v7.8l-1.3,18.7H469.5z M468.3,574.7h5.2H468.3z M473.5,574.7h-5.2v-5h5.2V574.7z
		 M438.2,574.7v-25.6h4.1v3.6c2-2.8,4.8-4.2,8.6-4.2c1.6,0,3.1,0.3,4.5,0.8c1.4,0.6,2.4,1.3,3.1,2.2c0.7,0.9,1.2,2,1.4,3.2
		c0.2,0.8,0.3,2.2,0.3,4.2v15.7h-4.6v-15.6c0-1.8-0.2-3.1-0.5-4c-0.4-0.9-1-1.6-1.9-2.1c-0.9-0.5-2-0.8-3.2-0.8
		c-1.9,0-3.6,0.6-5,1.8c-1.4,1.2-2.1,3.4-2.1,6.7v14H438.2z M426.8,571.6c-1.7,1.4-3.3,2.3-4.9,2.9c-1.6,0.6-3.2,0.8-5,0.8
		c-3,0-5.2-0.7-6.8-2.1c-1.6-1.4-2.4-3.1-2.4-5.3c0-1.2,0.3-2.4,0.9-3.4c0.6-1,1.4-1.9,2.4-2.5c1-0.6,2.1-1.1,3.3-1.4
		c0.9-0.2,2.2-0.4,4.1-0.6c3.7-0.4,6.4-0.9,8.1-1.5c0-0.6,0-1,0-1.1c0-1.8-0.4-3-1.3-3.7c-1.2-1-2.9-1.5-5.2-1.5
		c-2.1,0-3.7,0.4-4.8,1.1c-1,0.7-1.8,2-2.3,3.8l-4.5-0.6c0.4-1.8,1.1-3.3,2-4.4c0.9-1.1,2.3-2,4-2.6c1.8-0.6,3.8-0.9,6.1-0.9
		c2.3,0,4.2,0.3,5.6,0.8c1.4,0.5,2.5,1.2,3.2,1.9c0.7,0.8,1.1,1.8,1.4,3c0.1,0.7,0.2,2.1,0.2,4v5.8c0,4,0.1,6.6,0.3,7.7
		c0.2,1.1,0.6,2.1,1.2,3.1h-4.8C427.3,573.8,427,572.8,426.8,571.6 M426.5,561.9c-1.7,0.6-4.1,1.2-7.5,1.6c-1.9,0.3-3.2,0.5-4,0.9
		c-0.8,0.3-1.4,0.8-1.8,1.4c-0.4,0.6-0.6,1.3-0.6,2.1c0,1.2,0.5,2.1,1.4,2.9c0.9,0.8,2.3,1.1,4,1.1c1.8,0,3.3-0.4,4.7-1.1
		c1.4-0.7,2.4-1.7,3-3c0.5-1,0.7-2.4,0.7-4.3L426.5,561.9z M398.8,566.4l4.7,0.6c-0.7,2.6-2.1,4.7-4.1,6.1c-2,1.5-4.6,2.2-7.7,2.2
		c-3.9,0-7.1-1.2-9.4-3.5c-2.3-2.3-3.5-5.5-3.5-9.7c0-4.3,1.2-7.6,3.5-10c2.3-2.4,5.4-3.6,9.1-3.6c3.6,0,6.5,1.2,8.8,3.5
		c2.3,2.3,3.4,5.6,3.4,9.8c0,0.3,0,0.6,0,1.2h-20.1c0.2,2.8,1,5,2.5,6.5c1.5,1.5,3.4,2.2,5.6,2.2c1.7,0,3.1-0.4,4.3-1.3
		C397.2,569.6,398.1,568.3,398.8,566.4 M383.8,559.5h15.1c-0.2-2.2-0.8-3.8-1.7-4.9c-1.5-1.7-3.4-2.5-5.7-2.5c-2.1,0-3.9,0.7-5.3,2
		C384.7,555.5,383.9,557.2,383.8,559.5 M368.7,574.7h4.6v-35.4h-4.6V574.7z M358.4,562.3l4.9,1.2c-1,3.8-2.9,6.8-5.6,8.8
		c-2.7,2-6,3-9.8,3c-4,0-7.3-0.8-9.8-2.3c-2.5-1.6-4.4-3.8-5.7-6.7c-1.3-2.9-2-6.1-2-9.5c0-3.7,0.7-6.9,2.2-9.6
		c1.5-2.7,3.6-4.8,6.3-6.3c2.7-1.4,5.7-2.1,9-2.1c3.7,0,6.9,0.9,9.4,2.7c2.5,1.8,4.3,4.3,5.3,7.6l-4.8,1.1c-0.9-2.6-2.1-4.4-3.8-5.6
		c-1.6-1.2-3.7-1.8-6.2-1.8c-2.9,0-5.2,0.6-7.2,2c-1.9,1.3-3.3,3.1-4,5.2c-0.8,2.2-1.2,4.5-1.2,6.8c0,3,0.5,5.6,1.4,7.9
		c0.9,2.2,2.4,3.9,4.3,5c1.9,1.1,4,1.7,6.3,1.7c2.7,0,5.1-0.8,7-2.3C356.4,567.6,357.7,565.3,358.4,562.3 M289,567.1l4.5-0.7
		c0.3,1.7,1,3,2.1,4c1.2,0.9,2.8,1.4,4.9,1.4c2.1,0,3.7-0.4,4.7-1.2c1-0.8,1.5-1.8,1.5-2.9c0-1-0.5-1.8-1.4-2.3
		c-0.6-0.4-2.2-0.9-4.7-1.5c-3.4-0.8-5.7-1.5-7-2.1c-1.3-0.6-2.3-1.4-2.9-2.4c-0.7-1-1-2.2-1-3.4c0-1.1,0.3-2.2,0.8-3.2
		c0.5-1,1.3-1.8,2.2-2.4c0.7-0.5,1.7-0.9,2.9-1.3c1.2-0.3,2.5-0.5,3.9-0.5c2.1,0,4,0.3,5.6,0.9c1.6,0.6,2.8,1.4,3.5,2.3
		c0.8,1,1.3,2.3,1.6,4l-4.5,0.6c-0.2-1.3-0.8-2.4-1.8-3.1c-1-0.7-2.4-1.1-4.1-1.1c-2.1,0-3.6,0.3-4.5,1c-0.9,0.7-1.3,1.4-1.3,2.3
		c0,0.6,0.2,1.1,0.6,1.5c0.4,0.5,1,0.8,1.8,1.2c0.5,0.2,1.8,0.5,4,1.1c3.2,0.8,5.5,1.5,6.8,2c1.3,0.5,2.3,1.3,3,2.3
		c0.7,1,1.1,2.2,1.1,3.7c0,1.4-0.4,2.8-1.3,4.1c-0.9,1.3-2.2,2.3-3.8,3c-1.7,0.7-3.6,1-5.7,1c-3.5,0-6.2-0.7-8-2.1
		C290.7,571.9,289.5,569.8,289,567.1 M279.5,571.6c-1.7,1.4-3.3,2.3-4.9,2.9c-1.6,0.6-3.2,0.8-5,0.8c-3,0-5.2-0.7-6.8-2.1
		c-1.6-1.4-2.4-3.1-2.4-5.3c0-1.2,0.3-2.4,0.9-3.4c0.6-1,1.4-1.9,2.4-2.5c1-0.6,2.1-1.1,3.3-1.4c0.9-0.2,2.2-0.4,4.1-0.6
		c3.7-0.4,6.4-0.9,8.1-1.5c0-0.6,0-1,0-1.1c0-1.8-0.4-3-1.3-3.7c-1.2-1-2.9-1.5-5.2-1.5c-2.1,0-3.7,0.4-4.8,1.1
		c-1,0.7-1.8,2-2.3,3.8l-4.5-0.6c0.4-1.8,1.1-3.3,2-4.4c0.9-1.1,2.3-2,4-2.6c1.8-0.6,3.8-0.9,6.1-0.9c2.3,0,4.2,0.3,5.6,0.8
		c1.4,0.5,2.5,1.2,3.2,1.9c0.7,0.8,1.2,1.8,1.4,3c0.2,0.7,0.2,2.1,0.2,4v5.8c0,4,0.1,6.6,0.3,7.7c0.2,1.1,0.6,2.1,1.1,3.1h-4.8
		C280,573.8,279.7,572.8,279.5,571.6 M279.2,561.9c-1.7,0.6-4.1,1.2-7.5,1.6c-1.9,0.3-3.2,0.5-4,0.9c-0.8,0.3-1.4,0.8-1.8,1.4
		c-0.4,0.6-0.6,1.3-0.6,2.1c0,1.2,0.5,2.1,1.4,2.9c0.9,0.8,2.3,1.1,4,1.1c1.8,0,3.3-0.4,4.7-1.1c1.4-0.7,2.4-1.7,3-3
		c0.5-1,0.7-2.4,0.7-4.3L279.2,561.9z M251.5,566.4l4.7,0.6c-0.7,2.6-2.1,4.7-4.1,6.1c-2,1.5-4.6,2.2-7.7,2.2
		c-3.9,0-7.1-1.2-9.4-3.5c-2.3-2.3-3.5-5.5-3.5-9.7c0-4.3,1.2-7.6,3.5-10c2.3-2.4,5.4-3.6,9.1-3.6c3.6,0,6.5,1.2,8.8,3.5
		c2.3,2.3,3.4,5.6,3.4,9.8c0,0.3,0,0.6,0,1.2h-20.1c0.2,2.8,1,5,2.5,6.5c1.5,1.5,3.4,2.2,5.6,2.2c1.7,0,3.1-0.4,4.3-1.3
		C249.9,569.6,250.8,568.3,251.5,566.4 M236.5,559.5h15.1c-0.2-2.2-0.8-3.8-1.7-4.9c-1.5-1.7-3.3-2.5-5.7-2.5c-2.1,0-3.9,0.7-5.3,2
		C237.4,555.5,236.6,557.2,236.5,559.5 M197.4,563.4l4.7-0.4c0.2,1.8,0.7,3.2,1.5,4.4c0.8,1.1,2,2.1,3.7,2.8
		c1.7,0.7,3.6,1.1,5.7,1.1c1.9,0,3.5-0.3,5-0.8c1.4-0.5,2.5-1.3,3.2-2.2c0.7-0.9,1-1.9,1-3c0-1.1-0.3-2.1-1-2.9
		c-0.7-0.8-1.8-1.5-3.3-2.1c-1-0.4-3.2-0.9-6.6-1.7c-3.4-0.8-5.8-1.5-7.2-2.2c-1.8-0.9-3.1-2-4-3.3c-0.9-1.3-1.3-2.8-1.3-4.4
		c0-1.8,0.5-3.5,1.6-5c1.1-1.6,2.6-2.7,4.7-3.5c2-0.8,4.3-1.2,6.8-1.2c2.8,0,5.2,0.4,7.3,1.3c2.1,0.8,3.7,2.1,4.9,3.7
		c1.1,1.6,1.7,3.5,1.8,5.6l-4.7,0.3c-0.3-2.2-1.1-3.9-2.6-5.1c-1.5-1.1-3.6-1.7-6.5-1.7c-3,0-5.1,0.5-6.5,1.6c-1.4,1-2,2.3-2,3.8
		c0,1.3,0.5,2.3,1.4,3.1c0.9,0.8,3.4,1.7,7.4,2.5c4,0.9,6.7,1.6,8.2,2.3c2.2,1,3.8,2.2,4.8,3.6c1,1.5,1.5,3.1,1.5,5
		c0,1.9-0.6,3.7-1.7,5.3c-1.1,1.7-2.8,3-4.9,3.9c-2.1,0.9-4.5,1.4-7.2,1.4c-3.4,0-6.2-0.5-8.4-1.4c-2.3-0.9-4.1-2.3-5.3-4.2
		C198.1,567.9,197.4,565.7,197.4,563.4 M465.3,521.7v-25.6h4.1v3.9c1.1-1.8,2-3,2.9-3.6c0.9-0.6,1.9-0.9,2.9-0.9
		c1.5,0,3.1,0.5,4.7,1.4l-1.6,4c-1.1-0.6-2.2-0.9-3.3-0.9c-1,0-1.9,0.3-2.7,0.9c-0.8,0.6-1.4,1.4-1.7,2.4c-0.5,1.5-0.8,3.2-0.8,5.1
		v13.4H465.3z M454.1,521.7v-3.8c-2.1,2.9-5,4.3-8.6,4.3c-1.6,0-3.1-0.3-4.5-0.9c-1.4-0.6-2.4-1.3-3.1-2.2c-0.7-0.9-1.1-1.9-1.4-3.2
		c-0.2-0.9-0.3-2.2-0.3-4.1v-15.9h4.6v14.2c0,2.3,0.1,3.8,0.3,4.6c0.3,1.1,0.9,2,1.8,2.7c0.9,0.7,2.1,1,3.5,1c1.4,0,2.7-0.3,3.9-1
		c1.2-0.7,2.1-1.6,2.6-2.7c0.5-1.1,0.8-2.8,0.8-5v-13.7h4.6v25.6H454.1z M395.1,504.5c0-5.9,1.7-10.5,5-13.8c3.3-3.3,7.6-5,12.8-5
		c3.4,0,6.5,0.8,9.3,2.3c2.8,1.6,4.9,3.7,6.3,6.5c1.4,2.8,2.2,5.9,2.2,9.5c0,3.6-0.8,6.8-2.3,9.6c-1.5,2.8-3.7,5-6.5,6.4
		c-2.8,1.5-5.8,2.2-9,2.2c-3.5,0-6.6-0.8-9.4-2.4c-2.8-1.6-4.8-3.8-6.3-6.6C395.8,510.5,395.1,507.6,395.1,504.5 M400.1,504.6
		c0,4.3,1.2,7.6,3.6,10.1c2.4,2.5,5.4,3.7,9.1,3.7c3.7,0,6.7-1.2,9.1-3.7c2.4-2.5,3.6-6,3.6-10.5c0-2.9-0.5-5.4-1.5-7.5
		c-1-2.1-2.5-3.8-4.5-5c-2-1.2-4.2-1.8-6.6-1.8c-3.5,0-6.5,1.1-9,3.4C401.4,495.5,400.1,499.3,400.1,504.6 M351.8,523.8l4.4,0.6
		c0.2,1.3,0.7,2.3,1.6,2.9c1.1,0.8,2.7,1.2,4.6,1.2c2.1,0,3.8-0.4,4.9-1.2c1.2-0.8,1.9-1.9,2.3-3.4c0.2-0.9,0.3-2.7,0.3-5.6
		c-2,2.2-4.5,3.4-7.5,3.4c-3.7,0-6.6-1.3-8.6-3.8c-2-2.5-3-5.6-3-9.1c0-2.4,0.5-4.7,1.4-6.8c0.9-2.1,2.3-3.7,4.1-4.8
		c1.8-1.1,3.8-1.7,6.2-1.7c3.2,0,5.8,1.2,7.9,3.7v-3.1h4.2v22.1c0,4-0.4,6.8-1.3,8.5c-0.9,1.7-2.2,3-4.1,3.9c-1.9,1-4.1,1.4-6.8,1.4
		c-3.2,0-5.8-0.7-7.8-2.1C352.7,528.7,351.7,526.6,351.8,523.8 M355.6,508.5c0,3.4,0.7,5.8,2.1,7.4c1.4,1.5,3.2,2.3,5.3,2.3
		c2.1,0,3.9-0.8,5.3-2.3c1.4-1.5,2.1-3.9,2.1-7.2c0-3.1-0.7-5.5-2.2-7.1c-1.5-1.6-3.2-2.4-5.3-2.4c-2,0-3.8,0.8-5.2,2.3
		C356.3,503,355.6,505.4,355.6,508.5 M323.8,521.7v-25.6h4.1v3.6c2-2.8,4.8-4.2,8.6-4.2c1.6,0,3.1,0.3,4.5,0.8
		c1.4,0.6,2.4,1.3,3.1,2.2c0.7,0.9,1.1,2,1.4,3.2c0.2,0.8,0.3,2.2,0.3,4.2v15.7h-4.6v-15.6c0-1.8-0.2-3.1-0.5-4
		c-0.4-0.9-1-1.6-1.9-2.1c-0.9-0.5-2-0.8-3.2-0.8c-1.9,0-3.6,0.6-5,1.8c-1.4,1.2-2.1,3.4-2.1,6.7v14H323.8z M312.2,491.3h4.6
		 M316.8,491.3h-4.6v-5h4.6V491.3z M312.2,521.7h4.6H312.2z M316.8,521.7h-4.6v-25.6h4.6V521.7z M283.3,531.5v-35.4h4.2v3.4
		c1-1.3,2.1-2.3,3.3-2.9c1.2-0.6,2.7-1,4.5-1c2.3,0,4.3,0.6,6.1,1.7c1.8,1.1,3.1,2.7,4,4.8c0.9,2,1.3,4.3,1.3,6.7
		c0,2.6-0.5,5-1.5,7.1c-1,2.1-2.4,3.7-4.3,4.8c-1.9,1.1-3.9,1.7-6,1.7c-1.5,0-2.9-0.3-4.1-0.9c-1.2-0.6-2.2-1.4-3-2.3v12.5H283.3z
		 M287.4,509.1c0,3.3,0.7,5.7,2.1,7.3c1.4,1.6,3.1,2.4,5.1,2.4c2,0,3.8-0.8,5.2-2.4c1.4-1.6,2.2-4.2,2.2-7.6c0-3.3-0.7-5.7-2.1-7.3
		c-1.4-1.6-3.1-2.4-5.1-2.4c-1.9,0-3.7,0.9-5.2,2.6C288.2,503.3,287.4,505.8,287.4,509.1 M272.8,513.4l4.7,0.6
		c-0.7,2.6-2.1,4.7-4.1,6.1c-2,1.5-4.6,2.2-7.7,2.2c-3.9,0-7.1-1.2-9.4-3.5c-2.3-2.3-3.5-5.5-3.5-9.7c0-4.3,1.2-7.7,3.5-10
		c2.3-2.4,5.4-3.6,9.1-3.6c3.6,0,6.5,1.2,8.8,3.5c2.3,2.3,3.4,5.6,3.4,9.8c0,0.3,0,0.6,0,1.2h-20.1c0.2,2.8,1,5,2.5,6.5
		c1.5,1.5,3.4,2.2,5.6,2.2c1.7,0,3.1-0.4,4.3-1.3C271.2,516.6,272.1,515.3,272.8,513.4 M257.8,506.5h15.1c-0.2-2.2-0.8-3.8-1.7-4.9
		c-1.5-1.7-3.4-2.5-5.7-2.5c-2.1,0-3.9,0.7-5.3,2C258.8,502.4,258,504.2,257.8,506.5 M243.9,513.4l4.7,0.6c-0.7,2.6-2.1,4.7-4.1,6.1
		c-2,1.5-4.6,2.2-7.7,2.2c-3.9,0-7.1-1.2-9.4-3.5c-2.3-2.3-3.5-5.5-3.5-9.7c0-4.3,1.2-7.7,3.5-10c2.3-2.4,5.4-3.6,9.1-3.6
		c3.6,0,6.5,1.2,8.8,3.5c2.3,2.3,3.4,5.6,3.4,9.8c0,0.3,0,0.6,0,1.2h-20.1c0.2,2.8,1,5,2.5,6.5c1.5,1.5,3.4,2.2,5.6,2.2
		c1.7,0,3.1-0.4,4.3-1.3C242.3,516.6,243.2,515.3,243.9,513.4 M228.9,506.5H244c-0.2-2.2-0.8-3.8-1.7-4.9c-1.5-1.7-3.4-2.5-5.7-2.5
		c-2.1,0-3.9,0.7-5.3,2C229.9,502.4,229.1,504.2,228.9,506.5 M191.2,521.7v-35.4h4.9v17.5l18.5-17.5h6.7l-15.6,14.3l16.3,21h-6.5
		l-13.2-17.9l-6.1,5.6v12.3H191.2z"/>
	<path class="st1" d="M536.8,453.8h6.4v6.2c0,0.9,0.1,1.5,0.2,1.7c0.2,0.3,0.4,0.4,0.8,0.4c0.4,0,0.7-0.1,0.8-0.4
		c0.1-0.2,0.2-0.8,0.2-1.7v-6.2h6.4v6.8c0,2.2-0.6,3.8-1.8,4.8c-1.2,1-3.1,1.5-5.6,1.5c-2.6,0-4.5-0.5-5.7-1.5
		c-1.2-1-1.8-2.6-1.8-4.8V453.8z M528.3,466.4v-1.9c-0.6,0.8-1.3,1.4-2,1.8c-0.7,0.4-1.5,0.6-2.3,0.6c-1.6,0-2.8-0.6-3.9-1.9
		c-1-1.2-1.5-2.8-1.5-4.8c0-2,0.5-3.7,1.5-4.9c1-1.2,2.3-1.9,3.9-1.9c0.8,0,1.6,0.2,2.3,0.5c0.7,0.3,1.3,0.9,1.9,1.6v-1.7h6.2v12.6
		H528.3z M524.8,460.1c0,0.5,0.2,1,0.5,1.3c0.3,0.3,0.7,0.5,1.2,0.5c0.5,0,0.9-0.2,1.2-0.5c0.3-0.3,0.5-0.8,0.5-1.3
		c0-0.5-0.2-1-0.5-1.3c-0.3-0.3-0.7-0.5-1.2-0.5s-0.9,0.2-1.2,0.5C524.9,459.1,524.8,459.6,524.8,460.1 M509.5,463.9
		c0-0.8,0.4-1.5,1.1-2.1c0.7-0.6,1.6-0.9,2.6-0.9c1,0,1.9,0.3,2.6,0.9c0.7,0.6,1.1,1.3,1.1,2.1s-0.4,1.5-1.1,2.1
		c-0.7,0.6-1.6,0.9-2.6,0.9c-1,0-1.9-0.3-2.6-0.9C509.8,465.4,509.5,464.7,509.5,463.9 M502,465.3v-1.1c-0.6,0.6-1.2,1.1-1.9,1.4
		c-0.7,0.3-1.4,0.4-2.2,0.4c-1.6,0-2.8-0.6-3.9-1.7c-1-1.1-1.5-2.5-1.5-4.3c0-2,0.5-3.6,1.5-4.8c1-1.2,2.3-1.8,3.9-1.8
		c0.8,0,1.6,0.2,2.3,0.5c0.7,0.3,1.3,0.8,1.9,1.5v-1.6h6.2v10.8c0,1.1-0.1,1.9-0.2,2.5c-0.1,0.5-0.3,1.1-0.5,1.5
		c-0.6,1.1-1.5,1.9-2.9,2.5c-1.4,0.6-3.2,0.8-5.3,0.8c-1.2,0-2.3-0.1-3.4-0.3c-1-0.2-2-0.5-2.8-0.9l1.4-4.1c0.7,0.4,1.5,0.8,2.2,1
		c0.7,0.2,1.4,0.3,2.1,0.3c1.1,0,1.9-0.2,2.4-0.7C501.7,466.8,502,466.2,502,465.3 M498.9,459.8c0,0.5,0.1,0.9,0.4,1.2
		c0.3,0.3,0.7,0.4,1.2,0.4c0.5,0,0.9-0.1,1.2-0.4c0.3-0.3,0.4-0.7,0.4-1.2c0-0.5-0.1-0.9-0.4-1.2c-0.3-0.3-0.7-0.4-1.2-0.4
		c-0.5,0-0.9,0.1-1.2,0.4C499,459,498.9,459.4,498.9,459.8 M480.1,466.4v-12.6h6.3v1.8c0.6-0.7,1.2-1.3,1.9-1.6
		c0.7-0.4,1.5-0.5,2.3-0.5c0.1,0,0.2,0,0.3,0c0.1,0,0.1,0,0.2,0v6.1c-0.4-0.2-0.7-0.3-1-0.4c-0.3-0.1-0.6-0.1-0.8-0.1
		c-0.8,0-1.5,0.2-1.9,0.6c-0.5,0.4-0.7,1-0.7,1.8v5H480.1z M477.9,460.2c0,0.9-0.2,1.9-0.6,2.7c-0.4,0.9-1.1,1.6-1.8,2.3
		c-0.7,0.6-1.5,1-2.4,1.3c-0.9,0.3-1.9,0.4-2.9,0.4c-1,0-2-0.1-2.9-0.4c-0.9-0.3-1.7-0.7-2.4-1.3c-0.8-0.6-1.4-1.4-1.8-2.3
		c-0.4-0.9-0.7-1.8-0.7-2.7c0-1,0.2-1.9,0.7-2.7c0.4-0.9,1.1-1.6,1.8-2.3c0.7-0.6,1.5-1,2.4-1.3c0.9-0.3,1.9-0.4,2.9-0.4
		c1,0,2,0.2,2.9,0.4c0.9,0.3,1.7,0.7,2.4,1.3c0.8,0.6,1.4,1.4,1.8,2.3C477.7,458.3,477.9,459.2,477.9,460.2 M470.1,461.9
		c0.5,0,0.8-0.2,1.1-0.5c0.3-0.3,0.4-0.7,0.4-1.2c0-0.5-0.1-0.9-0.4-1.2c-0.3-0.3-0.7-0.5-1.1-0.5c-0.5,0-0.9,0.2-1.2,0.5
		c-0.3,0.3-0.4,0.7-0.4,1.2c0,0.5,0.1,0.9,0.4,1.2C469.2,461.7,469.6,461.9,470.1,461.9 M453.2,463.9c0-0.8,0.4-1.5,1.1-2.1
		c0.7-0.6,1.6-0.9,2.6-0.9c1,0,1.9,0.3,2.6,0.9c0.7,0.6,1.1,1.3,1.1,2.1s-0.4,1.5-1.1,2.1c-0.7,0.6-1.6,0.9-2.6,0.9
		c-1,0-1.9-0.3-2.6-0.9C453.6,465.4,453.2,464.7,453.2,463.9 M439.5,465.5l1.7-3.9c0.7,0.5,1.4,0.8,2,1c0.6,0.2,1.1,0.4,1.5,0.4
		c0.3,0,0.6-0.1,0.8-0.2c0.2-0.1,0.3-0.3,0.3-0.5c0-0.3-0.4-0.5-1.2-0.7c-0.3,0-0.5-0.1-0.6-0.1c-1.3-0.3-2.2-0.7-2.7-1.3
		c-0.6-0.6-0.9-1.3-0.9-2.3c0-1.3,0.6-2.4,1.8-3.2c1.2-0.8,2.7-1.3,4.6-1.3c0.9,0,1.8,0.1,2.7,0.2c0.9,0.2,1.7,0.4,2.4,0.7l-1.6,3.8
		c-0.6-0.4-1.1-0.7-1.6-0.9c-0.5-0.2-0.9-0.3-1.3-0.3c-0.3,0-0.5,0.1-0.7,0.2c-0.2,0.1-0.3,0.3-0.3,0.5c0,0.3,0.5,0.6,1.5,0.8
		c0.2,0,0.4,0.1,0.6,0.1c1.3,0.3,2.3,0.7,2.9,1.3s0.9,1.3,0.9,2.2c0,1.4-0.6,2.6-1.8,3.4c-1.2,0.9-2.8,1.3-4.8,1.3
		c-1.1,0-2.1-0.1-3.2-0.3C441.4,466.3,440.4,466,439.5,465.5 M432.2,466.4v-1.9c-0.6,0.8-1.3,1.4-2,1.8c-0.7,0.4-1.5,0.6-2.3,0.6
		c-1.6,0-2.8-0.6-3.9-1.9c-1-1.2-1.5-2.8-1.5-4.8c0-2,0.5-3.7,1.5-4.9c1-1.2,2.3-1.9,3.9-1.9c0.8,0,1.6,0.2,2.3,0.5
		c0.7,0.3,1.3,0.9,1.9,1.6v-1.7h6.2v12.6H432.2z M428.6,460.1c0,0.5,0.2,1,0.5,1.3c0.3,0.3,0.7,0.5,1.2,0.5c0.5,0,0.9-0.2,1.2-0.5
		c0.3-0.3,0.5-0.8,0.5-1.3c0-0.5-0.2-1-0.5-1.3c-0.3-0.3-0.7-0.5-1.2-0.5c-0.5,0-0.9,0.2-1.2,0.5
		C428.8,459.1,428.6,459.6,428.6,460.1 M411.7,458.4l2.9,0c0-0.5-0.2-0.9-0.4-1.1c-0.2-0.2-0.6-0.4-1.1-0.4c-0.4,0-0.8,0.1-1,0.4
		C412,457.6,411.8,457.9,411.7,458.4 M420.9,461.1l-9.2,0v0.2c0,0.6,0.1,1.1,0.4,1.4c0.2,0.3,0.6,0.5,1.1,0.5c0.3,0,0.6-0.1,0.8-0.3
		c0.2-0.2,0.4-0.4,0.5-0.7l6,0.4c-0.5,1.4-1.4,2.4-2.7,3.1c-1.3,0.7-2.9,1.1-4.7,1.1c-1,0-2-0.1-2.9-0.4c-0.9-0.3-1.7-0.7-2.4-1.3
		c-0.8-0.7-1.4-1.4-1.8-2.3c-0.4-0.9-0.6-1.8-0.6-2.7c0-1,0.2-1.9,0.7-2.7c0.4-0.9,1.1-1.6,1.8-2.3c0.7-0.6,1.5-1,2.4-1.3
		c0.9-0.3,1.9-0.4,2.9-0.4c1.4,0,2.7,0.3,3.9,0.8c1.1,0.5,2.1,1.3,2.8,2.4c0.4,0.5,0.7,1.1,0.9,1.7c0.2,0.6,0.3,1.3,0.3,2.1
		c0,0.2,0,0.3,0,0.4C420.9,461,420.9,461.1,420.9,461.1 M391.5,465.5l1.7-3.9c0.7,0.5,1.4,0.8,2,1c0.6,0.2,1.1,0.4,1.5,0.4
		c0.3,0,0.6-0.1,0.8-0.2c0.2-0.1,0.3-0.3,0.3-0.5c0-0.3-0.4-0.5-1.2-0.7c-0.3,0-0.5-0.1-0.6-0.1c-1.3-0.3-2.2-0.7-2.7-1.3
		c-0.6-0.6-0.9-1.3-0.9-2.3c0-1.3,0.6-2.4,1.8-3.2c1.2-0.8,2.7-1.3,4.6-1.3c0.9,0,1.8,0.1,2.7,0.2c0.9,0.2,1.7,0.4,2.4,0.7l-1.6,3.8
		c-0.6-0.4-1.1-0.7-1.6-0.9c-0.5-0.2-0.9-0.3-1.3-0.3c-0.3,0-0.5,0.1-0.7,0.2c-0.2,0.1-0.3,0.3-0.3,0.5c0,0.3,0.5,0.6,1.5,0.8
		c0.2,0,0.4,0.1,0.6,0.1c1.3,0.3,2.3,0.7,2.9,1.3s0.9,1.3,0.9,2.2c0,1.4-0.6,2.6-1.8,3.4c-1.2,0.9-2.8,1.3-4.8,1.3
		c-1.1,0-2.1-0.1-3.2-0.3C393.5,466.3,392.5,466,391.5,465.5 M375.2,466.4v-12.6h6.3v1.7c0.6-0.7,1.2-1.3,1.9-1.6
		c0.7-0.4,1.4-0.5,2.3-0.5c1.4,0,2.6,0.4,3.4,1.2c0.8,0.8,1.2,1.9,1.2,3.3v8.4h-6.5v-6.4c0-0.6-0.1-1.1-0.2-1.3
		c-0.1-0.2-0.4-0.4-0.7-0.4c-0.4,0-0.7,0.1-0.9,0.4c-0.2,0.3-0.3,0.7-0.3,1.2v6.4H375.2z M366.4,466.4v-1.9c-0.6,0.8-1.3,1.4-2,1.8
		c-0.7,0.4-1.5,0.6-2.3,0.6c-1.6,0-2.8-0.6-3.9-1.9c-1-1.2-1.5-2.8-1.5-4.8c0-2,0.5-3.7,1.5-4.9c1-1.2,2.3-1.9,3.9-1.9
		c0.8,0,1.6,0.2,2.3,0.5c0.7,0.3,1.3,0.9,1.9,1.6v-1.7h6.2v12.6H366.4z M362.9,460.1c0,0.5,0.2,1,0.5,1.3c0.3,0.3,0.7,0.5,1.2,0.5
		c0.5,0,0.9-0.2,1.2-0.5c0.3-0.3,0.5-0.8,0.5-1.3c0-0.5-0.2-1-0.5-1.3c-0.3-0.3-0.7-0.5-1.2-0.5c-0.5,0-0.9,0.2-1.2,0.5
		C363,459.1,362.9,459.6,362.9,460.1 M346,458.4l2.9,0c0-0.5-0.2-0.9-0.4-1.1c-0.2-0.2-0.6-0.4-1.1-0.4c-0.4,0-0.8,0.1-1,0.4
		C346.2,457.6,346.1,457.9,346,458.4 M355.2,461.1l-9.2,0v0.2c0,0.6,0.1,1.1,0.4,1.4c0.2,0.3,0.6,0.5,1.1,0.5c0.3,0,0.6-0.1,0.8-0.3
		c0.2-0.2,0.4-0.4,0.5-0.7l6,0.4c-0.5,1.4-1.4,2.4-2.7,3.1c-1.3,0.7-2.9,1.1-4.7,1.1c-1,0-2-0.1-2.9-0.4c-0.9-0.3-1.7-0.7-2.4-1.3
		c-0.8-0.7-1.4-1.4-1.8-2.3c-0.4-0.9-0.6-1.8-0.6-2.7c0-1,0.2-1.9,0.7-2.7c0.4-0.9,1-1.6,1.8-2.3c0.7-0.6,1.5-1,2.4-1.3
		c0.9-0.3,1.9-0.4,2.9-0.4c1.4,0,2.7,0.3,3.9,0.8c1.1,0.5,2.1,1.3,2.8,2.4c0.4,0.5,0.7,1.1,0.9,1.7c0.2,0.6,0.3,1.3,0.3,2.1
		c0,0.2,0,0.3,0,0.4C355.2,461,355.2,461.1,355.2,461.1 M330.7,447.6h6.5v18.9h-6.5V447.6z M328.4,459.2c-0.3-0.3-0.7-0.5-1.1-0.6
		c-0.4-0.1-0.7-0.2-1.1-0.2c-0.7,0-1.2,0.2-1.6,0.5c-0.4,0.3-0.6,0.8-0.6,1.3c0,0.5,0.2,0.9,0.6,1.3c0.4,0.3,0.9,0.5,1.5,0.5
		c0.4,0,0.8-0.1,1.1-0.2c0.4-0.2,0.8-0.4,1.2-0.7v5c-0.7,0.3-1.3,0.5-1.9,0.7c-0.6,0.1-1.2,0.2-1.8,0.2c-1,0-1.9-0.2-2.8-0.5
		c-0.8-0.3-1.6-0.8-2.2-1.4c-0.7-0.7-1.2-1.4-1.6-2.2c-0.4-0.8-0.5-1.7-0.5-2.6c0-0.6,0.1-1.3,0.3-1.9c0.2-0.6,0.4-1.2,0.8-1.7
		c0.7-1,1.5-1.8,2.6-2.4c1-0.5,2.2-0.8,3.5-0.8c0.6,0,1.2,0.1,1.8,0.2c0.6,0.1,1.3,0.3,2,0.5V459.2z M307.1,458.4l2.9,0
		c0-0.5-0.2-0.9-0.4-1.1c-0.2-0.2-0.6-0.4-1.1-0.4c-0.4,0-0.8,0.1-1,0.4C307.3,457.6,307.2,457.9,307.1,458.4 M316.2,461.1l-9.2,0
		v0.2c0,0.6,0.1,1.1,0.4,1.4c0.2,0.3,0.6,0.5,1.1,0.5c0.3,0,0.6-0.1,0.8-0.3c0.2-0.2,0.4-0.4,0.5-0.7l6,0.4
		c-0.5,1.4-1.4,2.4-2.7,3.1c-1.3,0.7-2.9,1.1-4.7,1.1c-1,0-2-0.1-2.9-0.4c-0.9-0.3-1.7-0.7-2.4-1.3c-0.8-0.7-1.4-1.4-1.8-2.3
		c-0.4-0.9-0.6-1.8-0.6-2.7c0-1,0.2-1.9,0.7-2.7c0.4-0.9,1.1-1.6,1.8-2.3c0.7-0.6,1.5-1,2.4-1.3c0.9-0.3,1.9-0.4,2.9-0.4
		c1.4,0,2.7,0.3,3.9,0.8c1.1,0.5,2.1,1.3,2.8,2.4c0.4,0.5,0.7,1.1,0.9,1.7c0.2,0.6,0.3,1.3,0.3,2.1c0,0.2,0,0.3,0,0.4
		C316.3,461,316.3,461.1,316.2,461.1 M292.3,465.3v-1.1c-0.6,0.6-1.2,1.1-1.9,1.4c-0.7,0.3-1.4,0.4-2.2,0.4c-1.6,0-2.8-0.6-3.9-1.7
		c-1-1.1-1.5-2.5-1.5-4.3c0-2,0.5-3.6,1.5-4.8c1-1.2,2.3-1.8,3.9-1.8c0.8,0,1.6,0.2,2.3,0.5c0.7,0.3,1.3,0.8,1.9,1.5v-1.6h6.2v10.8
		c0,1.1-0.1,1.9-0.2,2.5c-0.1,0.5-0.3,1.1-0.5,1.5c-0.6,1.1-1.5,1.9-2.9,2.5c-1.4,0.6-3.2,0.8-5.3,0.8c-1.2,0-2.3-0.1-3.4-0.3
		c-1-0.2-2-0.5-2.8-0.9l1.4-4.1c0.7,0.4,1.5,0.8,2.2,1c0.7,0.2,1.4,0.3,2.1,0.3c1.1,0,1.9-0.2,2.4-0.7
		C292,466.8,292.3,466.2,292.3,465.3 M289.2,459.8c0,0.5,0.1,0.9,0.4,1.2c0.3,0.3,0.7,0.4,1.2,0.4c0.5,0,0.9-0.1,1.2-0.4
		c0.3-0.3,0.4-0.7,0.4-1.2c0-0.5-0.2-0.9-0.5-1.2c-0.3-0.3-0.7-0.4-1.2-0.4c-0.5,0-0.9,0.1-1.2,0.4
		C289.3,459,289.2,459.4,289.2,459.8 M270.3,466.4v-12.6h6.3v1.8c0.6-0.7,1.2-1.3,1.9-1.6c0.7-0.4,1.5-0.5,2.3-0.5
		c0.1,0,0.2,0,0.3,0c0.1,0,0.1,0,0.2,0v6.1c-0.4-0.2-0.7-0.3-1-0.4c-0.3-0.1-0.6-0.1-0.8-0.1c-0.8,0-1.5,0.2-1.9,0.6
		c-0.5,0.4-0.7,1-0.7,1.8v5H270.3z M261.6,466.4v-1.9c-0.6,0.8-1.3,1.4-2,1.8c-0.7,0.4-1.5,0.6-2.3,0.6c-1.6,0-2.8-0.6-3.9-1.9
		c-1-1.2-1.5-2.8-1.5-4.8c0-2,0.5-3.7,1.5-4.9c1-1.2,2.3-1.9,3.9-1.9c0.8,0,1.6,0.2,2.3,0.5c0.7,0.3,1.3,0.9,1.9,1.6v-1.7h6.2v12.6
		H261.6z M258.1,460.1c0,0.5,0.2,1,0.5,1.3c0.3,0.3,0.7,0.5,1.2,0.5c0.5,0,0.9-0.2,1.2-0.5c0.3-0.3,0.5-0.8,0.5-1.3
		c0-0.5-0.2-1-0.5-1.3c-0.3-0.3-0.7-0.5-1.2-0.5c-0.5,0-0.9,0.2-1.2,0.5C258.2,459.1,258.1,459.6,258.1,460.1 M234.4,447.6h6.4v5.9
		c0,0.5,0,0.9,0,1.3c0,0.4-0.1,0.7-0.1,0.9c0.5-0.7,1.1-1.3,1.8-1.6c0.7-0.4,1.4-0.5,2.3-0.5c1.6,0,2.9,0.6,3.9,1.8
		c1,1.2,1.5,2.8,1.5,4.8c0,2.1-0.5,3.7-1.5,4.9c-1,1.2-2.3,1.9-3.9,1.9c-0.9,0-1.7-0.2-2.4-0.6c-0.7-0.4-1.4-1-1.9-1.7v1.8h-6V447.6
		z M243.9,460.2c0-0.6-0.2-1-0.5-1.3c-0.3-0.3-0.7-0.5-1.2-0.5c-0.5,0-0.9,0.2-1.2,0.5c-0.3,0.3-0.5,0.8-0.5,1.3
		c0,0.6,0.2,1,0.5,1.4c0.3,0.3,0.7,0.5,1.2,0.5c0.5,0,0.9-0.2,1.2-0.5C243.7,461.2,243.9,460.7,243.9,460.2 M232.2,460.2
		c0,0.9-0.2,1.9-0.6,2.7c-0.4,0.9-1.1,1.6-1.8,2.3c-0.7,0.6-1.5,1-2.4,1.3c-0.9,0.3-1.9,0.4-2.9,0.4c-1,0-2-0.1-2.9-0.4
		c-0.9-0.3-1.7-0.7-2.4-1.3c-0.8-0.6-1.4-1.4-1.8-2.3c-0.4-0.9-0.7-1.8-0.7-2.7c0-1,0.2-1.9,0.7-2.7c0.4-0.9,1-1.6,1.8-2.3
		c0.7-0.6,1.5-1,2.4-1.3c0.9-0.3,1.9-0.4,2.9-0.4c1,0,2,0.2,2.9,0.4c0.9,0.3,1.7,0.7,2.4,1.3c0.8,0.6,1.4,1.4,1.8,2.3
		C232,458.3,232.2,459.2,232.2,460.2 M224.4,461.9c0.5,0,0.8-0.2,1.1-0.5c0.3-0.3,0.4-0.7,0.4-1.2c0-0.5-0.1-0.9-0.4-1.2
		c-0.3-0.3-0.7-0.5-1.1-0.5c-0.5,0-0.9,0.2-1.2,0.5c-0.3,0.3-0.4,0.7-0.4,1.2c0,0.5,0.1,0.9,0.4,1.2
		C223.6,461.7,223.9,461.9,224.4,461.9 M215.1,459.2c-0.3-0.3-0.7-0.5-1.1-0.6c-0.4-0.1-0.7-0.2-1.1-0.2c-0.7,0-1.2,0.2-1.6,0.5
		c-0.4,0.3-0.6,0.8-0.6,1.3c0,0.5,0.2,0.9,0.6,1.3c0.4,0.3,0.9,0.5,1.5,0.5c0.4,0,0.8-0.1,1.1-0.2c0.4-0.2,0.8-0.4,1.2-0.7v5
		c-0.7,0.3-1.3,0.5-1.9,0.7c-0.6,0.1-1.2,0.2-1.8,0.2c-1,0-1.9-0.2-2.8-0.5c-0.8-0.3-1.6-0.8-2.2-1.4c-0.7-0.7-1.2-1.4-1.6-2.2
		c-0.4-0.8-0.5-1.7-0.5-2.6c0-0.6,0.1-1.3,0.3-1.9c0.2-0.6,0.4-1.2,0.8-1.7c0.7-1,1.5-1.8,2.6-2.4c1-0.5,2.2-0.8,3.5-0.8
		c0.6,0,1.2,0.1,1.8,0.2c0.6,0.1,1.3,0.3,2,0.5V459.2z M193.7,458.4l2.9,0c0-0.5-0.2-0.9-0.4-1.1c-0.2-0.2-0.6-0.4-1.1-0.4
		c-0.4,0-0.8,0.1-1,0.4C194,457.6,193.8,457.9,193.7,458.4 M202.9,461.1l-9.2,0v0.2c0,0.6,0.1,1.1,0.4,1.4c0.2,0.3,0.6,0.5,1.1,0.5
		c0.3,0,0.6-0.1,0.8-0.3c0.2-0.2,0.4-0.4,0.5-0.7l6,0.4c-0.5,1.4-1.4,2.4-2.7,3.1c-1.3,0.7-2.9,1.1-4.7,1.1c-1,0-2-0.1-2.9-0.4
		c-0.9-0.3-1.7-0.7-2.4-1.3c-0.8-0.7-1.4-1.4-1.8-2.3c-0.4-0.9-0.6-1.8-0.6-2.7c0-1,0.2-1.9,0.7-2.7c0.4-0.9,1.1-1.6,1.8-2.3
		c0.7-0.6,1.5-1,2.4-1.3c0.9-0.3,1.9-0.4,2.9-0.4c1.4,0,2.7,0.3,3.9,0.8c1.1,0.5,2.1,1.3,2.8,2.4c0.4,0.5,0.7,1.1,0.9,1.7
		c0.2,0.6,0.3,1.3,0.3,2.1c0,0.2,0,0.3,0,0.4C202.9,461,202.9,461.1,202.9,461.1 M178.2,463.9c0-0.8,0.4-1.5,1.1-2.1
		c0.7-0.6,1.6-0.9,2.6-0.9c1,0,1.9,0.3,2.6,0.9c0.7,0.6,1.1,1.3,1.1,2.1s-0.4,1.5-1.1,2.1c-0.7,0.6-1.6,0.9-2.6,0.9
		c-1,0-1.9-0.3-2.6-0.9C178.6,465.4,178.2,464.7,178.2,463.9 M160.9,466.4l-5.2-12.6h6.9l1.1,4.8c0.1,0.3,0.1,0.7,0.2,1
		c0,0.4,0.1,0.8,0.1,1.2c0.1-0.5,0.1-0.9,0.2-1.2c0.1-0.4,0.2-0.7,0.2-1l1.4-4.8h4.3l1.2,5c0.1,0.2,0.1,0.5,0.2,0.9
		c0.1,0.4,0.1,0.7,0.2,1.2c0.1-0.4,0.1-0.8,0.2-1.2c0.1-0.4,0.2-0.8,0.3-1.2l1.2-4.6h6.8l-5.7,12.6h-5.1l-1.1-4c0-0.1,0-0.1-0.1-0.3
		c-0.2-0.7-0.3-1.2-0.4-1.7c-0.1,0.4-0.2,0.9-0.3,1.6c-0.1,0.2-0.1,0.3-0.1,0.4l-1.1,4H160.9z M137.8,466.4l-5.2-12.6h6.9l1.1,4.8
		c0.1,0.3,0.1,0.7,0.2,1c0.1,0.4,0.1,0.8,0.1,1.2c0.1-0.5,0.1-0.9,0.2-1.2c0.1-0.4,0.1-0.7,0.2-1l1.4-4.8h4.3l1.2,5
		c0.1,0.2,0.1,0.5,0.2,0.9c0.1,0.4,0.1,0.7,0.2,1.2c0.1-0.4,0.1-0.8,0.2-1.2c0.1-0.4,0.2-0.8,0.3-1.2l1.2-4.6h6.8l-5.7,12.6h-5.1
		l-1.1-4c0-0.1,0-0.1-0.1-0.3c-0.2-0.7-0.3-1.2-0.4-1.7c-0.1,0.4-0.2,0.9-0.3,1.6c-0.1,0.2-0.1,0.3-0.1,0.4l-1.1,4H137.8z
		 M114.8,466.4l-5.2-12.6h6.9l1.1,4.8c0.1,0.3,0.1,0.7,0.2,1c0,0.4,0.1,0.8,0.1,1.2c0.1-0.5,0.1-0.9,0.2-1.2c0.1-0.4,0.1-0.7,0.2-1
		l1.4-4.8h4.3l1.2,5c0.1,0.2,0.1,0.5,0.2,0.9c0.1,0.4,0.1,0.7,0.2,1.2c0.1-0.4,0.1-0.8,0.2-1.2c0.1-0.4,0.2-0.8,0.3-1.2l1.2-4.6h6.8
		l-5.7,12.6h-5.1l-1.1-4c0-0.1,0-0.1-0.1-0.3c-0.2-0.7-0.3-1.2-0.4-1.7c-0.1,0.4-0.2,0.9-0.3,1.6c-0.1,0.2-0.1,0.3-0.1,0.4l-1.1,4
		H114.8z"/>
	<path class="st2" d="M587.8,428.8c-2.8-1.3-10.9-4.7-11.8-6.6c-0.6-1.2,4-6.7,5.3-8.5c0.8-1.1,4-6.4,1.4-7.5
		c-2.6-1.2-11.9,5.9-13.8,6.4c-1.5,0.3-3-0.4-4.3-1.5c-0.7-0.7-8.4-12.3-10.4-13.1c-5.4-2.3,0.7,18.3-0.2,19.2
		c-1.2,1.2-14,8.3-14.4,10.6c-0.3,2,1.9,3,3.8,2.9c1.6-0.1,15-0.3,15.3,0.1c0.3,0.4,0.4,3.1,0.6,4.8c0.5,3.5,0.8,7.1,0.9,10.6
		c0.1,1.3,0.4,3.1,2.3,3.3c1.9,0.2,2.1-2.4,2.7-3.5c0.7-1.6,1.4-3.2,2.3-4.7c1-1.7,2.2-3.4,3.2-5.1c0.9-1.6,0.8-2.7,3.2-2.6
		c4.8,0.2,10.4,1.2,14.3-0.8C589.2,432,590.6,430.1,587.8,428.8 M565.3,434.9c-0.2,1.2-0.2,2.8-1.1,3.7c-0.3-1.3,0.2-2.4,0.2-3.7
		c0-1.5-1-10-0.8-12.5c-1.5,0-3.1,1.5-4.7,1.8c-1,0.2-5,1.2-6.1,1.5c-1.3,0.4-2.8,0.6-4.2,0.7c0,0,0,0-0.1,0c-0.3,0-0.4,0,0,0
		c0,0,0.1,0,0.1,0c1.8-1,14.9-4.4,14.8-5.7c-0.2-1.5-4.3-8.2-5-9.8c-0.6-1.4-2.2-3.7-2-5c0.9,0.7,8.1,14.8,8.1,14.8s1.8-1,2.2-1.2
		c0.8-0.5,1.5-1.1,2.3-1.6c1.6-1,3.2-2.1,4.9-3.1c0.8-0.5,1.5-1.2,2.4-1.5c-0.2,1.4-1.8,1.8-2.9,2.5c-1.2,0.8-2.5,1.8-3.7,2.7
		c-0.9,0.7-1.8,1.3-2.6,2c-0.6,0.6-2,1.6-2,1.6s10.7,5.4,12.7,6c1.6,0.5,4.8,1,6.1,2.1c-1.1,0.2-2.6-0.3-3.9-0.6
		c-1.7-0.4-3.5-1-5.2-1.6c-1.8-0.6-8.2-3.3-9.5-4.4C565.2,423.7,565.5,433.6,565.3,434.9"/>
	<path class="st2" d="M61.9,422.1c3.8,2.2,9.5,1.3,14.2,1.3c2.4,0,2.2,1.1,3.1,2.7c0.9,1.8,2,3.5,3,5.2c0.8,1.5,1.4,3.2,2.1,4.8
		c0.5,1.1,0.6,3.7,2.5,3.6c2-0.1,2.3-1.9,2.4-3.2c0.3-3.5,0.7-7.1,1.4-10.6c0.3-1.6,0.5-4.4,0.8-4.7c0.3-0.4,13.8,0.3,15.3,0.5
		c1.8,0.2,4.1-0.8,3.9-2.7c-0.3-2.3-12.8-9.8-14-11.1c-0.9-1,6-21.3,0.5-19.2c-1.9,0.7-10.1,12.1-10.8,12.7
		c-1.3,1.1-2.8,1.8-4.3,1.4c-1.8-0.5-10.9-7.9-13.6-6.8c-2.7,1.1,0.4,6.4,1.1,7.6c1.2,1.9,5.6,7.5,4.9,8.6c-1,1.9-9.2,5-12.1,6.2
		C59.4,419.5,60.7,421.4,61.9,422.1 M85,413.9c-1.4,1-7.9,3.5-9.7,4.1c-1.7,0.5-3.5,1.1-5.3,1.5c-1.3,0.3-2.8,0.7-3.9,0.5
		c1.3-1,4.5-1.4,6.1-1.8c2.1-0.5,12.9-5.5,12.9-5.5s-1.4-1.1-1.9-1.7c-0.7-0.8-1.7-1.4-2.5-2.1c-1.1-0.9-2.4-2-3.6-2.8
		c-1-0.7-2.6-1.2-2.8-2.6c0.9,0.3,1.6,1.1,2.3,1.6c1.6,1.1,3.2,2.2,4.8,3.2c0.8,0.5,1.5,1.1,2.2,1.6C84.1,410,86,411,86,411
		s7.8-13.8,8.7-14.5c0.1,1.3-1.6,3.5-2.2,4.9c-0.7,1.6-5.1,8.1-5.3,9.7c-0.2,1.3,12.9,5.2,14.6,6.2c0,0,0,0,0.1,0c0.3,0,0.3,0,0,0
		c0,0-0.1,0-0.1,0c-1.4-0.2-2.9-0.4-4.2-0.9c-1-0.4-5-1.5-6-1.7c-1.6-0.4-3.1-1.9-4.6-2c0,2.5-1.2,11-1.3,12.5
		c-0.1,1.3,0.5,2.4,0.1,3.7c-1-0.9-0.8-2.5-1-3.7C84.4,423.9,85,414,85,413.9"/>
	<path class="st1" d="M552.7,385.6c-0.4,2.5,1.1,4.5,3.6,4.8c2.5,0.4,4.9-0.9,5.3-3.5c0.4-2.4-1.3-4.5-3.9-4.9
		C555.1,381.6,553.1,383.4,552.7,385.6 M589.4,369.3c0.9-12.5-7.7-18.9-16.3-19.5c-5.2-0.3-9.2,1.1-12.1,3.6
		c-2.9,2.5-4.5,6.1-4.8,10.1c-0.3,4.4,1.5,10.2,7.2,13.2c0.7,0,1.3-0.7,1.2-1.3c-2.6-1.9-4.5-4.3-4.2-8.7
		c0.6-8.1,8.3-11.7,14.5-11.3c8.5,0.6,12.4,6,12,11.3c-0.2,3.1-2.5,5.8-4.7,7.3c-0.4,0.3-0.6,0.6-0.6,1c-0.1,0.9,1.4,1.8,2.8,1.9
		c1.3,0.1,2.6-0.4,3.2-0.9C588.7,373.9,589.3,371,589.4,369.3 M564.6,312.6c-5.7,0.5-6.5,0.5-7.2-2.3l-0.4-1.6
		c-0.4-0.5-1.8-0.2-2,0.3c0.4,2.1,0.6,4.4,0.9,7.1c0.2,2.6,0.4,4.8,0.4,6.9c0.3,0.5,1.7,0.5,2,0l0.1-1.4c0.2-2.8,0.9-3,6.6-3.4
		l12.1-1c2.3-0.2,3.4-0.1,4.9,0.7c1.6,0.9,3.1,3.3,3.4,6.2c0.5,5.1-2.7,7.4-7.2,7.7l-11.8,1c-5.7,0.5-6.4,0.5-7.2-2.3l-0.4-1.4
		c-0.4-0.5-1.8-0.2-2,0.3c0.3,2,0.6,4.3,0.9,7c0.2,2.6,0.4,4.8,0.4,7.1c0.3,0.5,1.7,0.5,2,0l0.1-1.7c0.1-2.7,0.9-3,6.6-3.4l13.7-1.1
		c5.3-0.4,9.6-3.4,9-9.6c-0.4-3.8-2.7-7.2-5-10.2c0-0.5,0.3-0.9,0.8-0.9c0.7-0.1,1.9-0.2,3.7-0.2c0.4-0.2,0.5-0.6,0.5-0.9
		c-1.3-1.4-3.8-5.5-4.6-7.2c-0.3-0.4-1.1-0.3-1.4,0l-0.4,0.7c-1.2,2.2-1.6,2.2-4.7,2.4L564.6,312.6z M562.2,289.3
		c-8.2,1.8-9.4,1.9-11-2.3l-0.7-1.8c-0.6-0.3-1.8,0.1-1.9,0.6c1.1,3.7,1.7,6.1,2.5,9.2c0.7,3,1.2,5.5,2,9.2c0.4,0.4,1.8,0.2,2-0.3
		l-0.2-1.9c-0.5-4.5,0.5-4.9,8.8-6.7l27.6-6.1c8.2-1.8,9.6-1.9,11,2.3l0.6,1.8c0.4,0.4,1.8-0.1,1.9-0.6c-1.1-3.7-1.7-6.1-2.5-9.1
		c-0.8-3.1-1.3-5.6-2-9.3c-0.3-0.4-1.8-0.2-2,0.3l0.3,1.9c0.7,4.4-0.6,4.9-8.8,6.7L562.2,289.3z M566.1,242c-2.6-5.2-7.5-8-12.8-5.7
		c-4,1.8-5.1,5.7-5.5,10.7c-0.3,3.2-0.7,6.8-4.1,8.2c-3.1,1.4-5.7-0.1-6.9-2.6c-1.9-3.9,0.5-7.6,3.9-10.6c0.3-0.5-0.2-1.4-0.8-1.5
		c-2.4,0.9-5.8,2.9-6.9,4.1c-0.6,2.4-0.2,5.1,1.4,8.3c2.5,5.1,7.6,8.7,13.1,6.2c5.1-2.3,5.9-6.7,6.3-11.3c0.3-3,0.4-6.6,3.4-7.9
		c2.6-1.2,5.2-0.2,6.6,2.4c1.4,2.8,0.3,5.8-2.3,8.4c-0.3,0.5,0.4,1.5,1,1.6c1.9-0.9,4-2.4,5.3-3.7C568,247.8,567.5,244.9,566.1,242
		 M524.2,220.1c2.6-1.6,4.9-0.3,8.7,2.7c1.2,0.9,2.2,1.8,2.4,2.2c0.3,0.4,0.3,0.7-0.5,1.2l-4.1,2.2c-1.5,0.8-2.4,1.3-3.7,1.1
		c-1.1-0.2-3.4-1.6-4.3-2.9C520.6,223.3,523,220.8,524.2,220.1 M529.4,217.6c-4.3-3.2-6.6-3.5-9.2-1.9c-1.9,1.1-3.1,2.9-3.4,4.8
		c-0.3,1.7,0.2,3.6,1.4,5.4c1.2,1.8,3,2.7,4.7,3.6c1.6,0.8,2.7,1.3,3,1.7c0.3,0.4,0,1.1-0.3,1.6c-0.8,2-0.4,3.9,0.6,5.4
		c2.1,3.1,6.2,3.8,6.5,3.6c0.5-0.3,0.8-0.7,0.6-1c-0.1-0.2-0.6-0.4-1-0.6c-0.5-0.3-1-0.7-1.5-1.4c-1.6-2.5,0.7-4.7,3.9-6.4l12-6.6
		c5.2-2.8,6.6-6.8,3.5-11.4c-3.1-4.7-12.7-9.1-16.2-7c-0.6,0.4-0.7,0.9-0.4,1.5c0.6,1,2.2,2.4,3.7,2.9c0.7,0.3,1.6-0.1,2.7-0.7
		c2.2-1.1,4.6,0.5,5.7,2.3c2.6,4-0.3,6.8-2.8,8.2l-3.2,1.8c-1,0.6-1.7,0.8-2.7,0.1L529.4,217.6z M515.4,185.8
		c-0.4-0.4-0.2-0.5-0.1-0.6c2-1.7,7.9-1.6,11.1,1.7c3.2,3.2,2.1,6.1,0.5,7.5c-0.8,0.7-1.2,0.7-1.4,0.6c-0.8-0.1-2.2-1.1-6.2-5.2
		L515.4,185.8z M524.2,198.1c2.3,2.3,3.1,3,3.6,2.9c0.3-0.1,0.9-0.4,1.7-1.1c3.5-3.1,3.9-9.2-0.8-14c-6.5-6.6-16.9-5.8-24.1,0.5
		c-2.6,2.3-4.6,5.4-5.3,9c-0.6,3.6,0.5,7.9,4,11.4c2.8,2.9,8.2,5.6,14,3.9c0.5-0.5,0.4-1.2-0.3-1.6c-4,0.3-6.1-0.7-7.9-2.6
		c-5.8-5.9-4-13.6,1.9-18.9c1.5-1.3,1.6-1.3,3,0.1L524.2,198.1z M499,181.9c4.9-5.5,4.1-11.9,2.2-17.2l-2.3-6.8
		c-1.1-3.1-1.9-7.9,1.1-11.3c2.4-2.7,7-5.4,12.9-0.6c5.9,4.7,4.2,9.8,2.5,13.2c0,0.6,1.1,1.2,1.7,1c2.2-2.4,4.5-6.1,5.2-8
		c-0.5-0.4-1.2-1.2-1.8-2.1c-1.2-1.7-3.1-3.8-5-5.3c-7.9-6.3-16.4-5.5-21.3,0c-4.2,4.8-3.6,10.9-2.2,15.2l2.6,8.2
		c2,6.3,0.1,9.6-2.2,12.1c-3.1,3.5-8.4,4.7-13.5,0.6c-7.1-5.6-4.6-13.3-2.9-17c0.1-0.5-1-1.2-1.6-1c-2.3,2.8-5.1,7.6-5.5,9.4
		c0.6,1.6,2.5,5.7,7.6,9.8C484.5,188.6,493.4,188.2,499,181.9 M419.9,137.6c-2.3,5-2.7,5.6-5.6,4.8l-1.6-0.4
		c-0.7,0.1-1.1,1.4-0.7,1.8c2.1,0.7,4.3,1.6,6.9,2.7c2.5,1.1,4.6,2,6.5,3c0.6,0,1.3-1.1,1-1.7l-1.2-0.8c-2.4-1.5-2.3-2.2,0.1-7.2
		l5-10.6c0.9-2,1.5-2.9,3-3.7c1.6-0.9,4.6-1,7.3,0.2c4.9,2.1,5.5,5.8,3.6,9.7l-4.8,10.3c-2.3,5-2.7,5.6-5.6,4.8l-1.5-0.4
		c-0.7,0.1-1.1,1.4-0.7,1.8c2,0.7,4.2,1.5,6.9,2.7c2.5,1.1,4.6,2,6.7,3.1c0.6,0,1.3-1.1,1-1.7l-1.5-0.9c-2.5-1.5-2.3-2.2,0.1-7.2
		l5.6-11.9c2.2-4.6,1.5-9.6-4.5-12.2c-3.7-1.6-7.9-1.3-11.8-0.8c-0.5-0.2-0.6-0.7-0.4-1.1c0.3-0.6,0.8-1.7,1.7-3.2
		c0-0.4-0.3-0.7-0.6-0.8c-1.9,0.4-6.9,0.5-8.9,0.3c-0.5,0.1-0.8,0.8-0.7,1.2l0.5,0.7c1.4,2.1,1.2,2.4,0,5.1L419.9,137.6z
		 M389.1,129.7c0.9-2.8,3.4-3.3,8.4-3.6c1.5-0.1,2.9,0,3.4,0.1c0.5,0.1,0.7,0.4,0.5,1.2l-1.4,4.3c-0.5,1.5-0.8,2.5-2,3.2
		c-1,0.5-3.7,1-5.2,0.5C388.7,134.4,388.7,131,389.1,129.7 M391.1,124.6c-5.4,0.3-7.4,1.6-8.2,4.5c-0.6,2-0.2,4.1,0.8,5.7
		c1,1.5,2.6,2.5,4.9,3.1c2.1,0.6,4.1,0.1,6.1-0.3c1.8-0.4,2.9-0.8,3.4-0.6c0.5,0.1,0.7,0.8,0.9,1.4c0.8,2,2.5,3.1,4.3,3.6
		c3.8,1,7.3-1.1,7.4-1.5c0.2-0.5,0.1-1-0.2-1.1c-0.2-0.1-0.7,0.1-1.1,0.2c-0.5,0.1-1.3,0.1-2-0.1c-3-0.8-2.8-4-1.6-7.3l4.3-12.5
		c1.9-5.4,0.1-9.2-5.4-10.7c-5.6-1.5-15.8,1.3-16.9,5.1c-0.2,0.7,0.1,1.1,0.8,1.3c1.1,0.3,3.4,0.4,4.8-0.2c0.7-0.3,1.1-1.1,1.5-2.3
		c0.8-2.2,3.7-2.5,5.9-1.9c4.7,1.3,4.6,5.2,3.7,7.9l-1.1,3.3c-0.3,1.1-0.7,1.7-1.9,1.8L391.1,124.6z M359.7,109.3
		c-0.6-0.1-0.5-0.3-0.5-0.4c0.4-2.5,5.1-6,9.7-5.4c4.6,0.6,5.7,3.4,5.4,5.5c-0.1,1-0.4,1.2-0.7,1.4c-0.7,0.4-2.5,0.4-8.3-0.3
		L359.7,109.3z M374.6,113.6c3.3,0.4,4.4,0.5,4.7,0.1c0.2-0.3,0.4-0.9,0.6-1.9c0.7-4.5-3.1-9.5-9.9-10.4c-9.5-1.3-17,5.6-18.4,14.8
		c-0.5,3.3-0.1,7,1.9,10.2c1.9,3.2,5.6,5.8,10.7,6.5c4.1,0.5,10.1-0.6,13.4-5.3c0-0.7-0.5-1.2-1.3-1.1c-2.9,2.6-5.2,3.1-7.8,2.7
		c-8.4-1.1-12.1-8.2-11-15.8c0.3-1.9,0.4-2,2.4-1.7L374.6,113.6z M340.2,85.2c0-3.3,0.2-7.1,0.2-9.4c-0.2-0.3-0.5-0.5-0.8-0.5
		c-2.9,1.4-6.6,2.6-8.6,3.2c-0.4,0.2-0.4,1.3,0,1.5l0.8,0.5c2.4,1.4,2.5,1.8,2.5,6.3V121c0,5.5-0.1,6.2-3,6.6l-1.8,0.2
		c-0.6,0.4-0.4,1.7,0.2,1.9c2.4-0.2,4.8-0.2,7.6-0.2c2.8,0,5.1,0.1,7.7,0.2c0.6-0.2,0.7-1.5,0.2-1.9l-1.9-0.2c-2.9-0.4-3-1.1-3-6.6
		V85.2z M271.7,109.9c1.4,9.7,7.3,15.8,14.3,19.1c6.3,2.9,13.3,3.4,20.4,2.4c5-0.7,10.6-2.6,12.2-3.4c0.8-0.4,1.7-0.8,2.6-1.1
		c1-1.6,2.3-6.8,2.3-10.8c-0.4-0.5-1.6-0.5-2.1,0c-1.2,4.7-4.7,11.6-14.9,12.9c-12.9,1.7-24.7-5.6-27-21.3
		c-2.3-15.5,6.9-24.2,19-25.8c11.4-1.5,15.9,3.8,17.8,8.8c0.6,0.4,1.8,0.1,2.1-0.4c-1.3-4.5-2.4-9.2-2.7-10.9
		c-0.7,0.2-1.3,0.1-2.3,0c-3.9-0.5-10-0.5-14.2,0.1c-8.2,1.1-15.2,4.2-20.4,9.2C273.3,93.9,270.4,101.6,271.7,109.9 M223.9,129.5
		c-0.5,0.2-0.6,0-0.7-0.1c-1-2.3,1-7.6,5.3-9.4c4.2-1.8,6.7,0,7.6,2c0.4,0.9,0.3,1.3,0.2,1.5c-0.4,0.7-1.9,1.6-7.2,3.9L223.9,129.5z
		 M239,125.6c3.1-1.3,4-1.8,4.1-2.3c0-0.3-0.1-1-0.6-1.9c-1.9-4.2-7.9-6.5-14.2-3.9c-8.7,3.7-11.3,13.3-7.3,21.8
		c1.4,3,3.8,5.9,7.3,7.7c3.3,1.7,8,2.1,12.7,0.1c3.8-1.6,8.2-5.6,8.4-11.3c-0.4-0.6-1.1-0.8-1.7-0.3c-1,3.7-2.7,5.2-5.1,6.2
		c-7.8,3.3-14.9-0.8-18.1-7.8c-0.8-1.7-0.8-1.9,1.1-2.7L239,125.6z M202.4,152.7c-3.2,2-8.1,0.8-11.2-3.7c-3-4.3-2.5-8.6,0.8-10.6
		c4.1-2.5,8.4,0,11.4,4.3C206,146.6,206,150.4,202.4,152.7 M213.9,162c4.8-3,8.7-3.1,11.4,0.8c2.5,3.6,0.7,9.2-5.2,12.9
		c-6.1,3.8-10.9,2.7-13.2-0.8c-1.6-2.4-1.4-5.4-0.4-7.3c0.5-1.1,3.1-2.9,5.3-4.2L213.9,162z M202.6,132.5c-1.5,0.9-2,1.1-4.8,1.5
		c-2,0.3-4.7,1.1-7.3,2.7c-5.9,3.7-8.1,10.9-4.3,16.3c2.8,4.1,7.2,4.9,10.3,4.6c0.2,0.3,0.2,1,0.2,1.6c-0.4,1.8-0.9,3.7-1.5,5.1
		c-0.4,1-0.5,1.4-0.3,1.7c1.5,2.2,5.3,3,8.3,2c0.9,0,0.7,0.9,0.5,1.9c-0.5,2.4-1.3,5.2-1.6,7.1c-0.1,0.8,0.2,1.8,0.9,2.8
		c2.2,3.2,7.9,5.6,16.1,0.5c8.7-5.4,13.2-15.4,8.4-22.3c-4.3-6.4-10.4-3.5-14.1-1.2c-2.9,1.8-5.5,3.7-7.8,5.1
		c-3.1,1.9-5.5,1.7-6.5,0.2c-1.3-1.8,0.1-4.4,0.6-5.3c0.8-0.4,1.9-0.9,3.1-1.6c8.5-5.2,7.3-12.6,4.3-17c-0.7-1.1-1.5-2.2-2.3-3.2
		l4.8-3c0.9-0.7-0.4-3-1.4-2.9L202.6,132.5z M173.5,175.8c3.8,4.1,4.2,4.7,2.3,6.9l-1,1.1c-0.2,0.6,0.9,1.5,1.4,1.3
		c1.5-1.4,3.2-3,5.4-4.7c2.1-1.7,3.9-3.1,6.8-5.3c0.3-0.5-0.5-1.6-1.2-1.5l-2.3,1.6c-2.4,1.7-3.2,1.1-7-3l-7.1-7.8
		c-1.8-1.9-3.1-3.7-3.2-5c-0.1-1,0.2-2.1,1.1-2.9c0.8-0.7,2.1-1.1,3.5-1.3c0.6-0.1,1.1-0.2,1.7-0.7c1-0.8,1.9-2.9,0.2-4.8
		c-1.3-1.4-3.3-1.3-4.8,0c-2.2,1.8-2.9,5.5-3.5,8.9c-0.2,0-0.4-0.1-0.7-0.4l-3-3.3c-0.2-0.2-0.5-0.2-0.8,0c-0.7,2.1-2.5,6.2-3.5,7.8
		c-0.1,0.4,0.4,1,0.9,1.1l0.9-0.1c2.6-0.3,2.8,0,4.9,2.2L173.5,175.8z M152.1,198.1c-2.2-2.1-1.4-4.4,0.8-8.7
		c0.7-1.3,1.4-2.4,1.7-2.7c0.3-0.3,0.7-0.4,1.3,0.2l3.2,3.3c1.1,1.2,1.9,1.9,1.9,3.2c0,1.1-0.9,3.5-2,4.6
		C156.1,200.7,153,199.1,152.1,198.1 M148.3,193.9c-2.3,4.7-2.1,6.9,0.1,9c1.6,1.5,3.7,2.2,5.7,2.1c1.8-0.1,3.6-1,5.2-2.5
		c1.6-1.5,2.1-3.4,2.6-5.2c0.5-1.7,0.7-2.8,1.1-3.2c0.3-0.3,1.1-0.2,1.7-0.1c2.2,0.3,4.1-0.5,5.4-1.8c2.8-2.6,2.5-6.6,2.2-6.9
		c-0.4-0.4-0.9-0.5-1.1-0.3c-0.2,0.2-0.2,0.6-0.3,1.1c-0.2,0.5-0.5,1.1-1.1,1.7c-2.2,2.1-5,0.4-7.5-2.2l-9.5-9.6
		c-4.1-4.2-8.4-4.6-12.4-0.7c-4.1,3.9-6.5,13.8-3.6,16.5c0.5,0.5,1.1,0.5,1.6,0c0.8-0.8,2-2.6,2.1-4.1c0.1-0.8-0.5-1.4-1.4-2.4
		c-1.6-1.8-0.5-4.3,1.1-5.8c3.5-3.3,7-1.3,9,0.7l2.5,2.5c0.8,0.8,1.2,1.4,0.7,2.5L148.3,193.9z M94.3,209.3
		c-1.2-0.7-1.4-1.2-1.2-1.9c0.1-0.7,0.6-1.8,1.5-3.2c3.2-4.9,8.8-8.1,15.4-4.2c6.4,3.8,6.1,8.5,2,15.2c-2,3.4-2.2,3.3-4.1,2.2
		L94.3,209.3z M113.7,220.8c-1.4-0.8-1.6-1.3,0.7-4.8c6.7-10.2,14.6-9.1,20-5.9c6.8,4,6.6,10,2.8,15.7c-1.3,1.9-2.9,3.7-5.2,3.9
		c-2.3,0.3-5.8-1.6-8.3-3L113.7,220.8z M121.2,232.6c7.1,4.2,7.8,4.8,6.1,8.5l-0.6,1.3c0.2,0.6,1.3,1.1,1.8,0.9
		c1.5-2.4,2.8-4.7,4.7-7.5c1.8-2.7,4-5.7,5.3-7.6c7.6-11.6,6-20.2-1.9-24.9c-7.2-4.3-14-1.2-16.9,1.9c-0.6,0.6-1.1,1-1.8,0.6
		c0.6-5-0.1-9.2-4.9-12c-4.3-2.6-8.4-2.1-11.7-0.1c-3.5,2-6.3,5.6-9,9.7c-3.9,6-6.6,10.5-8.5,14.1c-0.1,0.7,0.9,1.3,1.6,1.1l1.6-1.9
		c2.2-2.7,3.6-2.2,8.6,0.7L121.2,232.6z M100.6,268.3c5.7,2.1,11.8,6.5,9.3,12.7c-2.5,6.2-11,6.5-17.7,4c-8.2-3-11.5-8.2-9.6-12.8
		C85.3,265.5,94.3,266,100.6,268.3 M80.7,270.5c-3.4,8.3,0.6,17.5,10,20.9c9.3,3.4,17.9-0.8,21.2-8.9c3.6-8.8-0.7-17.4-10-20.8
		C92.7,258.5,83.9,262.6,80.7,270.5 M72,304.8c-1.6,12.5,6.7,19.2,15.2,20.2c5.2,0.6,9.3-0.7,12.3-3c3-2.3,4.9-5.8,5.4-9.8
		c0.6-4.4-0.9-10.3-6.5-13.5c-0.7,0-1.4,0.6-1.3,1.2c2.5,2,4.2,4.5,3.7,8.9c-1,8-8.9,11.2-15.1,10.5c-8.4-1-12-6.6-11.3-11.9
		c0.4-3.1,2.8-5.6,5.1-7c0.4-0.3,0.6-0.6,0.7-1c0.1-0.9-1.3-1.8-2.7-2c-1.3-0.2-2.7,0.2-3.3,0.8C73,300.2,72.2,303,72,304.8
		 M89.6,363.9c8.4-0.1,9.6,0.2,10,4.5l0.3,2.5c0.5,0.4,1.8,0.3,2-0.2c-0.2-4.5-0.4-7-0.4-10.3l-0.1-6.8c-0.1-6.7-0.2-13.5-0.1-20.3
		c-2.2-0.9-8.4-2.7-11.2-3.2c-0.7,0.3-0.9,1.4-0.5,1.9c4.2,1.9,7,3.9,7.8,5.2c0.9,1.7,1.3,3.8,1.4,9.7c0.1,6.7-0.7,8.3-1.7,9.2
		c-1.3,1.2-4,1.5-8.3,1.6l-11.2,0.2c-2.1,0-2.2-0.2-2.2-2.5l-0.1-4.4c-0.1-3,0-4.8,0.3-5.8c0.4-1.5,1.6-2.1,3-2.4l3.1-0.7
		c0.5-0.4,0.4-1.7-0.1-2c-1.8,0-4.8,0.4-7.6,0.4c-3,0-6.1-0.2-8-0.2c-0.6,0.3-0.5,1.6,0,2l3.3,0.6c2,0.3,2.5,0.9,2.8,1.8
		c0.3,0.9,0.5,3.2,0.6,6.4l0.1,4.4c0,2.3,0,2.5-2.2,2.5l-15.9,0.3c-3,0-3.2,0.1-3.2-2.2l-0.1-5.5c-0.1-3.3,0-5.8,0.3-7.4
		c1-4,3.7-4.7,7.5-5.9c0.5-0.4,0.3-1.6-0.2-1.9c-3.5,0.4-9.2,0.9-10.6,1.4c0.3,0.9,0.3,5.4,0.4,10.2l0.3,14.2c0.1,3.1,0,5.7-0.1,8.9
		c0.2,0.4,1.7,0.6,2,0.1l0.1-1.2c0.5-4.5,1.7-4.6,10-4.8L89.6,363.9z"/>
</g>
</svg>
