<?xml version="1.0" encoding="utf-8"?>
<!-- Generator: Adobe Illustrator 19.2.1, SVG Export Plug-In . SVG Version: 6.00 Build 0)  -->
<svg version="1.1" id="layer" xmlns="http://www.w3.org/2000/svg" xmlns:xlink="http://www.w3.org/1999/xlink" x="0px" y="0px"
	 viewBox="0 0 652 652" style="enable-background:new 0 0 652 652;" xml:space="preserve">
<style type="text/css">
	.st0{filter:url(#Adobe_OpacityMaskFilter);}
	.st1{fill:#FFFFFF;}
	.st2{mask:url(#mask-2_1_);fill:#6BA441;}
	.st3{filter:url(#Adobe_OpacityMaskFilter_1_);}
	.st4{mask:url(#mask-4_1_);fill:#296142;}
	.st5{filter:url(#Adobe_OpacityMaskFilter_2_);}
	.st6{mask:url(#mask-6_1_);fill:#296142;}
	.st7{filter:url(#Adobe_OpacityMaskFilter_3_);}
	.st8{mask:url(#mask-8_1_);fill:#296142;}
	.st9{filter:url(#Adobe_OpacityMaskFilter_4_);}
	.st10{mask:url(#mask-10_1_);fill:#296142;}
</style>
<g id="Page-1">
	<g transform="translate(0.000000, -1.000000)">
		<g id="Group-3" transform="translate(0.000000, 28.724600)">
			<g id="Clip-2">
			</g>
			<defs>
				<filter id="Adobe_OpacityMaskFilter" filterUnits="userSpaceOnUse" x="26.4" y="379.8" width="600" height="20.8">
					<feColorMatrix  type="matrix" values="1 0 0 0 0  0 1 0 0 0  0 0 1 0 0  0 0 0 1 0"/>
				</filter>
			</defs>
			<mask maskUnits="userSpaceOnUse" x="26.4" y="379.8" width="600" height="20.8" id="mask-2_1_">
				<g class="st0">
					<polygon id="path-1_1_" class="st1" points="626.4,390.2 626.4,400.6 26.4,400.6 26.4,390.2 26.4,379.8 626.4,379.8 					"/>
				</g>
			</mask>
			<path id="Fill-1" class="st2" d="M26.4,398.2c0,1.3,1.1,2.4,2.4,2.4H624c1.3,0,2.4-1.1,2.4-2.4v-16c0-1.3-1.1-2.4-2.4-2.4H28.8
				c-1.3,0-2.4,1.1-2.4,2.4V398.2z"/>
		</g>
		<g id="Group-6" transform="translate(20.000000, 0.724600)">
			<g id="Clip-5">
			</g>
			<defs>
				<filter id="Adobe_OpacityMaskFilter_1_" filterUnits="userSpaceOnUse" x="137" y="223.7" width="173.3" height="163.4">
					<feColorMatrix  type="matrix" values="1 0 0 0 0  0 1 0 0 0  0 0 1 0 0  0 0 0 1 0"/>
				</filter>
			</defs>
			<mask maskUnits="userSpaceOnUse" x="137" y="223.7" width="173.3" height="163.4" id="mask-4_1_">
				<g class="st3">
					<polygon id="path-3_1_" class="st1" points="310.3,223.7 137,223.7 137,387 310.3,387 					"/>
				</g>
			</mask>
			<path id="Fill-4" class="st4" d="M310.1,225.8c0.6-1.2,0-2.1-1.3-2.1h-56.6c-1.3,0-2.9,1-3.4,2.1l-25.1,51.5l-25.1-51.5
				c-0.6-1.2-2.1-2.1-3.4-2.1h-56.6c-1.3,0-1.9,1-1.3,2.1l57.2,109v49.8c0,1.3,1.1,2.4,2.4,2.4h53.6c1.3,0,2.4-1.1,2.4-2.4v-49.8
				L310.1,225.8z"/>
		</g>
		<g id="Group-9" transform="translate(70.000000, 0.724600)">
			<g id="Clip-8">
			</g>
			<defs>
				<filter id="Adobe_OpacityMaskFilter_2_" filterUnits="userSpaceOnUse" x="409.4" y="223.7" width="147" height="163.4">
					<feColorMatrix  type="matrix" values="1 0 0 0 0  0 1 0 0 0  0 0 1 0 0  0 0 0 1 0"/>
				</filter>
			</defs>
			<mask maskUnits="userSpaceOnUse" x="409.4" y="223.7" width="147" height="163.4" id="mask-6_1_">
				<g class="st5">
					<polygon id="path-5_1_" class="st1" points="556.4,387 556.4,223.7 409.4,223.7 409.4,387 					"/>
				</g>
			</mask>
			<path id="Fill-7" class="st6" d="M554.1,223.7H504c-1.3,0-2.4,1.1-2.4,2.4v67.6l-41.5-68c-0.7-1.1-2.3-2-3.6-2h-44.7
				c-1.3,0-2.4,1.1-2.4,2.4l2.7,158.6c0,1.3,1.1,2.4,2.4,2.4h47.2c1.3,0,2.4-1.1,2.4-2.4v-62.5l41.7,62.9c0.7,1.1,2.4,2,3.7,2h44.4
				c1.3,0,2.4-1.1,2.4-2.4V226.1C556.4,224.7,555.4,223.7,554.1,223.7"/>
		</g>
		<g id="Group-12" transform="translate(41.000000, 0.724600)">
			<g id="Clip-11">
			</g>
			<defs>
				<filter id="Adobe_OpacityMaskFilter_3_" filterUnits="userSpaceOnUse" x="252.3" y="223.7" width="179.1" height="163.4">
					<feColorMatrix  type="matrix" values="1 0 0 0 0  0 1 0 0 0  0 0 1 0 0  0 0 0 1 0"/>
				</filter>
			</defs>
			<mask maskUnits="userSpaceOnUse" x="252.3" y="223.7" width="179.1" height="163.4" id="mask-8_1_">
				<g class="st7">
					<polygon id="path-7_1_" class="st1" points="431.4,223.7 252.3,223.7 252.3,387 431.4,387 					"/>
				</g>
			</mask>
			<path id="Fill-10" class="st8" d="M328.7,320.3l13.1-43.4l13.3,43.4H328.7z M431.3,384.8l-55.5-158.9c-0.4-1.2-1.9-2.3-3.2-2.3
				h-61.4c-1.3,0-2.7,1-3.2,2.3l-55.5,158.9c-0.4,1.2,0.3,2.3,1.6,2.3h52.6c1.3,0,2.8-1,3.2-2.2l6.9-19h50.2l6.9,19
				c0.5,1.2,1.9,2.2,3.2,2.2h52.6C431,387,431.7,386,431.3,384.8L431.3,384.8z"/>
		</g>
		<g id="Group-15" transform="translate(0.000000, 0.724600)">
			<g id="Clip-14">
			</g>
			<defs>
				<filter id="Adobe_OpacityMaskFilter_4_" filterUnits="userSpaceOnUse" x="26.5" y="223.7" width="153.3" height="163.4">
					<feColorMatrix  type="matrix" values="1 0 0 0 0  0 1 0 0 0  0 0 1 0 0  0 0 0 1 0"/>
				</filter>
			</defs>
			<mask maskUnits="userSpaceOnUse" x="26.5" y="223.7" width="153.3" height="163.4" id="mask-10_1_">
				<g class="st9">
					<polygon id="path-9_1_" class="st1" points="179.7,223.7 26.5,223.7 26.5,387.1 179.7,387.1 					"/>
				</g>
			</mask>
			<path id="Fill-13" class="st10" d="M179.5,384.9l-32.1-61.2c10.4-10.6,16.8-25.1,16.8-41.2c0-32.5-26.4-58.9-58.9-58.9H28.8
				c-1.3,0-2.4,1.1-2.4,2.4v158.6c0,1.3,1.1,2.4,2.4,2.4h53.9c1.3,0,2.4-1.1,2.4-2.4v-86.6c-3.3,3.7-8.6,7.2-16.4,7.2
				c-9,0-11.1-4-11.3-8.1h0v-14.4h0c0.2-4.1,2.3-8.1,11.3-8.1c5.8,0,10.2,2,13.5,4.5c-3.7-3.3-7.4-8.6-7.4-16.6c0-9,4-11.1,8.1-11.3
				v0h14.4v0c4.1,0.2,8.1,2.3,8.1,11.3c0,8-3.6,13.3-7.4,16.6c3.2-2.5,7.6-4.5,13.5-4.5c9,0,11.1,4,11.3,8.1h0v14.4h0
				c-0.2,4.1-2.3,8.1-11.3,8.1c-7.9,0-13.1-3.6-16.4-7.2v52.4l17.6,34.4c0.6,1.2,2.2,2.1,3.5,2.1h62.2
				C179.5,387.1,180.1,386.1,179.5,384.9"/>
		</g>
	</g>
</g>
</svg>
