<?xml version="1.0" encoding="utf-8"?>
<!-- Generator: Adobe Illustrator 19.2.1, SVG Export Plug-In . SVG Version: 6.00 Build 0)  -->
<svg version="1.1" id="layer" xmlns="http://www.w3.org/2000/svg" xmlns:xlink="http://www.w3.org/1999/xlink" x="0px" y="0px"
	 viewBox="0 0 652 652" style="enable-background:new 0 0 652 652;" xml:space="preserve">
<style type="text/css">
	.st0{fill:#584545;}
	.st1{fill-rule:evenodd;clip-rule:evenodd;fill:#584545;}
	.st2{clip-path:url(#SVGID_2_);fill:url(#SVGID_3_);}
	.st3{clip-path:url(#SVGID_5_);fill:url(#SVGID_6_);}
</style>
<g>
	<g>
		<g>
			<path class="st0" d="M404.7,271.1v5.9c0,0.3-0.3,0.6-0.6,0.6h-47c-0.3,0-0.6-0.3-0.6-0.6v-5.9c0-0.3,0.3-0.6,0.6-0.6h18.2v-12.2
				h-15.4c-0.3,0-0.6-0.3-0.6-0.6v-5.9c0-0.3,0.3-0.6,0.6-0.6h15.4v-12.8c0-0.3,0.3-0.6,0.6-0.6h9.4c0.3,0,0.6,0.3,0.6,0.6v12.8
				h15.4c0.3,0,0.6,0.3,0.6,0.6v5.9c0,0.3-0.3,0.6-0.6,0.6h-15.4v12.2h18.2C404.4,270.5,404.7,270.8,404.7,271.1 M354.1,247.8
				c0.3,0,0.6,0.3,0.6,0.6V298c0,6.6-2.8,9.5-9.2,9.5h-17.5c-0.3,0-0.6-0.3-0.6-0.6v-58.6c0-0.3,0.3-0.6,0.6-0.6H354.1z
				 M337.9,254.8v45.7h3.8c1.7,0,2.4-0.7,2.4-2.5v-43.2H337.9z M404.9,309h-19.1v-12.2h15.4c0.3,0,0.6-0.3,0.6-0.6v-5.9
				c0-0.3-0.3-0.6-0.6-0.6h-15.4v-10.7c0-0.2-0.1-0.4-0.3-0.5c-0.2-0.1-0.4-0.1-0.6,0l-9.4,4.9c-0.2,0.1-0.3,0.3-0.3,0.5v5.8h-15.4
				c-0.3,0-0.6,0.3-0.6,0.6v5.9c0,0.3,0.3,0.6,0.6,0.6h15.4V309h-19.1c-0.3,0-0.6,0.3-0.6,0.6v5.9c0,0.3,0.3,0.6,0.6,0.6h48.7
				c0.3,0,0.6-0.3,0.6-0.6v-5.9C405.5,309.3,405.3,309,404.9,309 M580.6,237.9h-77c-0.3,0-0.6,0.3-0.6,0.6v77c0,0.3,0.3,0.6,0.6,0.6
				h68.1c6.4,0,9.5-3.2,9.5-9.7v-67.9C581.2,238.2,580.9,237.9,580.6,237.9 M546.8,261.6h10.2v2.8h-10.2V261.6z M546.8,269.6h10.2
				v2.8h-10.2V269.6z M546.8,277.6h8.1c0.2,0.5,0.5,1.1,0.8,1.6c-2.3,0.2-5.3,0.3-8.9,0.5V277.6z M571.1,306.3
				c0,2.3-0.9,3.2-3.1,3.2h-54.8v-65.1H544l-6.1,3.4c-0.2,0.1-0.3,0.3-0.3,0.5v0h-21.5c-0.3,0-0.6,0.3-0.6,0.6v4.6
				c0,0.3,0.3,0.6,0.6,0.6h21.5v2.3h-18.8c-0.3,0-0.6,0.3-0.6,0.6v20c0,0.3,0.3,0.6,0.6,0.6h18.8v2.6c-10.9,0.5-21.4,0.8-21.5,0.8
				c-0.3,0-0.5,0.3-0.5,0.6v4.6c0,0.1,0.1,0.3,0.2,0.4c0.1,0.1,0.3,0.2,0.4,0.2c0.3,0,31.9-1.1,43-2c1,1.4,1.7,2.3,1.8,2.3
				c0.1,0.1,0.3,0.2,0.4,0.2h9.1c0.2,0,0.4-0.1,0.5-0.4c0-0.1,0-0.1,0-0.2c0-0.1,0-0.3-0.1-0.4c-3.2-3.5-5.5-7.1-6.5-8.7h1.3
				c0.3,0,0.6-0.3,0.6-0.6v-20c0-0.3-0.3-0.6-0.6-0.6h-18.8v-2.3h21.8c0.3,0,0.6-0.3,0.6-0.6V249c0-0.3-0.3-0.6-0.6-0.6h-21.8v-4
				h24.3V306.3z M527.4,261.6h10.2v2.8h-10.2V261.6z M537.6,272.4h-10.2v-2.8h10.2V272.4z M568.6,289h-8v-1.3c0-0.3-0.2-0.6-0.6-0.6
				h-8c-0.3,0-0.6,0.3-0.6,0.6v1.3h-35.3c-0.3,0-0.6,0.3-0.6,0.6v4.6c0,0.3,0.3,0.6,0.6,0.6h35.3v6.6c0,0.5-0.2,0.6-0.5,0.6H543
				c-0.2,0-0.5,0.1-0.5,0.3c0,0.1-0.1,0.2-0.1,0.2c0,0.1,0.1,0.3,0.2,0.4l4.5,4.6c0.1,0.1,0.3,0.2,0.4,0.2h6.9
				c4.2,0,6.2-2.1,6.2-6.3v-6.6h8c0.3,0,0.6-0.3,0.6-0.6v-4.6C569.1,289.2,568.9,289,568.6,289 M532.2,296.8
				c-0.1-0.1-0.3-0.2-0.4-0.2h-8.1c-0.2,0-0.4,0.1-0.5,0.3c-0.1,0.2-0.1,0.4,0.1,0.6c5,6.3,8.5,8.7,8.7,8.8c0.1,0.1,0.2,0.1,0.3,0.1
				h10.1c0.3,0,0.5-0.2,0.5-0.4c0.1-0.3,0-0.5-0.3-0.6C536.6,301.7,532.3,296.9,532.2,296.8 M449.6,237.9c-0.2,0-0.3,0.1-0.5,0.2
				c-0.1,0.1-0.1,0.2-0.1,0.3c0,0,0,0.1,0,0.1c0.4,1.5,1.2,3.7,2.3,6.4h-16.1c1.8-2.1,3.3-4.2,4.6-6.3c0-0.1,0.1-0.2,0.1-0.3
				c0-0.1,0-0.2-0.1-0.3c-0.1-0.2-0.3-0.3-0.5-0.3h-9.6c-0.2,0-0.4,0.1-0.5,0.3c-3.9,5.7-9.3,11.2-16.2,16.3
				c-0.2,0.1-0.3,0.4-0.2,0.6c0.1,0.2,0.3,0.4,0.5,0.4h7.2v20.4c0,2.3,0.7,4.3,2.1,5.9c1.4,1.6,3.2,2.5,5.3,2.5h28.3
				c-2.2,1.3-6.2,3.6-6.4,3.8h-31.3c-0.3,0-0.6,0.3-0.6,0.6v5.8c0,0.3,0.3,0.6,0.6,0.6h30.9v20.6c0,0.3,0.3,0.6,0.6,0.6h8.7
				c0.3,0,0.6-0.3,0.6-0.6v-20.6H490c0.3,0,0.6-0.3,0.6-0.6v-5.8c0-0.3-0.2-0.6-0.6-0.6h-30.7v-3.8h28.4c0.3,0,0.6-0.3,0.6-0.6v-5.8
				c0-0.3-0.2-0.6-0.6-0.6h-26.2v-3.8h21.7c0.3,0,0.6-0.3,0.6-0.6v-5.7c0-0.3-0.2-0.6-0.6-0.6h-21.7v-3.8h21.7
				c0.3,0,0.6-0.3,0.6-0.6v-5.7c0-0.3-0.2-0.6-0.6-0.6h-21.7v-3.8h26.2c0.3,0,0.6-0.3,0.6-0.6v-5.9c0-0.3-0.2-0.6-0.6-0.6h-26.4
				c-1-2-1.9-4.3-2.7-6.8c-0.1-0.2-0.3-0.4-0.6-0.4H449.6z M451.6,273.4v3.8H432c-0.4,0-0.7-0.2-1-0.5c-0.3-0.4-0.5-0.7-0.5-1.2
				v-2.1H451.6z M451.6,266.5h-21.1v-3.8h21.1V266.5z M451.6,255.9h-21.1v-3.8h21.1V255.9z M436.9,296.7c-0.2,0-0.3,0.1-0.4,0.2
				c-6.5,6.8-12.2,11.6-19.5,16.1c-0.2,0.1-0.3,0.4-0.2,0.6c0.1,0.2,0.3,0.4,0.5,0.4h13.6c0.1,0,0.3-0.1,0.4-0.1
				c7.3-6.2,12.1-11.1,16.2-16.2c0.1-0.2,0.1-0.4,0.1-0.6c-0.1-0.2-0.3-0.3-0.5-0.3H436.9z M461.8,296.7c-0.2,0-0.4,0.1-0.5,0.3
				c-0.1,0.2-0.1,0.4,0.1,0.6c5.8,7,10.4,11.9,15.7,16.2c0.1,0.1,0.2,0.1,0.4,0.1h13.3c0.2,0,0.5-0.2,0.5-0.4c0.1-0.2,0-0.5-0.2-0.6
				c-7.2-4.8-12.7-9.6-18.8-16.1c-0.1-0.1-0.3-0.2-0.4-0.2H461.8z M314.9,315.3c-9-26.7-9.7-61.5-9.7-69.5c0.8-0.1,5-0.9,5-0.9
				c0.3-0.1,0.5-0.3,0.5-0.6v-5.9c0-0.2-0.1-0.3-0.2-0.4c-0.1-0.1-0.3-0.2-0.5-0.1c-0.3,0.1-31.4,6.1-66.2,6.1
				c-0.3,0-0.6,0.3-0.6,0.6V282c0,11.5-2.4,23.9-6.4,33.3c-0.1,0.2-0.1,0.4,0,0.5c0.1,0.2,0.3,0.3,0.5,0.3h11c0.3,0,0.5-0.1,0.5-0.4
				c3.4-9.1,5.4-21.7,5.4-33.7v-31.1c16.8-0.5,29.8-2.2,39.8-3.4c0.1,10.4,1.2,42.9,8.7,68.1c0.1,0.3,0.3,0.4,0.5,0.4h11.1
				c0.2,0,0.4-0.1,0.5-0.2c0.1-0.1,0.1-0.2,0.1-0.3C314.9,315.4,314.9,315.4,314.9,315.3 M279.5,251.2c-0.2-0.1-0.4-0.1-0.6,0
				l-9.9,5.5c-0.2,0.1-0.3,0.3-0.3,0.5l0,58.2c0,0.3,0.3,0.6,0.6,0.6h10c0.3,0,0.6-0.3,0.6-0.6l0-63.7
				C279.7,251.5,279.6,251.3,279.5,251.2"/>
			<path class="st0" d="M237.3,401.5v-9.9c4.5,1.9,7.9,3,10.1,3.4c2.2,0.4,4.3,0.6,6.1,0.6c3.4,0,5.9-0.8,7.5-2.3
				c1.7-1.5,2.5-3.3,2.5-5.4c0-1.6-0.5-3.1-1.4-4.4c-0.9-1.3-3.2-2.9-6.8-4.9l-3.9-2.1c-5.5-3.1-9.3-5.9-11.3-8.6
				c-2-2.6-3-5.6-3-9.1c0-4.3,1.7-8,5-11.1c3.3-3.1,8.1-4.6,14.3-4.6c4.6,0,9.9,0.7,15.7,2v9.2c-5.9-2.2-10.7-3.3-14.2-3.3
				c-2.9,0-5.1,0.6-6.6,1.9c-1.5,1.3-2.3,2.8-2.3,4.5c0,1.4,0.5,2.6,1.4,3.8c0.9,1.2,3.2,2.8,6.8,4.8l4.2,2.3
				c6.4,3.6,10.4,6.6,12.2,9.3c1.7,2.6,2.6,5.6,2.6,8.9c0,4.7-1.8,8.7-5.4,12.1c-3.6,3.3-9.3,5-17.2,5
				C248.9,403.4,243.5,402.8,237.3,401.5"/>
			<path class="st0" d="M462.2,402v-40.5l11.5-3.1v9c1.4-2.8,3.2-4.9,5.6-6.6c2.4-1.6,5-2.5,8-2.5c0.7,0,1.4,0.1,2.1,0.3v10.3
				c-1.6-0.6-3.1-0.9-4.5-0.9c-2.3,0-4.4,0.6-6.2,1.7c-1.9,1.2-3.5,2.9-5,5.2v27H462.2z"/>
			<path class="st0" d="M513.6,403c-4.6,0-8.6-0.9-11.9-2.7c-3.3-1.8-5.8-4.4-7.6-7.9c-1.8-3.5-2.6-7.4-2.6-11.7
				c0-4.2,0.9-8.1,2.6-11.6c1.7-3.5,4.2-6.1,7.6-8c3.3-1.8,7.3-2.7,11.9-2.7c4.7,0,8.7,0.9,12,2.7c3.3,1.8,5.8,4.5,7.6,8
				c1.7,3.5,2.6,7.3,2.6,11.6c0,4.3-0.9,8.2-2.6,11.7c-1.7,3.5-4.3,6.1-7.6,7.9C522.2,402.1,518.2,403,513.6,403 M513.6,395.8
				c3.3,0,5.8-1.4,7.4-4.3c1.6-2.9,2.5-6.5,2.5-10.8c0-4.3-0.8-7.9-2.5-10.8c-1.6-2.9-4.1-4.3-7.4-4.3c-3.2,0-5.7,1.4-7.4,4.3
				c-1.6,2.9-2.5,6.5-2.5,10.8c0,4.4,0.8,8,2.5,10.8C507.9,394.4,510.3,395.8,513.6,395.8"/>
			<path class="st0" d="M569.1,402v-8c-2,3.3-4.3,5.6-6.8,6.9c-2.5,1.4-5.1,2.1-7.7,2.1c-3.4,0-6.3-1.1-8.7-3.3
				c-2.4-2.2-3.6-5.6-3.6-10.2v-28l11.5-3.1v28.3c0,2.3,0.2,3.9,0.6,4.7c0.4,0.8,1,1.5,1.7,1.9c0.7,0.4,1.6,0.6,2.5,0.6
				c1.6,0,3.2-0.5,4.9-1.6c1.7-1,3.6-3.1,5.5-6.2v-24.7l11.5-3.1V402H569.1z"/>
			<path class="st0" d="M590.6,417.4v-55.9l11.5-3.1v9c1.5-3,3.3-5.3,5.6-6.8c2.3-1.5,5-2.3,8.1-2.3c5.2,0,9.2,1.9,12,5.8
				c2.8,3.9,4.3,9,4.3,15.3c0,6.7-1.6,12.3-4.8,16.7c-3.2,4.5-7.6,6.7-13.3,6.7c-1.5,0-2.9-0.2-4.2-0.5c-1.3-0.3-2.5-0.8-3.7-1.5
				c-1.2-0.7-2.5-1.8-4.1-3.3v19.7H590.6z M602.1,390.9c1.6,1.8,3.1,3,4.5,3.7c1.4,0.6,2.8,1,4.3,1c3.1,0,5.3-1.5,6.8-4.6
				c1.5-3,2.3-6.5,2.3-10.5c0-4.1-0.7-7.2-2.2-9.6c-1.4-2.3-3.5-3.5-6.1-3.5c-1.6,0-3.3,0.6-5,1.8c-1.7,1.2-3.2,2.8-4.6,4.8V390.9z"
				/>
			<path class="st0" d="M367.7,402H380l-22.4-57.6h-12L323.2,402h8.7l6-15.3l23.8,0L367.7,402z M341,378.8l8.8-22.7l8.8,22.7H341z"
				/>
			<polygon class="st0" points="321,352.4 321,344.5 284.1,344.5 284.1,402 319.4,402 322.6,393.8 296.1,393.8 296.1,377.2 
				316.7,377.2 316.7,369.3 296.1,369.3 296.1,352.4 			"/>
			<path class="st0" d="M441,373.3l0,21.5c-1.9,0.4-3.5,0.6-4.8,0.6c-6.4,0-11.3-2-14.8-6c-3.5-4-5.3-9.4-5.3-16.1
				c0-6.2,1.5-11.5,4.5-15.8c3-4.4,7.8-6.5,14.6-6.5c2.1,0,4.3,0.2,6.6,0.5c2.3,0.3,6,1.4,11.2,3.2v-9.4c-6.2-1.5-12.5-2.2-18.8-2.2
				c-7.5,0-13.4,1.3-17.8,3.9c-4.4,2.6-7.6,6.2-9.8,10.8c-2.1,4.6-3.2,9.7-3.2,15.4c0,8.8,2.5,16,7.4,21.7
				c4.9,5.7,12.7,8.6,23.5,8.6c2.6,0,5.1-0.1,7.5-0.4c2.4-0.3,6.1-1.1,11.2-2.4v-30.5L441,373.3z"/>
			<polygon class="st1" points="63.5,284.8 32.2,316 118.2,316 118.2,402 149.4,370.7 149.4,284.8 			"/>
		</g>
		<g>
			<defs>
				<polygon id="SVGID_1_" points="32.2,323.8 32.2,402 110.3,402 110.3,370.7 63.5,370.7 63.5,323.8 				"/>
			</defs>
			<clipPath id="SVGID_2_">
				<use xlink:href="#SVGID_1_"  style="overflow:visible;"/>
			</clipPath>
			
				<linearGradient id="SVGID_3_" gradientUnits="userSpaceOnUse" x1="28.5409" y1="740.2944" x2="32.542" y2="740.2944" gradientTransform="matrix(-51.0785 51.0785 51.0785 51.0785 -36146.3633 -39045.7188)">
				<stop  offset="0" style="stop-color:#82BC00"/>
				<stop  offset="0.5" style="stop-color:#009944"/>
				<stop  offset="1" style="stop-color:#009944"/>
			</linearGradient>
			<polygon class="st2" points="149.4,362.9 71.3,441 -6.9,362.9 71.3,284.8 			"/>
		</g>
		<g>
			<defs>
				<polygon id="SVGID_4_" points="118.2,237.9 118.2,269.1 165,269.1 165,316 196.3,316 196.3,237.9 				"/>
			</defs>
			<clipPath id="SVGID_5_">
				<use xlink:href="#SVGID_4_"  style="overflow:visible;"/>
			</clipPath>
			
				<linearGradient id="SVGID_6_" gradientUnits="userSpaceOnUse" x1="28.5519" y1="740.3017" x2="32.5528" y2="740.3017" gradientTransform="matrix(-51.075 51.075 51.075 51.075 -36143.8672 -39043.7734)">
				<stop  offset="0" style="stop-color:#82BC00"/>
				<stop  offset="0.5" style="stop-color:#009944"/>
				<stop  offset="1" style="stop-color:#009944"/>
			</linearGradient>
			<polygon class="st3" points="235.3,277 157.2,355.1 79.1,277 157.2,198.8 			"/>
		</g>
		<g>
			<rect x="79.1" y="323.8" class="st1" width="31.3" height="31.3"/>
			<polygon class="st1" points="79.1,269.1 79.1,277 110.3,277 110.3,237.9 			"/>
			<polygon class="st1" points="157.2,323.9 157.2,355.1 165,355.1 196.3,323.9 			"/>
		</g>
	</g>
</g>
</svg>
